<svg width="295" height="295" viewBox="0 0 295 295" fill="none" xmlns="http://www.w3.org/2000/svg">
<path d="M109.638 168.731L110.239 167.514L108.898 167.301C68.3194 160.872 40.0996 149.413 22.878 137.048C5.58026 124.628 -0.327463 111.553 2.77089 101.817C5.86936 92.0794 18.2493 84.8162 39.5481 84.6613C60.7531 84.507 90.4119 91.4407 127.251 109.613L128.468 110.214L128.681 108.873C135.108 68.3014 146.568 40.0866 158.935 22.8682C171.357 5.57381 184.434 -0.333036 194.173 2.76481C203.913 5.86273 211.178 18.2402 211.332 39.534C211.486 60.7343 204.55 90.3862 186.371 127.216L185.77 128.433L187.111 128.646C227.664 135.093 255.866 146.566 273.076 158.942C290.362 171.373 296.266 184.455 293.169 194.195C290.072 203.934 277.699 211.195 256.414 211.342C235.222 211.488 205.582 204.541 168.767 186.348L167.549 185.746L167.336 187.088C160.907 227.656 149.446 255.869 137.078 273.087C124.656 290.38 111.579 296.287 101.839 293.189C92.0998 290.091 84.835 277.714 84.6801 256.419C84.5258 235.218 91.461 205.565 109.638 168.731ZM161.574 174.245C176.076 166.742 181.749 148.903 174.246 134.401C166.742 119.899 148.903 114.225 134.401 121.729C119.899 129.232 114.226 147.071 121.729 161.573C129.232 176.075 147.072 181.749 161.574 174.245Z" fill="#F7AEF8" stroke="#111111" stroke-width="2"/>
</svg>
