<svg width="228" height="228" viewBox="0 0 228 228" fill="none" xmlns="http://www.w3.org/2000/svg">
<path d="M45.6865 93.4472L46.5728 92.984L46.1096 92.0977L37.0929 74.8458C24.277 50.3244 33.7661 20.0565 58.2875 7.24047C82.8089 -5.57552 113.077 3.9136 125.893 28.435L134.909 45.6869L135.373 46.5732L136.259 46.11L153.511 37.0934C178.032 24.2774 208.3 33.7665 221.116 58.2879C233.932 82.8093 224.443 113.077 199.922 125.893L182.67 134.91L181.783 135.373L182.247 136.259L191.263 153.511C204.079 178.033 194.59 208.301 170.069 221.117C145.547 233.933 115.279 224.443 102.463 199.922L93.4467 182.67L92.9835 181.784L92.0973 182.247L74.8454 191.264C50.324 204.08 20.056 194.591 7.24005 170.069C-5.57594 145.548 3.91319 115.28 28.4346 102.464L45.6865 93.4472Z" fill="#F7AEF8" stroke="#111111" stroke-width="2"/>
</svg>
