<svg width="300" height="217" viewBox="0 0 300 217" fill="none" xmlns="http://www.w3.org/2000/svg">
<path d="M289.888 74.4227L289.947 74.4542C281.493 69.5314 273.031 64.6046 264.577 59.6818C260.174 57.1178 254.575 56.6208 248.314 58.4629C248.106 58.3407 247.893 58.2184 247.68 58.0961C247.019 57.7135 246.326 57.3821 245.601 57.11L185.844 31.7503C165.656 19.8811 147.314 9.10056 144.889 7.6884C141.955 5.9804 138.211 5.6885 134.021 6.99416C131.296 5.40844 128.567 3.81877 125.843 2.22911C122.535 0.30416 117.959 0.576335 112.907 3.49926C102.87 9.30568 94.7629 23.376 94.7944 34.9257C94.8101 40.669 96.8341 44.7082 100.098 46.6056C102.323 47.9033 104.548 49.1971 106.773 50.4949C107.316 56.2224 109.663 60.2932 113.183 62.3444C113.53 62.5456 114.215 62.9479 115.172 63.5081L82.4617 82.5367C66.2821 73.0224 52.8705 65.1411 50.8466 63.9656C50.3268 63.6619 49.7795 63.4055 49.2085 63.1964C48.7675 62.9361 48.4249 62.7349 48.2163 62.6166C45.6726 61.1374 42.5185 60.7114 38.9904 61.4805C36.3443 59.9382 33.6943 58.3959 31.0482 56.8575C27.7446 54.9326 23.1651 55.2047 18.1171 58.1237C8.07615 63.9262 -0.0314095 77.9925 9.14847e-05 89.5501C0.015842 95.2895 2.03978 99.3287 5.30013 101.23C6.87124 102.141 8.43447 103.056 10.0056 103.968C10.2655 110.46 12.6989 115.048 16.5066 117.265C18.9597 118.693 37.6674 129.69 58.1036 141.701L105.828 178.694C106.844 180.153 108.041 181.376 109.399 182.338C110.533 190.216 114.01 195.848 119.058 198.787C127.516 203.706 135.974 208.633 144.432 213.556C144.251 213.449 144.078 213.327 143.897 213.212C150.201 217.22 159.1 216.849 168.959 211.149C188.002 200.132 203.386 173.435 203.323 151.519C203.292 140.601 199.433 132.933 193.207 129.343L193.266 129.375C184.808 124.452 176.35 119.529 167.892 114.606C163.49 112.042 157.895 111.541 151.63 113.387C151.417 113.265 151.209 113.143 151 113.02C150.516 112.736 150.008 112.496 149.488 112.275L148.637 111.904L170.972 98.9106L202.492 123.773C203.508 125.233 204.705 126.459 206.064 127.418C207.194 135.295 210.675 140.928 215.723 143.867C224.181 148.786 232.639 153.713 241.093 158.639C240.908 158.529 240.738 158.411 240.557 158.296C246.861 162.3 255.76 161.933 265.616 156.229C284.659 145.22 300.043 118.515 299.984 96.5991C299.952 85.6805 296.093 78.0083 289.868 74.4227H289.888Z" fill="#F7AEF8" stroke="#111111" stroke-width="2" stroke-miterlimit="10"/>
<path d="M128.96 9.25045C130.704 8.24459 132.397 7.49906 134.024 6.99416C131.299 5.40844 128.57 3.81877 125.845 2.22911C122.538 0.30416 117.962 0.576335 112.91 3.49926C102.873 9.30568 94.7655 23.376 94.797 34.9257C94.8127 40.669 96.8367 44.7082 100.101 46.6056C102.326 47.9033 104.55 49.1971 106.775 50.4949C106.7 49.6823 106.657 48.8342 106.657 47.9586C106.618 33.7305 116.604 16.402 128.964 9.25045H128.96Z" fill="#F7AEF8" stroke="#111111" stroke-width="2" stroke-miterlimit="10"/>
<path d="M32.2846 64.1706C34.6197 62.8216 36.872 61.9301 38.9904 61.4726C36.3443 59.9302 33.6943 58.3879 31.0482 56.8495C27.7446 54.9246 23.1651 55.1967 18.1171 58.1157C8.07615 63.9261 -0.0314095 77.9924 9.14847e-05 89.55C0.015842 95.2894 2.03978 99.3286 5.30013 101.23C6.87124 102.141 8.43448 103.056 10.0056 103.967C9.98984 103.608 9.97802 103.25 9.97802 102.879C9.93865 88.6546 19.9245 71.3222 32.2846 64.1706Z" fill="#F7AEF8" stroke="#111111" stroke-width="2" stroke-miterlimit="10"/>
<path d="M173.556 97.4116L170.984 98.9106L202.505 123.773C201.406 122.184 200.52 120.318 199.887 118.184L173.556 97.4156V97.4116Z" fill="#F7AEF8" stroke="#111111" stroke-width="2" stroke-miterlimit="10"/>
<path d="M112.437 49.0119C112.397 35.6595 121.769 19.3999 133.365 12.6902C139.205 9.31367 144.493 9.00205 148.312 11.2268C150.588 12.5522 167.8 22.67 186.744 33.8016L239.476 56.1791C241.685 56.0963 243.745 56.4119 245.603 57.114L185.846 31.7544C165.658 19.8851 147.316 9.10461 144.891 7.69245C141.957 5.98445 138.212 5.69256 134.023 6.99821C132.393 7.50706 130.7 8.24864 128.959 9.25451C116.599 16.406 106.613 33.7385 106.652 47.9626C106.652 48.8383 106.696 49.6864 106.771 50.499C107.314 56.2265 109.661 60.2973 113.181 62.3485C113.528 62.5496 114.213 62.952 115.17 63.5121L117.772 61.9974C114.469 59.6306 112.453 55.1733 112.437 49.0158V49.0119Z" fill="#F7AEF8" stroke="#111111" stroke-width="2" stroke-miterlimit="10"/>
<path d="M240.04 62.0875C242.891 60.4386 245.663 59.2434 248.313 58.4624C248.104 58.3401 247.892 58.2178 247.679 58.0956C247.018 57.7129 246.325 57.3816 245.6 57.1094C243.742 56.4073 241.682 56.0957 239.473 56.1746C235.772 56.3126 231.641 57.5709 227.286 60.0915C211.461 69.2429 198.676 91.4351 198.727 109.651C198.735 112.838 199.144 115.686 199.884 118.179C200.518 120.313 201.404 122.183 202.503 123.765C203.519 125.228 204.716 126.455 206.074 127.414C205.814 125.627 205.677 123.721 205.673 121.71C205.614 99.7936 220.994 73.1007 240.036 62.0875H240.04Z" fill="#F7AEF8" stroke="#111111" stroke-width="2" stroke-miterlimit="10"/>
<path d="M291.41 114.16C292.823 109.474 293.591 104.772 293.575 100.311C293.575 100.149 293.563 99.9914 293.563 99.8257C293.556 99.2616 293.54 98.7054 293.504 98.169C293.489 97.8889 293.457 97.6246 293.434 97.3525C293.394 96.9264 293.355 96.4965 293.3 96.0863C293.264 95.8141 293.221 95.5458 293.182 95.2816C293.119 94.8792 293.048 94.4848 292.973 94.0982C292.922 93.8536 292.87 93.6091 292.811 93.3645C292.717 92.9622 292.615 92.5716 292.504 92.189C292.445 91.9839 292.39 91.7788 292.327 91.5776C292.181 91.12 292.024 90.6743 291.855 90.2443C291.811 90.1378 291.776 90.0234 291.733 89.9169C291.508 89.3726 291.268 88.848 291.004 88.347C290.973 88.2799 290.929 88.2208 290.894 88.1537C290.669 87.7316 290.429 87.3214 290.177 86.9348C290.094 86.8047 290.004 86.6824 289.917 86.5562C289.701 86.2406 289.48 85.9369 289.248 85.645C289.142 85.5108 289.031 85.3846 288.921 85.2545C288.689 84.9862 288.449 84.7298 288.204 84.4813C288.086 84.363 287.972 84.2446 287.854 84.1342C287.586 83.8857 287.315 83.653 287.035 83.4281C286.925 83.3374 286.818 83.2427 286.704 83.1599C286.33 82.8798 285.944 82.6195 285.543 82.3789C285.519 82.3631 285.495 82.3434 285.468 82.3315C285.405 82.296 285.342 82.2684 285.279 82.2329C286.346 85.1716 286.94 88.631 286.952 92.5914C286.968 97.4037 286.137 102.484 284.613 107.545C280.05 122.712 269.316 137.717 256.763 144.971C251.978 147.74 247.458 149.074 243.426 149.125C243.591 149.275 243.749 149.433 243.922 149.571C243.949 149.59 243.973 149.614 244.001 149.638C244.371 149.934 244.753 150.21 245.147 150.466C245.186 150.494 245.225 150.517 245.265 150.541C245.662 150.794 246.072 151.022 246.493 151.227C246.525 151.243 246.56 151.259 246.592 151.275C247.485 151.705 248.427 152.04 249.423 152.273C249.423 152.273 249.431 152.273 249.435 152.273C249.919 152.387 250.415 152.474 250.923 152.537C250.962 152.541 251.002 152.549 251.045 152.557C251.541 152.616 252.045 152.655 252.557 152.667C252.604 152.667 252.656 152.667 252.703 152.667C253.223 152.675 253.75 152.667 254.286 152.628C254.317 152.628 254.349 152.62 254.384 152.62C255.506 152.533 256.664 152.348 257.853 152.056C257.873 152.048 257.893 152.048 257.912 152.04C258.487 151.898 259.07 151.724 259.657 151.535C259.716 151.515 259.779 151.496 259.838 151.476C260.413 151.283 260.988 151.066 261.574 150.825C261.645 150.794 261.716 150.766 261.787 150.734C262.378 150.49 262.968 150.218 263.567 149.918C263.622 149.894 263.677 149.867 263.728 149.839C264.35 149.527 264.976 149.192 265.61 148.825C277.234 142.104 287.177 128.207 291.402 114.152L291.41 114.16Z" fill="#F7AEF8" stroke="#111111" stroke-width="2" stroke-miterlimit="10"/>
<path d="M239.457 157.519C239.287 157.389 239.114 157.267 238.953 157.136C238.764 156.979 238.587 156.813 238.402 156.647C238.244 156.509 238.083 156.371 237.929 156.225C237.748 156.052 237.582 155.866 237.409 155.685C237.264 155.531 237.11 155.385 236.968 155.223C236.799 155.034 236.641 154.829 236.476 154.636C236.342 154.466 236.2 154.308 236.07 154.139C235.913 153.93 235.763 153.705 235.614 153.492C235.492 153.314 235.362 153.141 235.244 152.959C235.098 152.73 234.96 152.494 234.822 152.265C234.708 152.072 234.59 151.886 234.48 151.689C234.346 151.444 234.228 151.196 234.102 150.944C233.999 150.738 233.889 150.541 233.791 150.332C233.668 150.076 233.562 149.8 233.448 149.535C233.357 149.318 233.259 149.109 233.172 148.892C233.066 148.616 232.972 148.328 232.869 148.04C232.79 147.812 232.704 147.595 232.629 147.362C232.534 147.074 232.456 146.766 232.369 146.466C232.302 146.23 232.223 145.997 232.164 145.752C232.082 145.441 232.015 145.113 231.94 144.79C231.885 144.545 231.822 144.309 231.774 144.06C231.708 143.717 231.652 143.37 231.593 143.019C231.55 142.774 231.503 142.538 231.467 142.289C231.412 141.914 231.373 141.52 231.326 141.137C231.298 140.901 231.267 140.676 231.243 140.435C231.2 140.001 231.176 139.548 231.148 139.098C231.137 138.897 231.117 138.707 231.109 138.506C231.078 137.848 231.058 137.177 231.058 136.495C230.995 114.578 246.379 87.8856 265.418 76.8723C266.016 76.5252 266.611 76.2017 267.197 75.8941C267.363 75.8073 267.524 75.7323 267.69 75.6495C268.111 75.4365 268.536 75.2274 268.953 75.0302C269.154 74.9395 269.351 74.8566 269.556 74.7699C269.934 74.6081 270.312 74.4346 270.686 74.2847C270.879 74.2058 271.068 74.1466 271.261 74.0717L271.332 74.048C271.686 73.9139 272.045 73.7719 272.395 73.6536C272.608 73.5826 272.812 73.5273 273.025 73.4603C273.372 73.3498 273.726 73.2315 274.068 73.1368C274.285 73.0776 274.494 73.0303 274.706 72.9751C275.041 72.8923 275.38 72.7976 275.71 72.7266C275.927 72.6792 276.136 72.6477 276.352 72.6043C276.675 72.5412 277.002 72.4741 277.321 72.4189C277.534 72.3913 277.742 72.3716 277.955 72.344C278.27 72.3085 278.585 72.2572 278.892 72.2296C279.105 72.2098 279.309 72.2098 279.518 72.1941C279.821 72.1783 280.128 72.1546 280.424 72.1467C280.632 72.1467 280.837 72.1546 281.042 72.1546C281.333 72.1546 281.629 72.1546 281.916 72.1664C282.121 72.1783 282.322 72.202 282.526 72.2177C282.81 72.2375 283.094 72.2572 283.365 72.2887C283.566 72.3124 283.763 72.3558 283.964 72.3834C284.235 72.4268 284.503 72.4623 284.771 72.5175C284.968 72.557 285.165 72.6122 285.362 72.6595C285.618 72.7226 285.877 72.7779 286.129 72.8489C286.322 72.908 286.515 72.9751 286.704 73.0382C286.948 73.1171 287.196 73.192 287.433 73.2828C287.626 73.3538 287.811 73.4366 287.996 73.5155C288.228 73.6141 288.46 73.7048 288.689 73.8113C288.878 73.8981 289.055 74.0007 289.24 74.0993C289.457 74.2097 289.677 74.3162 289.89 74.4385L289.949 74.4701C281.495 69.5472 273.033 64.6205 264.579 59.6977C260.177 57.1337 254.577 56.6367 248.316 58.4788C245.662 59.2598 242.894 60.455 240.043 62.1038C221.001 73.1171 205.621 99.81 205.68 121.726C205.684 123.742 205.826 125.643 206.082 127.43C207.212 135.307 210.692 140.94 215.74 143.879C224.199 148.798 232.657 153.724 241.111 158.651C240.926 158.541 240.756 158.422 240.575 158.308C240.394 158.194 240.209 158.087 240.032 157.957C239.835 157.823 239.65 157.677 239.457 157.531V157.519Z" fill="#F7AEF8" stroke="#111111" stroke-width="2" stroke-miterlimit="10"/>
<path d="M289.887 74.423C289.674 74.3007 289.454 74.1942 289.237 74.0837C289.056 73.9851 288.875 73.8826 288.686 73.7958C288.461 73.6893 288.225 73.5986 287.993 73.4999C287.808 73.4211 287.619 73.3382 287.43 73.2672C287.19 73.1765 286.942 73.1015 286.701 73.0226C286.508 72.9595 286.319 72.8925 286.126 72.8333C285.874 72.7623 285.615 72.7071 285.359 72.644C285.162 72.5966 284.969 72.5454 284.768 72.502C284.504 72.4467 284.232 72.4112 283.961 72.3678C283.76 72.3402 283.563 72.3008 283.362 72.2732C283.087 72.2377 282.803 72.2219 282.524 72.2022C282.319 72.1825 282.118 72.1588 281.913 72.1509C281.626 72.1391 281.33 72.143 281.039 72.1391C280.83 72.1391 280.63 72.1272 280.421 72.1312C280.126 72.1391 279.818 72.1627 279.515 72.1785C279.306 72.1943 279.102 72.1943 278.889 72.214C278.578 72.2416 278.263 72.2929 277.952 72.3284C277.739 72.356 277.535 72.3757 277.318 72.4034C276.999 72.4586 276.672 72.5256 276.349 72.5887C276.137 72.6282 275.924 72.6597 275.708 72.711C275.377 72.782 275.038 72.8728 274.703 72.9595C274.491 73.0148 274.282 73.0621 274.066 73.1213C273.719 73.2159 273.369 73.3343 273.022 73.4447C272.809 73.5118 272.605 73.567 272.392 73.638C272.042 73.7603 271.679 73.9023 271.329 74.0325L271.258 74.0561C271.069 74.1311 270.88 74.1942 270.683 74.2691C270.309 74.423 269.931 74.5926 269.553 74.7543C269.352 74.8411 269.155 74.9239 268.951 75.0147C268.533 75.2079 268.108 75.421 267.687 75.634C267.521 75.7168 267.36 75.7917 267.194 75.8785C266.604 76.1862 266.013 76.5097 265.415 76.8568C246.372 87.87 230.992 114.563 231.055 136.479C231.055 137.161 231.075 137.832 231.106 138.491C231.114 138.692 231.134 138.885 231.145 139.082C231.173 139.532 231.201 139.986 231.24 140.42C231.264 140.66 231.299 140.885 231.323 141.122C231.366 141.504 231.409 141.899 231.464 142.274C231.5 142.522 231.547 142.759 231.59 143.003C231.649 143.354 231.705 143.705 231.772 144.045C231.823 144.293 231.882 144.53 231.937 144.774C232.008 145.098 232.079 145.425 232.161 145.737C232.224 145.981 232.299 146.214 232.366 146.451C232.453 146.751 232.532 147.058 232.626 147.346C232.701 147.579 232.787 147.8 232.866 148.025C232.969 148.313 233.063 148.601 233.169 148.877C233.256 149.094 233.354 149.303 233.445 149.52C233.559 149.788 233.666 150.06 233.788 150.317C233.886 150.526 233.996 150.723 234.099 150.928C234.225 151.18 234.343 151.429 234.477 151.674C234.587 151.871 234.705 152.056 234.819 152.249C234.957 152.478 235.095 152.719 235.241 152.944C235.359 153.125 235.489 153.299 235.611 153.476C235.76 153.693 235.91 153.914 236.067 154.123C236.197 154.297 236.339 154.454 236.473 154.62C236.634 154.813 236.796 155.022 236.965 155.208C237.107 155.37 237.257 155.516 237.406 155.669C237.58 155.851 237.745 156.036 237.926 156.21C238.08 156.356 238.241 156.494 238.399 156.632C238.58 156.794 238.761 156.963 238.95 157.121C239.115 157.255 239.288 157.377 239.454 157.504C239.643 157.65 239.832 157.795 240.029 157.93C240.206 158.056 240.391 158.162 240.572 158.281C246.876 162.284 255.775 161.918 265.631 156.214C284.673 145.204 300.058 118.5 299.999 96.5836C299.967 85.665 296.108 77.9928 289.883 74.4072L289.887 74.423ZM265.619 148.837C264.985 149.204 264.359 149.536 263.737 149.847C263.686 149.875 263.631 149.902 263.576 149.926C262.977 150.226 262.383 150.494 261.796 150.743C261.725 150.774 261.654 150.802 261.583 150.833C260.997 151.074 260.422 151.291 259.847 151.484C259.784 151.504 259.725 151.524 259.666 151.543C259.079 151.737 258.496 151.906 257.921 152.048C257.902 152.052 257.882 152.056 257.862 152.064C256.669 152.36 255.511 152.545 254.393 152.628C254.362 152.628 254.33 152.632 254.295 152.636C253.759 152.671 253.232 152.683 252.712 152.675C252.661 152.675 252.613 152.675 252.566 152.675C252.05 152.66 251.546 152.624 251.054 152.565C251.015 152.561 250.975 152.553 250.932 152.545C250.424 152.478 249.928 152.395 249.444 152.281C249.444 152.281 249.436 152.281 249.432 152.281C248.439 152.048 247.494 151.713 246.601 151.283C246.569 151.267 246.534 151.255 246.502 151.236C246.081 151.031 245.675 150.798 245.274 150.549C245.234 150.526 245.195 150.502 245.155 150.474C244.762 150.218 244.376 149.946 244.01 149.646C243.982 149.626 243.958 149.603 243.931 149.579C243.754 149.433 243.577 149.287 243.407 149.133C242.726 148.514 242.096 147.82 241.517 147.05C240.682 145.942 239.962 144.676 239.371 143.264C239.312 143.13 239.253 142.999 239.198 142.861C239.131 142.692 239.076 142.518 239.013 142.341C238.477 140.865 238.072 139.256 237.812 137.501C237.595 136.021 237.477 134.44 237.473 132.767C237.426 117.111 247.077 98.4573 259.914 88.0712C260.327 87.7359 260.745 87.4085 261.166 87.0929C262.556 86.0397 263.985 85.0891 265.434 84.2528C266.887 83.4127 268.313 82.7105 269.707 82.1543L269.722 82.1464C269.9 82.0715 270.077 82.0163 270.254 81.9492C270.541 81.8388 270.829 81.7283 271.112 81.6337C271.293 81.5666 271.475 81.5193 271.656 81.4601C271.931 81.3733 272.203 81.2826 272.471 81.2116C272.664 81.1564 272.853 81.113 273.042 81.0696C273.298 81.0025 273.554 80.9355 273.806 80.8763C274.003 80.8329 274.192 80.8053 274.384 80.7658C274.629 80.7185 274.873 80.6712 275.113 80.6317C275.31 80.6002 275.499 80.5844 275.692 80.5607C275.924 80.5292 276.16 80.4937 276.393 80.4739C276.586 80.4582 276.779 80.4503 276.968 80.4424C277.18 80.4266 277.397 80.4108 277.602 80.4069C278.606 80.3832 279.57 80.4621 280.504 80.6081C282.232 80.8763 283.835 81.4206 285.276 82.2411C285.339 82.2766 285.406 82.3042 285.465 82.3397C285.489 82.3516 285.512 82.3713 285.54 82.3871C285.941 82.6277 286.327 82.888 286.701 83.1681C286.816 83.2549 286.922 83.3495 287.032 83.4363C287.312 83.6612 287.587 83.8939 287.851 84.1424C287.969 84.2568 288.087 84.3751 288.202 84.4895C288.446 84.738 288.686 84.9944 288.918 85.2627C289.028 85.3928 289.139 85.5191 289.245 85.6532C289.477 85.9451 289.702 86.2488 289.914 86.5644C290.001 86.6906 290.092 86.8089 290.174 86.943C290.43 87.3336 290.667 87.7399 290.891 88.1619C290.926 88.225 290.966 88.2881 291.001 88.3552C291.265 88.8562 291.505 89.3808 291.73 89.9251C291.773 90.0316 291.808 90.1421 291.852 90.2525C292.021 90.6825 292.183 91.1243 292.324 91.5858C292.387 91.783 292.442 91.9921 292.501 92.1972C292.612 92.5798 292.714 92.9704 292.809 93.3727C292.864 93.6133 292.919 93.8579 292.97 94.1064C293.049 94.493 293.116 94.8874 293.179 95.2898C293.222 95.554 293.261 95.8223 293.297 96.0945C293.352 96.5047 293.391 96.9346 293.431 97.3607C293.454 97.6328 293.482 97.8971 293.502 98.1772C293.537 98.7176 293.553 99.2698 293.561 99.8339C293.561 99.9956 293.576 100.153 293.576 100.319C293.592 104.776 292.816 109.482 291.411 114.165C287.182 128.219 277.235 142.116 265.615 148.841L265.619 148.837Z" fill="#F7AEF8" stroke="#111111" stroke-width="2" stroke-miterlimit="10"/>
<path d="M184.75 90.9033V82.2095L140.082 108.196L148.65 111.904L170.984 98.9108L173.56 97.4119L184.75 90.9033Z" fill="#F7AEF8" stroke="#111111" stroke-width="2" stroke-miterlimit="10"/>
<path d="M132.433 104.891L140.08 108.196L184.752 82.2096V90.8995L173.558 97.412L199.889 118.18C199.148 115.691 198.739 112.839 198.731 109.652C198.68 91.4359 211.465 69.2477 227.291 60.0924C231.646 57.5718 235.772 56.3095 239.478 56.1754L186.745 33.7978C167.801 22.6662 150.594 12.5445 148.314 11.223C144.494 8.9983 139.206 9.30992 133.367 12.6865C121.766 19.3962 112.399 35.6557 112.438 49.0081C112.454 55.1656 114.474 59.623 117.774 61.9897L115.171 63.5044L82.4609 82.533C83.4335 83.1089 84.414 83.6848 85.4063 84.2647C86.0127 84.6197 86.6191 84.9787 87.2294 85.3337L87.2491 85.3416L131.835 59.406L140.068 64.175L165.97 79.5075L126.645 102.386L165.966 79.5115" fill="#F7AEF8"/>
<path d="M132.433 104.891L140.08 108.196L184.752 82.2096V90.8995L173.558 97.412L199.889 118.18C199.148 115.691 198.739 112.839 198.731 109.652C198.68 91.4359 211.465 69.2477 227.291 60.0924C231.646 57.5718 235.772 56.3095 239.478 56.1754L186.745 33.7978C167.801 22.6662 150.594 12.5445 148.314 11.223C144.494 8.9983 139.206 9.30992 133.367 12.6865C121.766 19.3962 112.399 35.6557 112.438 49.0081C112.454 55.1656 114.474 59.623 117.774 61.9897L115.171 63.5044L82.4609 82.533C83.4335 83.1089 84.414 83.6848 85.4063 84.2647C86.0127 84.6197 86.6191 84.9787 87.2294 85.3337L87.2491 85.3416L131.835 59.406L140.068 64.175L165.97 79.5075L126.645 102.386L165.966 79.5115" stroke="#111111" stroke-width="2" stroke-miterlimit="10"/>
<path d="M58.1055 141.705L105.829 178.697C104.688 177.048 103.778 175.1 103.136 172.859" fill="#F7AEF8"/>
<path d="M58.1055 141.705L105.829 178.697C104.688 177.048 103.778 175.1 103.136 172.859" stroke="#111111" stroke-width="2" stroke-miterlimit="10"/>
<path d="M132.436 104.891L126.647 102.386L87.2515 85.3457L87.2318 85.3378C86.6215 84.9788 86.0151 84.6238 85.4087 84.2688C84.4204 83.685 83.436 83.1091 82.4634 82.5371C66.2837 73.0228 52.8722 65.1416 50.8482 63.9661C50.3285 63.6623 49.7811 63.4059 49.2102 63.1969C45.4222 61.7887 40.575 62.4316 35.3025 65.4887C23.2376 72.4706 13.492 89.377 13.5235 103.262C13.5471 110.169 15.9806 115.021 19.8985 117.305C22.5879 118.871 45.1347 132.128 67.6855 145.386L67.7288 145.41C80.341 152.829 92.9532 160.245 102.085 165.61C102.077 165.267 102.061 164.931 102.061 164.58C102.01 146.364 114.795 124.176 130.62 115.021C131.928 114.267 133.211 113.636 134.471 113.104C140.185 110.686 145.367 110.508 149.505 112.279L148.655 111.908L140.087 108.201L132.44 104.895L132.436 104.891Z" fill="#F7AEF8" stroke="#111111" stroke-width="2" stroke-miterlimit="10"/>
<path d="M134.465 113.099C133.205 113.632 131.922 114.263 130.614 115.017C114.789 124.172 102.004 146.36 102.055 164.576C102.055 164.923 102.071 165.262 102.078 165.606C102.098 166.292 102.134 166.967 102.193 167.617C102.358 169.507 102.685 171.254 103.142 172.856C103.78 175.092 104.689 177.045 105.835 178.686C106.851 180.149 108.048 181.376 109.406 182.335C109.15 180.544 109.013 178.642 109.005 176.627C108.942 154.711 124.322 128.022 143.364 117.009C146.215 115.36 148.987 114.164 151.637 113.383C151.425 113.261 151.216 113.139 151.007 113.017C150.523 112.733 150.015 112.492 149.495 112.271C145.357 110.5 140.175 110.677 134.461 113.096L134.465 113.099Z" fill="#F7AEF8" stroke="#111111" stroke-width="2" stroke-miterlimit="10"/>
<path d="M191.556 139.433C191.43 139.307 191.3 139.177 191.17 139.055C190.922 138.822 190.662 138.601 190.398 138.388C190.272 138.285 190.15 138.179 190.02 138.08C189.682 137.824 189.331 137.591 188.973 137.374C188.898 137.327 188.831 137.279 188.753 137.236C188.705 137.208 188.654 137.189 188.607 137.161C189.674 140.1 190.272 143.559 190.28 147.52C190.292 152.332 189.461 157.409 187.941 162.473C183.378 177.64 172.644 192.645 160.091 199.9C155.306 202.669 150.786 204.002 146.758 204.053C146.923 204.203 147.081 204.365 147.258 204.507C147.282 204.527 147.305 204.546 147.329 204.566C147.699 204.862 148.085 205.138 148.479 205.39C148.518 205.418 148.557 205.442 148.597 205.469C148.994 205.718 149.4 205.947 149.821 206.156C149.857 206.171 149.892 206.187 149.928 206.203C150.817 206.633 151.755 206.968 152.743 207.201C152.751 207.201 152.759 207.201 152.763 207.201C153.247 207.315 153.739 207.402 154.247 207.469C154.29 207.469 154.334 207.481 154.377 207.485C154.869 207.544 155.373 207.58 155.885 207.595C155.936 207.595 155.984 207.595 156.035 207.595C156.555 207.607 157.082 207.595 157.622 207.556C157.653 207.556 157.685 207.552 157.712 207.548C158.838 207.465 160 207.276 161.197 206.98C161.213 206.976 161.225 206.972 161.24 206.968C161.819 206.822 162.406 206.649 162.997 206.455C163.052 206.436 163.107 206.42 163.162 206.4C163.741 206.207 164.324 205.986 164.91 205.745C164.977 205.718 165.044 205.69 165.111 205.663C165.702 205.414 166.3 205.142 166.903 204.846C166.954 204.818 167.009 204.791 167.06 204.763C167.682 204.452 168.308 204.116 168.942 203.749C180.566 197.028 190.509 183.127 194.734 169.077C196.147 164.387 196.915 159.685 196.903 155.227C196.903 155.01 196.888 154.805 196.884 154.592C196.872 154.087 196.864 153.586 196.833 153.101C196.813 152.805 196.781 152.525 196.758 152.233C196.722 151.823 196.683 151.413 196.632 151.018C196.596 150.734 196.553 150.458 196.506 150.182C196.443 149.792 196.376 149.409 196.301 149.034C196.25 148.778 196.195 148.525 196.14 148.273C196.049 147.882 195.943 147.504 195.84 147.129C195.781 146.916 195.722 146.699 195.655 146.494C195.517 146.052 195.36 145.626 195.198 145.208C195.151 145.086 195.112 144.952 195.061 144.833C194.84 144.293 194.6 143.772 194.34 143.279C194.297 143.192 194.246 143.117 194.198 143.035C193.982 142.632 193.753 142.242 193.517 141.871C193.426 141.729 193.328 141.595 193.234 141.461C193.025 141.161 192.812 140.869 192.592 140.589C192.478 140.443 192.359 140.305 192.241 140.171C192.021 139.914 191.792 139.67 191.56 139.429L191.556 139.433Z" fill="#F7AEF8" stroke="#111111" stroke-width="2" stroke-miterlimit="10"/>
<path d="M109.004 176.63C109.008 178.646 109.146 180.547 109.406 182.338C110.54 190.215 114.017 195.848 119.065 198.787C127.523 203.705 135.981 208.632 144.439 213.555C144.258 213.449 144.084 213.326 143.903 213.212C143.722 213.097 143.537 212.987 143.36 212.865C143.163 212.731 142.978 212.581 142.785 212.435C142.616 212.309 142.442 212.186 142.277 212.056C142.088 211.898 141.911 211.729 141.726 211.567C141.568 211.429 141.407 211.291 141.253 211.145C141.072 210.975 140.907 210.786 140.73 210.608C140.584 210.451 140.434 210.305 140.293 210.147C140.123 209.958 139.966 209.752 139.804 209.555C139.67 209.39 139.529 209.228 139.399 209.058C139.241 208.849 139.092 208.628 138.942 208.411C138.816 208.234 138.686 208.064 138.568 207.879C138.422 207.654 138.284 207.417 138.147 207.185C138.032 206.995 137.914 206.806 137.804 206.609C137.67 206.368 137.548 206.116 137.422 205.863C137.32 205.662 137.209 205.457 137.111 205.252C136.989 204.991 136.879 204.719 136.768 204.451C136.678 204.238 136.583 204.029 136.493 203.808C136.386 203.532 136.292 203.244 136.19 202.96C136.111 202.735 136.024 202.514 135.949 202.281C135.855 201.99 135.772 201.686 135.689 201.386C135.619 201.145 135.544 200.913 135.485 200.668C135.402 200.357 135.335 200.029 135.264 199.706C135.209 199.461 135.146 199.228 135.095 198.976C135.028 198.637 134.973 198.282 134.914 197.935C134.874 197.69 134.827 197.449 134.788 197.201C134.733 196.826 134.693 196.436 134.646 196.049C134.618 195.812 134.587 195.584 134.563 195.347C134.52 194.909 134.496 194.455 134.469 194.006C134.457 193.809 134.437 193.615 134.429 193.414C134.398 192.755 134.378 192.085 134.378 191.402C134.315 169.486 149.7 142.797 168.742 131.78C169.34 131.433 169.935 131.11 170.522 130.802C170.687 130.719 170.848 130.644 171.014 130.561C171.435 130.348 171.86 130.135 172.278 129.942C172.479 129.851 172.679 129.772 172.876 129.682C173.254 129.516 173.636 129.346 174.006 129.196C174.199 129.118 174.388 129.058 174.581 128.983L174.648 128.96C175.003 128.826 175.361 128.684 175.711 128.565C175.924 128.494 176.133 128.435 176.341 128.368C176.688 128.258 177.042 128.139 177.385 128.045C177.601 127.981 177.81 127.934 178.023 127.883C178.358 127.796 178.696 127.705 179.027 127.63C179.243 127.583 179.452 127.552 179.669 127.508C179.992 127.449 180.315 127.382 180.637 127.331C180.85 127.295 181.055 127.279 181.267 127.256C181.582 127.216 181.897 127.169 182.209 127.141C182.421 127.122 182.626 127.118 182.835 127.106C183.138 127.09 183.445 127.062 183.74 127.055C183.949 127.055 184.15 127.062 184.358 127.062C184.65 127.062 184.945 127.062 185.233 127.078C185.437 127.09 185.638 127.114 185.843 127.129C186.126 127.153 186.41 127.169 186.682 127.204C186.886 127.228 187.083 127.268 187.28 127.299C187.548 127.339 187.82 127.382 188.083 127.433C188.284 127.473 188.477 127.528 188.67 127.571C188.93 127.634 189.19 127.69 189.442 127.765C189.639 127.82 189.828 127.887 190.017 127.95C190.261 128.029 190.509 128.104 190.745 128.195C190.938 128.266 191.123 128.352 191.312 128.431C191.545 128.53 191.777 128.621 192.001 128.727C192.19 128.814 192.368 128.916 192.553 129.015C192.769 129.125 192.994 129.236 193.202 129.358L193.261 129.39C184.803 124.467 176.345 119.544 167.887 114.621C163.485 112.057 157.89 111.556 151.625 113.402C148.971 114.183 146.203 115.379 143.352 117.027C124.314 128.041 108.929 154.73 108.992 176.646L109.004 176.63Z" fill="#F7AEF8" stroke="#111111" stroke-width="2" stroke-miterlimit="10"/>
<path d="M192.014 128.716C191.79 128.609 191.557 128.519 191.325 128.42C191.136 128.341 190.951 128.254 190.758 128.183C190.518 128.093 190.274 128.018 190.029 127.939C189.836 127.876 189.647 127.809 189.454 127.753C189.202 127.682 188.943 127.627 188.683 127.56C188.49 127.513 188.297 127.462 188.096 127.422C187.832 127.371 187.56 127.327 187.293 127.288C187.092 127.256 186.895 127.217 186.694 127.193C186.419 127.158 186.135 127.142 185.856 127.118C185.651 127.099 185.45 127.079 185.245 127.067C184.958 127.051 184.662 127.055 184.371 127.051C184.162 127.051 183.962 127.043 183.753 127.043C183.457 127.051 183.15 127.079 182.847 127.095C182.638 127.107 182.434 127.111 182.221 127.13C181.914 127.158 181.595 127.205 181.28 127.245C181.067 127.272 180.863 127.284 180.65 127.32C180.331 127.371 180.004 127.438 179.681 127.497C179.465 127.544 179.256 127.576 179.039 127.619C178.705 127.69 178.37 127.785 178.035 127.872C177.823 127.923 177.614 127.974 177.397 128.034C177.055 128.128 176.701 128.247 176.354 128.357C176.145 128.424 175.937 128.483 175.724 128.554C175.374 128.677 175.015 128.815 174.661 128.949L174.594 128.972C174.401 129.047 174.212 129.11 174.019 129.185C173.645 129.335 173.267 129.505 172.889 129.671C172.688 129.757 172.491 129.84 172.29 129.931C171.873 130.124 171.448 130.341 171.026 130.55C170.861 130.637 170.7 130.708 170.534 130.791C169.944 131.098 169.353 131.422 168.754 131.769C149.712 142.782 134.332 169.475 134.391 191.391C134.391 192.074 134.41 192.744 134.442 193.403C134.45 193.604 134.47 193.797 134.481 193.995C134.509 194.444 134.536 194.898 134.576 195.336C134.599 195.573 134.631 195.801 134.659 196.038C134.706 196.425 134.745 196.815 134.8 197.19C134.836 197.438 134.887 197.675 134.926 197.923C134.985 198.271 135.041 198.626 135.107 198.965C135.159 199.213 135.222 199.45 135.277 199.695C135.348 200.018 135.419 200.345 135.497 200.657C135.56 200.902 135.635 201.134 135.702 201.375C135.789 201.675 135.867 201.979 135.962 202.27C136.037 202.503 136.123 202.724 136.202 202.949C136.304 203.233 136.399 203.525 136.505 203.797C136.592 204.014 136.69 204.223 136.781 204.44C136.895 204.708 137.005 204.98 137.124 205.241C137.222 205.446 137.332 205.651 137.435 205.852C137.561 206.105 137.683 206.353 137.817 206.598C137.927 206.795 138.045 206.98 138.159 207.174C138.297 207.406 138.435 207.643 138.58 207.868C138.699 208.053 138.829 208.227 138.955 208.4C139.104 208.617 139.254 208.838 139.411 209.047C139.541 209.217 139.683 209.379 139.817 209.544C139.978 209.741 140.14 209.947 140.305 210.136C140.447 210.294 140.6 210.444 140.742 210.597C140.915 210.775 141.085 210.964 141.266 211.134C141.419 211.284 141.577 211.418 141.738 211.556C141.92 211.718 142.101 211.887 142.29 212.045C142.455 212.175 142.628 212.298 142.798 212.424C142.991 212.574 143.176 212.72 143.373 212.854C143.55 212.976 143.735 213.086 143.916 213.201C150.22 217.209 159.119 216.838 168.979 211.138C188.021 200.121 203.405 173.424 203.342 151.508C203.311 140.589 199.452 132.921 193.227 129.331C193.014 129.209 192.794 129.099 192.577 128.988C192.392 128.89 192.215 128.791 192.026 128.7L192.014 128.716ZM193.231 141.461C193.325 141.599 193.424 141.733 193.514 141.871C193.754 142.242 193.979 142.632 194.195 143.035C194.243 143.118 194.29 143.196 194.337 143.279C194.597 143.772 194.837 144.293 195.058 144.833C195.109 144.956 195.148 145.086 195.196 145.208C195.361 145.626 195.514 146.052 195.652 146.494C195.719 146.699 195.778 146.916 195.837 147.129C195.944 147.504 196.046 147.883 196.137 148.273C196.192 148.522 196.247 148.774 196.298 149.034C196.373 149.409 196.44 149.796 196.503 150.182C196.55 150.458 196.593 150.735 196.629 151.019C196.68 151.413 196.719 151.823 196.755 152.233C196.778 152.521 196.814 152.805 196.83 153.101C196.861 153.586 196.869 154.091 196.881 154.592C196.881 154.805 196.904 155.01 196.904 155.227C196.916 159.689 196.145 164.391 194.739 169.073C190.514 183.131 180.563 197.028 168.943 203.75C168.309 204.116 167.683 204.448 167.061 204.759C167.006 204.787 166.955 204.815 166.904 204.842C166.301 205.142 165.703 205.41 165.112 205.659C165.045 205.69 164.978 205.714 164.911 205.742C164.321 205.986 163.738 206.203 163.163 206.396C163.108 206.416 163.053 206.432 162.998 206.452C162.407 206.645 161.82 206.819 161.241 206.964C161.226 206.964 161.214 206.968 161.198 206.976C160.001 207.272 158.839 207.461 157.713 207.544C157.682 207.544 157.654 207.552 157.623 207.552C157.083 207.592 156.556 207.6 156.036 207.592C155.989 207.592 155.937 207.592 155.886 207.592C155.374 207.576 154.87 207.54 154.378 207.481C154.335 207.477 154.292 207.469 154.248 207.465C153.744 207.398 153.248 207.312 152.764 207.197C152.76 207.197 152.752 207.197 152.744 207.197C151.756 206.964 150.815 206.629 149.929 206.199C149.893 206.183 149.858 206.168 149.822 206.152C149.401 205.943 148.995 205.714 148.598 205.465C148.558 205.438 148.519 205.414 148.48 205.387C148.082 205.13 147.7 204.858 147.33 204.562C147.306 204.542 147.283 204.523 147.259 204.503C147.078 204.357 146.901 204.207 146.727 204.053C146.046 203.434 145.416 202.74 144.841 201.975C144.006 200.862 143.286 199.6 142.695 198.184C142.636 198.05 142.577 197.92 142.522 197.781C142.455 197.616 142.4 197.434 142.337 197.261C141.801 195.789 141.396 194.18 141.136 192.425C140.915 190.946 140.801 189.364 140.797 187.691C140.754 172.035 150.401 153.381 163.238 142.999C163.651 142.664 164.069 142.337 164.49 142.021C165.884 140.968 167.309 140.017 168.762 139.177C170.215 138.337 171.645 137.639 173.035 137.078L173.05 137.071C173.228 137 173.405 136.94 173.582 136.873C173.869 136.763 174.153 136.652 174.44 136.558C174.625 136.495 174.803 136.443 174.988 136.384C175.259 136.297 175.535 136.207 175.803 136.136C175.996 136.077 176.185 136.037 176.374 135.986C176.63 135.923 176.89 135.852 177.138 135.8C177.331 135.757 177.523 135.725 177.716 135.69C177.961 135.643 178.205 135.591 178.445 135.552C178.642 135.52 178.831 135.505 179.024 135.481C179.256 135.453 179.492 135.418 179.721 135.394C179.914 135.378 180.107 135.37 180.3 135.363C180.512 135.351 180.725 135.331 180.937 135.327C181.938 135.299 182.902 135.382 183.836 135.528C185.56 135.796 187.167 136.341 188.608 137.161C188.655 137.189 188.706 137.209 188.754 137.236C188.828 137.28 188.899 137.331 188.974 137.374C189.332 137.595 189.683 137.828 190.021 138.08C190.151 138.175 190.274 138.285 190.4 138.388C190.663 138.601 190.923 138.818 191.171 139.055C191.301 139.177 191.431 139.307 191.557 139.433C191.793 139.67 192.022 139.915 192.238 140.175C192.357 140.313 192.475 140.451 192.589 140.593C192.809 140.873 193.026 141.165 193.231 141.465V141.461Z" fill="#F7AEF8" stroke="#111111" stroke-width="2" stroke-miterlimit="10"/>
</svg>
