<svg width="348" height="179" viewBox="0 0 348 179" fill="none" xmlns="http://www.w3.org/2000/svg">
<path d="M212.974 90.0217C212.974 90.0217 197.862 84.8061 188.217 78.8116C178.572 72.817 172.059 70.4726 168.668 70.9919C165.278 71.5113 157.725 71.5113 152.25 72.5573C146.775 73.6034 143.392 74.6421 142.345 77.2462C141.299 79.8502 145.736 87.1505 151.204 88.7159C156.679 90.2813 167.622 97.5742 167.622 97.5742C167.622 97.5742 119.925 143.186 121.75 147.875C123.575 152.564 144.423 171.594 147.294 171.853C150.165 172.113 193.166 158.826 195.77 158.299C198.374 157.772 205.934 155.695 212.188 151.525C218.442 147.356 221.573 143.965 221.573 143.965L243.207 134.58L218.709 87.4102L212.974 90.0143V90.0217Z" fill="#F7AEF8" stroke="#111111" stroke-width="2" stroke-linecap="round" stroke-linejoin="round"/>
<path d="M191.031 133.868C191.031 133.868 202.034 143.683 203.221 147.845C204.408 152.007 202.924 156.169 202.924 156.169L195.779 158.306L191.031 133.868Z" fill="#263238" stroke="#111111" stroke-width="2" stroke-linecap="round" stroke-linejoin="round"/>
<path d="M151.213 88.7234C151.213 88.7234 170.502 92.1139 174.145 93.6719C177.795 95.2373 197.604 116.344 204.637 122.858C211.67 129.372 215.32 139.536 215.58 146.05C215.84 152.564 213.235 161.163 209.845 162.468C206.454 163.774 204.11 161.949 203.071 159.337C202.025 156.733 201.506 151.778 201.506 151.778L197.337 143.179C197.337 143.179 197.856 148.394 196.817 153.343C195.771 158.291 193.953 168.723 189.784 171.327C185.614 173.931 180.659 172.373 180.139 171.067C179.62 169.761 179.093 167.417 179.093 167.417C179.093 167.417 177.787 172.106 173.878 173.411C169.968 174.717 164.493 173.152 164.493 173.152C164.493 173.152 160.063 178.367 156.413 177.321C152.763 176.275 149.113 172.373 149.113 172.373C149.113 172.373 136.864 164.813 125.654 156.993C114.444 149.173 94.383 124.676 94.383 124.676L84.7383 118.681L114.192 77.5059L126.7 85.3255L151.198 88.716L151.213 88.7234Z" fill="#F7AEF8" stroke="#111111" stroke-width="2" stroke-linecap="round" stroke-linejoin="round"/>
<path d="M156.95 72.3043C156.95 72.3043 145.992 72.0149 143.395 73.0833C138.966 74.9083 138.706 80.9029 138.706 81.9416C138.706 82.9802 135.576 91.3266 135.056 94.45C134.537 97.5734 138.187 99.1388 146.526 96.2751C154.865 93.4113 157.209 89.7612 157.209 81.9416" fill="#F7AEF8"/>
<path d="M156.95 72.3043C156.95 72.3043 145.992 72.0149 143.395 73.0833C138.966 74.9083 138.706 80.9029 138.706 81.9416C138.706 82.9802 135.576 91.3266 135.056 94.45C134.537 97.5734 138.187 99.1388 146.526 96.2751C154.865 93.4113 157.209 89.7612 157.209 81.9416" stroke="#111111" stroke-width="2" stroke-linecap="round" stroke-linejoin="round"/>
<path d="M183.527 122.391C184.744 124.498 185.953 127.777 188.216 130.418C196.496 140.078 197.342 143.186 197.342 143.186" stroke="#111111" stroke-width="2" stroke-linecap="round" stroke-linejoin="round"/>
<path d="M167.113 128.074L167.373 134.328C167.373 134.328 178.056 155.175 179.622 157.52C181.187 159.864 180.141 166.118 179.102 167.424" stroke="#111111" stroke-width="2" stroke-linecap="round" stroke-linejoin="round"/>
<path d="M155.488 153.172C156.89 155.509 158.411 157.854 159.814 159.612C163.983 164.828 164.502 173.167 164.502 173.167" stroke="#111111" stroke-width="2" stroke-linecap="round" stroke-linejoin="round"/>
<path d="M150.426 140.59V143.98C150.426 143.98 151.991 147.104 154.091 150.791" stroke="#111111" stroke-width="2" stroke-linecap="round" stroke-linejoin="round"/>
<path d="M108.323 143.646C108.323 143.646 102.039 141.888 100.281 139.625C98.5223 137.362 97.7656 130.195 97.6394 127.933C97.5133 125.67 96.1334 123.407 98.8933 122.398C101.661 121.389 105.303 124.409 106.691 127.428C108.071 130.448 108.197 134.595 108.197 135.225C108.197 135.856 110.333 139.247 110.333 139.247C110.333 139.247 112.344 143.142 108.323 143.646Z" fill="#F7AEF8" stroke="#111111" stroke-width="2" stroke-linecap="round" stroke-linejoin="round"/>
<path d="M120.013 155.962C120.013 155.962 113.351 157.342 111.719 155.079C110.087 152.816 106.815 143.765 106.941 140.619C107.067 137.474 115.362 129.81 119.509 126.664C123.656 123.519 126.297 122.517 128.812 124.023C131.327 125.529 133.338 127.421 132.581 130.055C131.824 132.688 125.793 144.01 124.784 146.02C123.775 148.031 122.773 155.072 122.773 155.072L120.006 155.954L120.013 155.962Z" fill="#F7AEF8" stroke="#111111" stroke-width="2" stroke-linecap="round" stroke-linejoin="round"/>
<path d="M130.903 165.644C130.903 165.644 123.625 167.157 121.837 164.679C120.049 162.209 116.48 152.319 116.621 148.884C116.762 145.449 125.821 137.073 130.354 133.638C134.887 130.203 137.773 129.105 140.518 130.752C143.263 132.399 145.459 134.462 144.635 137.348C143.812 140.234 137.216 152.594 136.118 154.79C135.02 156.986 133.922 164.679 133.922 164.679L130.903 165.644Z" fill="#F7AEF8" stroke="#111111" stroke-width="2" stroke-linecap="round" stroke-linejoin="round"/>
<path d="M145.064 170.014C145.064 170.014 143.142 164.257 143.142 163.737C143.142 163.218 146.629 154.842 146.28 151.177C145.932 147.512 142.964 143.328 141.05 144.374C139.128 145.42 135.641 148.387 132.503 153.091C129.365 157.802 128.319 161.46 129.365 163.21C130.411 164.954 136.687 171.579 139.306 172.633C141.925 173.679 147.304 171.861 147.304 171.861L145.064 170.014Z" fill="#F7AEF8" stroke="#111111" stroke-width="2" stroke-linecap="round" stroke-linejoin="round"/>
<path d="M216.652 85.7402L243.554 143.972L259.697 137.006L231.527 79.0928L216.652 85.7402Z" fill="#F7AEF8" stroke="#111111" stroke-width="2" stroke-linecap="round" stroke-linejoin="round"/>
<path d="M347 9.17676L226.145 80.0431L266.103 161.697L347 121.33V9.17676Z" fill="#F7AEF8" stroke="#111111" stroke-width="2" stroke-linecap="round" stroke-linejoin="round"/>
<path d="M122.65 81.3039L85.9411 138.274L72.0156 131.308L110.624 74.0259L122.65 81.3039Z" fill="#F7AEF8" stroke="#111111" stroke-width="2" stroke-linecap="round" stroke-linejoin="round"/>
<path d="M1 1.29736V122.516L60.7304 159.537L116.321 74.3449L1 1.29736Z" fill="#F7AEF8" stroke="#111111" stroke-width="2" stroke-linecap="round" stroke-linejoin="round"/>
</svg>
