<svg width="267" height="298" viewBox="0 0 267 298" fill="none" xmlns="http://www.w3.org/2000/svg">
<path d="M146.25 167.16L120.27 153.03L223.97 74.6299C223.97 74.6299 250 88.4951 249.95 88.7599C249.899 89.0247 146.25 167.16 146.25 167.16Z" fill="#88A4DF" stroke="black" stroke-miterlimit="10"/>
<path d="M82.3002 284.94L56.3202 270.8C22.9902 252.67 0.920217 215.58 1.00022 169.79C1.12022 104.28 46.5502 43.8302 105.23 27.4902C105.23 27.4902 129.5 39.4951 131.21 41.6302C132.92 43.7654 27.1102 118.41 26.9802 183.92C26.8902 229.71 48.9702 266.81 82.3002 284.94Z" fill="#88A4DF" stroke="black" stroke-miterlimit="10"/>
<path d="M131.211 42.3545L146.251 167.894C146.251 167.894 250 89.4951 250.5 89.4951C251 89.4951 265.551 127.904 265.511 151.134C265.381 222.234 211.871 287.364 146.011 296.624C80.1507 305.884 26.8507 255.744 26.9807 184.645C27.1007 119.134 72.5307 58.6945 131.211 42.3545Z" fill="#88A4DF" stroke="black" stroke-miterlimit="10"/>
<path d="M167.749 14.97C236.779 5.26998 260.989 57.22 262.259 59.95C262.259 59.95 168.718 131.505 168.609 130.75C168.5 129.995 155.039 17.39 155.039 17.39C159.439 16.34 163.669 15.54 167.759 14.97H167.749Z" fill="#F7AEF8" stroke="black" stroke-miterlimit="10"/>
<path d="M168.601 130.75C168.199 131.505 145.141 117.98 145.141 117.98C145.141 117.98 131.123 4.76472 131.561 4.62996C131.998 4.49519 155.031 17.39 155.031 17.39C155.031 17.39 169.002 129.995 168.601 130.75Z" fill="#F7AEF8" stroke="black" stroke-miterlimit="10"/>
<path d="M204.171 11.4499C189.741 3.59993 170.161 -1.43007 144.281 2.20993C140.191 2.77993 132.002 3.99512 131.561 4.62993C131.119 5.26475 155.021 17.3899 155.021 17.3899C159.421 16.3399 163.651 15.5399 167.741 14.9699C193.621 11.3299 213.201 16.3599 227.631 24.2099L204.171 11.4499Z" fill="#F7AEF8" stroke="black" stroke-miterlimit="10"/>
</svg>
