<svg width="304" height="273" viewBox="0 0 304 273" fill="none" xmlns="http://www.w3.org/2000/svg">
<path d="M290.047 168.382L269.335 165.624L238.863 159.281L259.575 162.04L290.047 168.382Z" fill="#F7AEF8" stroke="black" stroke-width="2" stroke-miterlimit="10"/>
<path d="M241.337 158.284L220.625 155.526L209.371 153.209L230.083 155.967L241.337 158.284Z" fill="#F7AEF8" stroke="black" stroke-width="2" stroke-miterlimit="10"/>
<path d="M209.371 153.211C210.732 145.088 211.422 136.716 211.368 128.195C218.272 129.115 225.175 130.034 232.079 130.954C232.135 139.474 231.444 147.847 230.083 155.969C223.869 155.141 215.585 154.039 209.371 153.211Z" fill="#F7AEF8" stroke="black" stroke-width="2" stroke-miterlimit="10"/>
<path d="M230.085 155.969L209.373 153.211L204.742 152.258L225.454 155.016L230.085 155.969Z" fill="#F7AEF8" stroke="black" stroke-width="2" stroke-miterlimit="10"/>
<path d="M225.452 155.017L204.74 152.258L173.277 145.781L193.989 148.54L225.452 155.017Z" fill="#F7AEF8" stroke="black" stroke-width="2" stroke-miterlimit="10"/>
<path d="M173.277 145.778C174.051 140.912 174.441 135.906 174.409 130.816C181.313 131.736 188.216 132.655 195.12 133.575C195.153 138.664 194.763 143.671 193.989 148.536C187.776 147.708 179.491 146.606 173.277 145.778Z" fill="#F7AEF8" stroke="black" stroke-width="2" stroke-miterlimit="10"/>
<path d="M193.989 148.539L173.277 145.781L164.012 143.873L184.724 146.631L193.989 148.539Z" fill="#F7AEF8" stroke="black" stroke-width="2" stroke-miterlimit="10"/>
<path d="M174.41 130.819C174.172 94.0632 151.96 64.944 122.93 60.502L143.641 63.2603C172.672 67.7011 194.884 96.8204 195.121 133.577C188.217 132.657 181.314 131.738 174.41 130.819Z" fill="#F7AEF8" stroke="black" stroke-width="2" stroke-miterlimit="10"/>
<path d="M120.43 71.7324L141.141 74.4908C166.17 77.8232 185.432 102.725 185.635 134.249C185.663 138.459 185.347 142.6 184.724 146.631L164.012 143.872C164.636 139.842 164.951 135.701 164.923 131.491C164.72 99.9671 145.458 75.0648 120.43 71.7324Z" fill="#F7AEF8" stroke="black" stroke-width="2" stroke-miterlimit="10"/>
<path d="M184.725 146.631L164.013 143.873L145.504 140.062L166.216 142.82L184.725 146.631Z" fill="#F7AEF8" stroke="black" stroke-width="2" stroke-miterlimit="10"/>
<path d="M166.213 142.562L184.724 146.373L193.988 148.28L225.451 154.757L230.082 155.71L241.335 158.027L259.574 161.782L290.058 168.058L289.293 172.261L258.486 165.918L240.571 162.231L229.315 159.913L224.684 158.96L193.221 152.483L183.955 150.575L165.449 146.765C165.819 145.451 166.097 143.93 166.216 142.562H166.213Z" fill="#F7AEF8" stroke="black" stroke-width="2" stroke-miterlimit="10"/>
<path d="M280.875 155.092C280.264 154.967 279.65 154.873 279.035 154.809C279.219 154.829 279.402 154.849 279.586 154.873L258.874 152.115C257.62 151.947 256.358 151.911 255.104 152C250.371 152.336 245.726 154.463 241.863 158.149L261.403 162.16L290.058 168.06L301 159.234L280.875 155.092Z" fill="#F7AEF8" stroke="black" stroke-width="2" stroke-miterlimit="10"/>
<path d="M289.026 172.461L258.485 166.174L240.57 162.486C243.628 169.488 246.392 175.254 252.943 176.602L273.068 180.745L293.78 183.504L289.025 172.462L289.026 172.461Z" fill="#F7AEF8" stroke="black" stroke-width="2" stroke-miterlimit="10"/>
<path d="M240.571 162.488L219.858 159.73L208.602 157.412L229.313 160.17L240.571 162.488Z" fill="#F7AEF8" stroke="black" stroke-width="2" stroke-miterlimit="10"/>
<path d="M229.315 160.17L208.604 157.412L203.973 156.459L224.684 159.217L229.315 160.17Z" fill="#F7AEF8" stroke="black" stroke-width="2" stroke-miterlimit="10"/>
<path d="M224.684 159.218L203.973 156.46L172.508 149.982L193.22 152.741L224.684 159.218Z" fill="#F7AEF8" stroke="black" stroke-width="2" stroke-miterlimit="10"/>
<path d="M193.22 152.738L172.508 149.98L163.242 148.072L183.955 150.831L193.22 152.738Z" fill="#F7AEF8" stroke="black" stroke-width="2" stroke-miterlimit="10"/>
<path d="M144.734 144.263C145.104 142.949 145.382 141.428 145.501 140.061L166.213 142.819C166.094 144.185 165.817 145.706 165.446 147.02C159.233 146.192 150.948 145.09 144.734 144.262V144.263Z" fill="#F7AEF8" stroke="black" stroke-width="2" stroke-miterlimit="10"/>
<path d="M183.953 150.832L163.24 148.074L144.734 144.264L165.446 147.022L183.953 150.832Z" fill="#F7AEF8" stroke="black" stroke-width="2" stroke-miterlimit="10"/>
<path d="M165.41 147.146C162.399 146.745 161.153 146.578 159.223 146.318C156.439 145.941 154.786 145.714 153.889 145.589C151.849 145.305 150.729 145.147 148.552 144.832C147.074 144.618 146.041 144.461 144.734 144.264L165.446 147.022C165.434 147.064 165.422 147.105 165.411 147.146H165.41Z" fill="#F7AEF8" stroke="black" stroke-width="2" stroke-miterlimit="10"/>
<path d="M145.503 140.061C145.68 138.032 145.507 136.346 144.766 136.193L165.477 138.952C166.218 139.105 166.391 140.791 166.215 142.82C160.002 141.992 151.717 140.889 145.503 140.061Z" fill="#F7AEF8" stroke="black" stroke-width="2" stroke-miterlimit="10"/>
<path d="M112.426 210.458C141.414 208.401 165.699 182.771 172.506 149.982L193.217 152.741C186.411 185.529 162.126 211.16 133.138 213.217C126.233 212.297 119.33 211.378 112.426 210.458Z" fill="#F7AEF8" stroke="black" stroke-width="2" stroke-miterlimit="10"/>
<path d="M124.169 201.528L103.457 198.77C106.353 199.155 109.325 199.252 112.354 199.037C136.843 197.299 157.375 175.723 163.242 148.072L183.954 150.831C178.087 178.482 157.554 200.058 133.066 201.795C130.037 202.011 127.064 201.913 124.169 201.528Z" fill="#F7AEF8" stroke="black" stroke-width="2" stroke-miterlimit="10"/>
<path d="M163.439 150.323L142.728 147.565C142.715 147.563 142.703 147.561 142.691 147.559L163.403 150.317C163.415 150.319 163.427 150.322 163.439 150.323Z" fill="#F7AEF8" stroke="black" stroke-width="2" stroke-miterlimit="10"/>
<path d="M142.691 147.559C143.527 147.519 144.22 146.092 144.735 144.264C145.938 144.445 147.074 144.619 148.552 144.832C150.61 145.13 151.862 145.306 153.89 145.589C157.529 146.097 162.272 146.727 165.411 147.146C164.9 148.914 164.219 150.277 163.403 150.317C157.19 149.489 148.905 148.387 142.691 147.559Z" fill="#F7AEF8" stroke="black" stroke-width="2" stroke-miterlimit="10"/>
<path d="M159.696 138.614L138.984 135.855L144.765 136.194L165.476 138.952L159.696 138.614Z" fill="#F7AEF8" stroke="black" stroke-width="2" stroke-miterlimit="10"/>
<path d="M138.984 135.856C139.033 135.019 139.054 134.176 139.048 133.326C145.952 134.246 152.856 135.165 159.76 136.085C159.766 136.933 159.744 137.777 159.696 138.614C153.483 137.786 145.198 136.684 138.984 135.856Z" fill="#F7AEF8" stroke="black" stroke-width="2" stroke-miterlimit="10"/>
<path d="M163.403 150.318L142.691 147.559L137.191 145.572L157.903 148.329L163.403 150.318Z" fill="#F7AEF8" stroke="black" stroke-width="2" stroke-miterlimit="10"/>
<path d="M150.251 138.063L129.539 135.305L138.983 135.857L159.695 138.615L150.251 138.063Z" fill="#F7AEF8" stroke="black" stroke-width="2" stroke-miterlimit="10"/>
<path d="M157.901 148.33L137.189 145.573L128.23 142.336L148.943 145.094L157.901 148.33Z" fill="#F7AEF8" stroke="black" stroke-width="2" stroke-miterlimit="10"/>
<path d="M112.715 254.955C159.233 251.654 198.142 210.215 208.603 157.412L229.315 160.17C218.853 212.973 179.943 254.412 133.427 257.713C126.522 256.794 119.619 255.874 112.715 254.955Z" fill="#F7AEF8" stroke="black" stroke-width="2" stroke-miterlimit="10"/>
<path d="M112.152 167.885C123.547 167.076 133.267 157.873 137.192 145.57L157.904 148.329C153.979 160.631 144.259 169.835 132.864 170.643C125.96 169.724 119.057 168.805 112.152 167.885Z" fill="#F7AEF8" stroke="black" stroke-width="2" stroke-miterlimit="10"/>
<path d="M127.869 16.048L148.581 18.8064C143.147 18.0831 137.568 17.9014 131.884 18.3045L111.172 15.5462C116.857 15.143 122.435 15.3247 127.869 16.048Z" fill="#F7AEF8" stroke="black" stroke-width="2" stroke-miterlimit="10"/>
<path d="M117.489 251.525L96.7773 248.767C101.952 249.456 107.264 249.628 112.679 249.244C156.946 246.103 193.978 206.691 203.973 156.459L224.685 159.217C214.691 209.45 177.658 248.862 133.391 252.003C127.976 252.387 122.664 252.213 117.489 251.525Z" fill="#F7AEF8" stroke="black" stroke-width="2" stroke-miterlimit="10"/>
<path d="M94.457 254.23C100.381 255.137 106.483 255.398 112.713 254.955C119.617 255.874 126.52 256.794 133.424 257.713C127.194 258.155 121.092 257.895 115.169 256.989C108.955 256.161 100.671 255.058 94.457 254.23Z" fill="#F7AEF8" stroke="black" stroke-width="2" stroke-miterlimit="10"/>
<path d="M127.112 21.7365L147.824 24.4949C142.649 23.8053 137.337 23.6332 131.923 24.0171L111.211 21.2587C116.625 20.8748 121.938 21.0481 127.112 21.7365Z" fill="#F7AEF8" stroke="black" stroke-width="2" stroke-miterlimit="10"/>
<path d="M131.882 18.306C186.704 14.4164 231.652 64.9491 232.078 130.955C232.134 139.475 231.443 147.848 230.082 155.97L225.451 155.017C226.737 147.31 227.389 139.376 227.336 131.292C226.93 68.4355 184.127 20.3122 131.919 24.0177C79.7114 27.722 37.5669 81.8723 37.9725 144.73C38.3781 207.587 81.1808 255.711 133.389 252.005C177.656 248.864 214.688 209.451 224.683 159.22L229.314 160.173C218.852 212.975 179.943 254.414 133.426 257.716C78.6042 261.605 33.6556 211.073 33.2296 145.067C32.8036 79.0622 77.0602 22.198 131.882 18.3084V18.306Z" fill="#F7AEF8" stroke="black" stroke-width="2" stroke-miterlimit="10"/>
<path d="M147.823 24.4948C144.387 24.0375 140.886 23.8317 137.34 23.8401C176.977 34.7123 206.292 76.5763 206.626 128.534C206.679 136.618 206.028 143.047 204.742 150.752L225.453 155.016C226.74 147.311 227.391 139.375 227.339 131.291C226.976 74.9517 192.553 30.4508 147.823 24.4936V24.4948Z" fill="#F7AEF8" stroke="black" stroke-width="2" stroke-miterlimit="10"/>
<path d="M100.957 210.002C101.702 210.116 102.451 210.214 103.204 210.294C110.108 211.214 117.011 212.133 123.916 213.053C123.162 212.972 122.414 212.873 121.669 212.76C115.455 211.932 107.171 210.83 100.957 210.002Z" fill="#F7AEF8" stroke="black" stroke-width="2" stroke-miterlimit="10"/>
<path d="M121.952 60.3619L142.663 63.1202C139.249 62.6653 135.745 62.551 132.173 62.8049L111.461 60.0465C115.033 59.7926 118.537 59.9069 121.952 60.3619Z" fill="#F7AEF8" stroke="black" stroke-width="2" stroke-miterlimit="10"/>
<path d="M108.148 167.814C109.455 167.955 110.792 167.982 112.151 167.885C119.056 168.805 125.959 169.724 132.863 170.644C131.504 170.74 130.167 170.714 128.86 170.573C121.956 169.653 115.053 168.734 108.148 167.814Z" fill="#F7AEF8" stroke="black" stroke-width="2" stroke-miterlimit="10"/>
<path d="M139.046 133.327C138.944 117.378 129.304 104.741 116.707 102.814L137.419 105.573C150.016 107.501 159.655 120.136 159.758 136.086C152.853 135.166 145.95 134.247 139.046 133.327Z" fill="#F7AEF8" stroke="black" stroke-width="2" stroke-miterlimit="10"/>
<path d="M114.766 114.123L135.477 116.881C143.802 117.99 150.209 126.271 150.277 136.757C150.279 137.194 150.271 137.629 150.252 138.061L129.541 135.303C129.56 134.871 129.568 134.435 129.565 133.998C129.497 123.513 123.09 115.231 114.766 114.123Z" fill="#F7AEF8" stroke="black" stroke-width="2" stroke-miterlimit="10"/>
<path d="M129.833 159.136L109.121 156.378C110.084 156.507 111.073 156.538 112.08 156.467C119.371 155.95 125.609 150.145 128.236 142.336L148.948 145.094C146.32 152.904 140.083 158.708 132.792 159.225C131.785 159.296 130.796 159.265 129.833 159.136Z" fill="#F7AEF8" stroke="black" stroke-width="2" stroke-miterlimit="10"/>
<path d="M107.176 167.688C107.498 167.737 107.823 167.779 108.151 167.815C115.055 168.735 121.958 169.654 128.862 170.573C128.535 170.539 128.21 170.496 127.888 170.446C121.674 169.618 113.389 168.515 107.176 167.688Z" fill="#F7AEF8" stroke="black" stroke-width="2" stroke-miterlimit="10"/>
<path d="M111.805 114.035C112.688 113.973 113.557 113.99 114.407 114.081L135.118 116.839C134.269 116.748 133.4 116.731 132.516 116.794C126.303 115.966 118.018 114.863 111.805 114.035Z" fill="#F7AEF8" stroke="black" stroke-width="2" stroke-miterlimit="10"/>
<path d="M116.286 102.753L136.998 105.511C135.516 105.314 133.995 105.265 132.446 105.374L111.734 102.616C113.284 102.506 114.806 102.555 116.286 102.753Z" fill="#F7AEF8" stroke="black" stroke-width="2" stroke-miterlimit="10"/>
<path d="M109.476 156.42C100.978 155.504 94.3889 147.135 94.3203 136.5C101.225 137.419 108.128 138.339 115.032 139.258C115.101 149.893 121.69 158.262 130.187 159.178C123.974 158.35 115.689 157.248 109.476 156.42Z" fill="#F7AEF8" stroke="black" stroke-width="2" stroke-miterlimit="10"/>
<path d="M94.3209 136.5C94.245 124.801 102.088 114.725 111.805 114.035L132.517 116.794C122.8 117.483 114.957 127.56 115.033 139.259C108.128 138.339 101.225 137.42 94.3209 136.5Z" fill="#F7AEF8" stroke="black" stroke-width="2" stroke-miterlimit="10"/>
<path d="M133.755 137.098L113.043 134.34L129.541 135.304L150.253 138.062L133.755 137.098Z" fill="#F7AEF8" stroke="black" stroke-width="2" stroke-miterlimit="10"/>
<path d="M148.949 145.094L128.236 142.336L112.613 136.691L133.325 139.45L148.949 145.094Z" fill="#F7AEF8" stroke="black" stroke-width="2" stroke-miterlimit="10"/>
<path d="M133.626 137.099L112.914 134.34C112.955 134.338 112.997 134.337 113.039 134.34L133.751 137.099C133.708 137.096 133.667 137.096 133.626 137.099Z" fill="#F7AEF8" stroke="black" stroke-width="2" stroke-miterlimit="10"/>
<path d="M133.32 139.449L112.608 136.69C111.539 136.303 111.841 134.417 112.912 134.34L133.624 137.098C132.552 137.174 132.249 139.061 133.32 139.449Z" fill="#F7AEF8" stroke="black" stroke-width="2" stroke-miterlimit="10"/>
<path d="M132.444 105.374C147.39 104.313 159.644 118.091 159.761 136.085C159.767 136.934 159.745 137.777 159.697 138.615L150.252 138.062C150.271 137.63 150.28 137.195 150.276 136.758C150.2 125.059 142.233 116.104 132.518 116.793C122.801 117.483 114.958 127.56 115.033 139.259C115.109 150.958 123.074 159.914 132.791 159.224C140.081 158.707 146.319 152.903 148.946 145.093L157.904 148.329C153.979 160.631 144.259 169.835 132.864 170.644C117.918 171.704 105.664 157.927 105.548 139.933C105.432 121.938 117.497 106.435 132.443 105.375L132.444 105.374Z" fill="#F7AEF8" stroke="black" stroke-width="2" stroke-miterlimit="10"/>
<path d="M128.316 170.505L107.604 167.747C94.7994 166.041 84.9442 153.301 84.8407 137.171C84.7251 119.177 96.79 103.674 111.736 102.613L132.448 105.372C117.502 106.432 105.437 121.935 105.552 139.929C105.656 156.058 115.511 168.8 128.316 170.505Z" fill="#F7AEF8" stroke="black" stroke-width="2" stroke-miterlimit="10"/>
<path d="M132.245 74.2235C161.459 72.1499 185.41 99.0788 185.636 134.25C185.663 138.46 185.348 142.601 184.725 146.632L166.214 142.822C166.391 140.792 166.218 139.106 165.476 138.954L159.696 138.615C159.744 137.779 159.766 136.935 159.76 136.086C159.644 118.091 147.389 104.314 132.443 105.374C117.497 106.434 105.433 121.938 105.548 139.932C105.664 157.928 117.919 171.705 132.865 170.643C144.259 169.835 153.98 160.632 157.904 148.329L163.404 150.316C164.239 150.276 164.932 148.849 165.448 147.02L183.953 150.831C178.086 178.482 157.554 200.058 133.066 201.795C103.851 203.869 79.8997 176.939 79.6735 141.766C79.4472 106.595 103.029 76.2935 132.244 74.2211L132.245 74.2235Z" fill="#F7AEF8" stroke="black" stroke-width="2" stroke-miterlimit="10"/>
<path d="M104.53 198.899C78.9807 196.145 59.1679 170.983 58.9609 139.008C65.8653 139.927 72.7684 140.847 79.6727 141.766C79.8785 173.741 99.6925 198.904 125.242 201.657C119.029 200.829 110.744 199.727 104.53 198.899Z" fill="#F7AEF8" stroke="black" stroke-width="2" stroke-miterlimit="10"/>
<path d="M58.9626 139.01C58.7363 103.838 82.3184 73.5372 111.533 71.4648L132.245 74.2232C103.03 76.2968 79.4481 106.598 79.6743 141.768C72.77 140.849 65.8669 139.929 58.9626 139.01Z" fill="#F7AEF8" stroke="black" stroke-width="2" stroke-miterlimit="10"/>
<path d="M103.203 210.295C106.215 210.62 109.295 210.68 112.427 210.457C119.331 211.377 126.234 212.296 133.138 213.216C130.007 213.438 126.927 213.377 123.915 213.053C117.011 212.134 110.107 211.214 103.203 210.295Z" fill="#F7AEF8" stroke="black" stroke-width="2" stroke-miterlimit="10"/>
<path d="M111.531 71.4638C114.187 71.2749 116.799 71.3266 119.354 71.6022L140.066 74.3606C137.511 74.085 134.898 74.0345 132.243 74.2222C126.03 73.3942 117.745 72.2918 111.531 71.4638Z" fill="#F7AEF8" stroke="black" stroke-width="2" stroke-miterlimit="10"/>
<path d="M132.173 62.8041C166.617 60.3598 194.856 92.1075 195.124 133.576C195.156 138.665 194.766 143.672 193.992 148.537L184.728 146.63C185.351 142.599 185.667 138.458 185.639 134.248C185.413 99.0768 161.461 72.149 132.248 74.2214C103.034 76.295 79.4516 106.596 79.6779 141.766C79.9042 176.939 103.856 203.868 133.07 201.796C157.558 200.058 178.091 178.482 183.958 150.831L193.223 152.739C186.416 185.527 162.132 211.158 133.143 213.214C98.7 215.659 70.4605 183.91 70.1933 142.44C69.9261 100.972 97.73 65.2471 132.173 62.8041Z" fill="#F7AEF8" stroke="black" stroke-width="2" stroke-miterlimit="10"/>
<path d="M122.646 212.898L101.934 210.14C72.4248 206.21 49.7141 176.851 49.4746 139.681C49.2074 98.2131 77.0113 62.488 111.455 60.0449L132.167 62.8033C97.7231 65.2475 69.9192 100.971 70.1864 142.44C70.4258 179.609 93.1366 208.969 122.646 212.898Z" fill="#F7AEF8" stroke="black" stroke-width="2" stroke-miterlimit="10"/>
<path d="M131.918 24.0148C184.126 20.3105 226.93 68.4326 227.335 131.289C227.386 139.373 226.735 147.307 225.45 155.014L193.988 148.537C194.762 143.671 195.151 138.665 195.119 133.575C194.852 92.1073 166.612 60.3597 132.169 62.8039C97.7254 65.2482 69.9215 100.972 70.1887 142.44C70.4558 183.91 98.6942 215.658 133.139 213.214C162.127 211.157 186.412 185.527 193.219 152.738L224.682 159.215C214.689 209.448 177.655 248.86 133.388 252.001C81.18 255.705 38.3772 207.583 37.9717 144.726C37.5661 81.8694 79.7106 27.719 131.918 24.0135V24.0148Z" fill="#F7AEF8" stroke="black" stroke-width="2" stroke-miterlimit="10"/>
<path d="M33.2323 145.067C32.8544 86.4941 67.6709 35.1515 113.824 21.6076L111.207 21.2598C59.0035 24.9665 16.8602 79.1144 17.2646 141.971C17.5956 193.43 46.3754 234.915 85.4354 246.269C54.6132 228.049 33.5247 190.178 33.2323 145.067ZM79.6347 235.695C81.6072 237.186 83.6338 238.575 85.7098 239.879C83.6362 238.572 81.6096 237.185 79.6347 235.695ZM86.7977 240.552C88.887 241.824 91.0183 243.006 93.2002 244.081C91.0207 243.006 88.887 241.822 86.7977 240.552ZM108.819 249.84C106.371 249.225 103.964 248.489 101.598 247.644C103.967 248.493 106.373 249.222 108.819 249.84ZM101.114 247.483C98.7506 246.621 96.4448 245.623 94.1726 244.54C96.4424 245.623 98.7518 246.622 101.114 247.483ZM116.768 251.388C114.279 251.033 111.814 250.584 109.391 249.993C111.811 250.582 114.278 251.029 116.768 251.388ZM37.9764 144.73C37.9981 148.007 38.1593 151.231 38.406 154.424C38.1593 151.233 37.9981 148.007 37.9764 144.73ZM38.4819 155.507C38.7394 158.538 39.1137 161.516 39.5674 164.456C39.1137 161.516 38.7418 158.538 38.4819 155.507ZM39.7948 165.909C40.2702 168.778 40.8395 171.604 41.4929 174.377C40.8371 171.603 40.2702 168.778 39.7948 165.909ZM41.8432 175.797C42.5412 178.608 43.3114 181.374 44.1875 184.073C43.3126 181.371 42.5436 178.608 41.8432 175.797ZM47.5897 193.305C48.7006 195.963 49.9149 198.538 51.1978 201.059C49.9173 198.54 48.7006 195.963 47.5897 193.305ZM51.6948 202.049C52.9344 204.429 54.2546 206.734 55.6422 208.98C54.2558 206.734 52.9344 204.429 51.6948 202.049ZM56.4016 210.197C57.8024 212.399 59.2659 214.535 60.8003 216.592C59.2659 214.535 57.8 212.399 56.4016 210.197ZM61.5549 217.579C63.1519 219.672 64.8042 221.698 66.536 223.629C64.8042 221.701 63.1555 219.671 61.5549 217.579ZM72.5498 229.751C70.6628 227.995 68.8431 226.143 67.08 224.209C68.8419 226.143 70.6604 227.994 72.5498 229.751ZM72.8507 230.041C74.763 231.803 76.7487 233.454 78.7778 235.027C76.7487 233.454 74.7594 231.802 72.8507 230.041Z" fill="#F7AEF8"/>
<path d="M44.4776 184.919C45.4079 187.717 46.4115 190.466 47.5224 193.135M33.2323 145.067C32.8544 86.4941 67.6709 35.1515 113.824 21.6076L111.207 21.2598C59.0035 24.9665 16.8602 79.1144 17.2646 141.971C17.5956 193.43 46.3754 234.915 85.4354 246.269C54.6132 228.049 33.5247 190.178 33.2323 145.067ZM79.6347 235.695C81.6072 237.186 83.6338 238.575 85.7098 239.879C83.6362 238.572 81.6096 237.185 79.6347 235.695ZM86.7977 240.552C88.887 241.824 91.0183 243.006 93.2002 244.081C91.0207 243.006 88.887 241.822 86.7977 240.552ZM108.819 249.84C106.371 249.225 103.964 248.489 101.598 247.644C103.967 248.493 106.373 249.222 108.819 249.84ZM101.114 247.483C98.7506 246.621 96.4448 245.623 94.1726 244.54C96.4424 245.623 98.7518 246.622 101.114 247.483ZM116.768 251.388C114.279 251.033 111.814 250.584 109.391 249.993C111.811 250.582 114.278 251.03 116.768 251.388ZM37.9764 144.73C37.9981 148.007 38.1593 151.231 38.406 154.424C38.1593 151.233 37.9981 148.007 37.9764 144.73ZM38.4819 155.507C38.7394 158.538 39.1137 161.516 39.5674 164.456C39.1137 161.516 38.7418 158.538 38.4819 155.507ZM39.7948 165.909C40.2702 168.778 40.8395 171.604 41.4929 174.377C40.8371 171.603 40.2702 168.778 39.7948 165.909ZM41.8432 175.797C42.5412 178.608 43.3114 181.374 44.1875 184.073C43.3126 181.371 42.5436 178.608 41.8432 175.797ZM47.5897 193.305C48.7006 195.963 49.9149 198.538 51.1978 201.059C49.9173 198.54 48.7006 195.963 47.5897 193.305ZM51.6948 202.049C52.9344 204.429 54.2546 206.734 55.6422 208.98C54.2558 206.734 52.9344 204.429 51.6948 202.049ZM56.4016 210.197C57.8024 212.399 59.2659 214.535 60.8003 216.592C59.2659 214.535 57.8 212.399 56.4016 210.197ZM61.5549 217.579C63.1519 219.672 64.8042 221.698 66.536 223.629C64.8042 221.701 63.1555 219.671 61.5549 217.579ZM72.5498 229.751C70.6628 227.995 68.8431 226.143 67.08 224.209C68.8419 226.143 70.6604 227.994 72.5498 229.751ZM72.8507 230.041C74.763 231.803 76.7487 233.454 78.7778 235.027C76.7487 233.454 74.7594 231.802 72.8507 230.041Z" stroke="black" stroke-width="2" stroke-miterlimit="10"/>
<path d="M116.729 257.212L96.0169 254.454C49.0489 248.2 12.9002 201.469 12.5187 142.307C12.0926 76.3014 56.3492 19.4385 111.171 15.5488L131.883 18.3072C77.061 22.1968 32.8044 79.061 33.2305 145.066C33.612 204.227 69.7607 250.958 116.729 257.212Z" fill="#F7AEF8" stroke="black" stroke-width="2" stroke-miterlimit="10"/>
<path d="M131.79 4.44491C193.06 0.0967584 243.114 56.3724 243.589 130.138C243.65 139.732 242.87 149.153 241.332 158.287L230.079 155.971C231.44 147.848 232.129 139.476 232.075 130.955C231.649 64.9508 186.702 14.4169 131.879 18.3065C77.057 22.1962 32.8004 79.0603 33.2265 145.065C33.6525 211.071 78.5999 261.605 133.423 257.714C179.941 254.413 218.85 212.973 229.311 160.171L240.567 162.489C228.996 221.585 185.583 267.882 133.511 271.577C72.2407 275.925 22.1858 219.649 21.7104 145.882C21.2363 72.1163 70.5197 8.79186 131.79 4.44491Z" fill="#F7AEF8" stroke="black" stroke-width="2" stroke-miterlimit="10"/>
<path d="M133.628 137.098C133.669 137.096 133.711 137.094 133.753 137.098L150.251 138.062L159.696 138.614L165.477 138.953C166.217 139.105 166.39 140.791 166.214 142.82C166.095 144.186 165.818 145.708 165.448 147.023C164.934 148.851 164.241 150.278 163.546 150.328C163.499 150.331 163.452 150.328 163.404 150.318L157.904 148.331L148.947 145.095L133.323 139.451C132.253 139.063 132.556 137.177 133.627 137.1L133.628 137.098Z" fill="#F7AEF8" stroke="black" stroke-width="2" stroke-miterlimit="10"/>
<path d="M132.517 116.791C142.233 116.102 150.2 125.057 150.276 136.756C150.278 137.192 150.27 137.628 150.252 138.06L133.753 137.096C133.71 137.094 133.669 137.094 133.628 137.096C132.557 137.172 132.254 139.059 133.325 139.447L148.948 145.091C146.321 152.9 140.084 158.705 132.793 159.222C123.076 159.912 115.11 150.955 115.036 139.256C114.96 127.557 122.803 117.481 132.52 116.791H132.517Z" fill="#F7AEF8" stroke="black" stroke-width="2" stroke-miterlimit="10"/>
<path d="M129.787 2.24658C123.702 1.43664 117.453 1.23325 111.082 1.68455C49.8115 6.03271 0.528038 69.3571 1.00341 143.123C1.42944 209.22 41.6604 261.273 94.0982 268.257L114.81 271.015C62.3722 264.032 22.1412 211.978 21.7152 145.881C21.2398 72.1143 70.5233 8.78987 131.793 4.44292C138.165 3.99041 144.414 4.1938 150.499 5.00494L129.787 2.24658Z" fill="#F7AEF8" stroke="black" stroke-width="2" stroke-miterlimit="10"/>
</svg>
