<svg width="202" height="252" viewBox="0 0 202 252" fill="none" xmlns="http://www.w3.org/2000/svg">
<g id="Device">
<g id="Group">
<g id="Group_2">
<g id="Group_3">
<path id="Vector" d="M121.501 232.594L121.218 230.708C121.309 230.696 130.534 229.256 134.945 225.013C135.891 224.103 135.867 223.447 135.771 223.031C134.752 218.795 119.157 212.184 88.0998 202.814C82.9839 201.271 78.0306 199.801 73.2822 198.391C42.273 189.183 21.785 183.103 20.3689 176.204C20.0134 174.48 20.7907 172.805 22.6829 171.238C33.433 162.314 76.2168 159.078 78.0306 158.939L78.1692 160.838C77.7293 160.868 34.1802 164.158 23.9001 172.703C21.9296 174.336 22.1586 175.45 22.2369 175.818C23.424 181.603 45.6656 188.201 73.8245 196.559C78.5729 197.969 83.5322 199.439 88.6482 200.982C130.13 213.498 136.705 218.758 137.627 222.579C137.952 223.929 137.494 225.206 136.271 226.381C131.42 231.045 121.911 232.528 121.507 232.588L121.501 232.594Z" fill="#F7AEF8" stroke="#111111" stroke-width="2" stroke-linecap="round" stroke-linejoin="round"/>
<path id="Vector_2" d="M24.0273 170.256L26.7751 170.852C40.5383 163.688 77.7541 160.874 78.1579 160.843L78.0193 158.945C76.2718 159.072 36.5913 162.079 24.0273 170.256Z" fill="#88A4DF" stroke="#111111" stroke-width="2" stroke-linecap="round" stroke-linejoin="round"/>
</g>
<g id="Group_4">
<path id="Vector_3" d="M126.619 234.633C127.342 232.289 126.444 229.722 124.395 228.372C121.623 226.553 116.58 224.335 108.023 223.721C92.8799 222.636 82.5997 228.228 77.7368 232.916C72.8679 237.604 73.9525 243.19 80.9848 246.619C88.017 250.042 93.0667 250.945 99.0142 250.042C104.962 249.138 114.7 244.456 118.122 242.112C121.545 239.767 125.697 237.604 126.595 234.718C126.601 234.688 126.613 234.658 126.619 234.633Z" fill="#F7AEF8" stroke="#111111" stroke-width="2" stroke-linecap="round" stroke-linejoin="round"/>
<path id="Vector_4" d="M103.335 245.714C94.8623 251.481 86.7454 248.782 86.7454 248.782L86.5586 248.938C90.9515 250.403 94.7478 250.686 99.0081 250.041C104.956 249.137 114.693 244.455 118.116 242.111C121.539 239.767 125.691 237.604 126.589 234.717C126.595 234.687 126.607 234.657 126.613 234.633C126.685 234.398 126.739 234.163 126.775 233.928C121.436 235.223 110.831 240.61 103.329 245.714H103.335Z" fill="#F7AEF8" stroke="#111111" stroke-width="2" stroke-linecap="round" stroke-linejoin="round"/>
</g>
<path id="Vector_5" d="M90.8895 235.793C90.8895 237.089 89.3167 238.137 87.3764 238.137C85.436 238.137 83.8633 237.089 83.8633 235.793C83.8633 234.498 85.436 233.449 87.3764 233.449C89.3167 233.449 90.8895 234.498 90.8895 235.793Z" fill="#88A4DF" stroke="#111111" stroke-width="2" stroke-linecap="round" stroke-linejoin="round"/>
</g>
<g id="Group_5">
<g id="Group_6">
<g id="Group_7">
<path id="Vector_6" d="M72.8448 164.697L36.4062 177.834L102.914 194.766L140.021 179.057L72.8448 164.697Z" fill="#88A4DF" stroke="#111111" stroke-width="2" stroke-linecap="round" stroke-linejoin="round"/>
<path id="Vector_7" d="M36.4062 177.834V179.901L102.799 197.484L102.914 194.767L36.4062 177.834Z" fill="#88A4DF" stroke="#111111" stroke-width="2" stroke-linecap="round" stroke-linejoin="round"/>
<path id="Vector_8" d="M102.915 194.766L140.023 179.057L139.758 181.328L102.801 197.484L102.915 194.766Z" fill="#88A4DF" stroke="#111111" stroke-width="2" stroke-linecap="round" stroke-linejoin="round"/>
</g>
<path id="Vector_9" d="M77.1365 148.309L75.6361 171.55L73.5391 172.448L111.466 181.439L113.563 180.541L115.214 155.359L77.1365 148.309Z" fill="#88A4DF" stroke="#111111" stroke-width="2" stroke-linecap="round" stroke-linejoin="round"/>
<path id="Vector_10" d="M75.0335 149.215L73.5391 172.451L111.466 181.441L113.111 156.259L75.0335 149.215Z" fill="#88A4DF" stroke="#111111" stroke-width="2" stroke-linecap="round" stroke-linejoin="round"/>
<g id="Group_8">
<path id="Vector_11" d="M199.773 2.70545L197.502 1.84375L194.332 2.03658L194.067 2.90431L16.9661 13.4436C16.002 13.4978 15.2126 14.245 15.1162 15.2092L3.4079 136.263C3.31752 137.089 3.88395 137.848 4.69744 138.005L169.855 169.653L168.023 170.755L175.344 172.177L176.194 172.063L178.261 171.063C178.924 170.87 179.454 170.309 179.551 169.574L200.985 4.62168C201.099 3.7419 200.557 2.96456 199.773 2.69943V2.70545Z" fill="#88A4DF" stroke="#111111" stroke-width="2" stroke-linecap="round" stroke-linejoin="round"/>
<path id="Vector_12" d="M14.0495 14.0468L1.00947 137.264C0.919079 138.09 1.48551 138.849 2.29901 139.006L175.037 172.106C176.049 172.299 177.02 171.6 177.152 170.575L198.586 3.74258C198.731 2.62779 197.827 1.65763 196.706 1.72391L15.8994 12.2813C14.9353 12.3355 14.1459 13.0827 14.0495 14.0468Z" fill="#88A4DF" stroke="#111111" stroke-width="2" stroke-linecap="round" stroke-linejoin="round"/>
<path id="Vector_13" d="M18.0161 17.7706L7.04297 119.97L172.303 145.321L190.929 8.18945L18.0161 17.7706Z" fill="#F7AEF8" stroke="#111111" stroke-width="2" stroke-linecap="round" stroke-linejoin="round"/>
<path id="Vector_14" d="M2.29901 139.012L175.037 172.113C176.049 172.305 177.02 171.606 177.152 170.582L179.237 154.378L2.2508 125.557L1.00947 137.277C0.919079 138.103 1.48551 138.862 2.29901 139.018V139.012Z" fill="#88A4DF" stroke="#111111" stroke-width="2" stroke-linecap="round" stroke-linejoin="round"/>
</g>
</g>
</g>
</g>
</g>
</svg>
