<svg width="417" height="361" viewBox="0 0 417 361" fill="none" xmlns="http://www.w3.org/2000/svg">
<path d="M219.848 228.751L209.235 214.159L315.862 147.528L326.474 162.118L219.848 228.751Z" fill="#88A4DF" stroke="black" stroke-width="2" stroke-miterlimit="10"/>
<path d="M310.5 146.323C313.184 150.013 315.867 153.705 318.551 157.395C315.865 153.703 313.18 150.011 310.494 146.32C310.494 146.32 310.497 146.323 310.498 146.325L310.5 146.323Z" fill="#88A4DF" stroke="black" stroke-width="2" stroke-miterlimit="10"/>
<path d="M323.924 158.611C321.249 154.933 318.575 151.257 315.898 147.58C319.072 151.943 323.303 157.76 326.478 162.122C325.627 160.951 324.775 159.783 323.924 158.611Z" fill="#88A4DF" stroke="black" stroke-width="2" stroke-miterlimit="10"/>
<path d="M318.442 151.075C321.12 154.756 323.797 158.438 326.477 162.118C326.054 161.724 325.583 161.44 325.055 161.24C325.055 161.24 325.054 161.238 325.051 161.238C324.523 161.041 323.94 160.93 323.285 160.882C319.747 156.018 316.209 151.156 312.672 146.293C313.98 146.389 315.016 146.736 315.864 147.526C316.723 148.707 317.583 149.891 318.443 151.072L318.442 151.075Z" fill="#88A4DF"/>
<path d="M325.055 161.24C325.583 161.44 326.054 161.724 326.477 162.118C323.797 158.438 321.12 154.756 318.442 151.075L318.443 151.072C317.583 149.891 316.723 148.707 315.864 147.526C315.016 146.736 313.98 146.389 312.672 146.293C316.209 151.156 319.747 156.018 323.285 160.882C323.94 160.93 324.523 161.041 325.051 161.238M325.055 161.24C321.522 156.382 317.987 151.524 314.454 146.666M325.055 161.24C325.055 161.24 325.054 161.238 325.051 161.238M325.051 161.238C321.531 156.4 318.011 151.559 314.491 146.721" stroke="black" stroke-width="2" stroke-miterlimit="10"/>
<path d="M310.494 146.32C311.295 146.266 312.019 146.25 312.673 146.298C316.211 151.163 319.75 156.024 323.286 160.887C323.286 160.887 323.286 160.887 323.283 160.887C319.757 156.04 316.232 151.193 312.704 146.345C314.698 149.088 316.692 151.829 318.687 154.569C319.1 155.136 319.65 155.892 320.062 156.458C320.265 156.735 320.535 157.106 320.737 157.386C320.939 157.666 321.202 158.024 321.399 158.297C321.782 158.822 322.291 159.526 322.675 160.051C322.856 160.301 323.094 160.641 323.282 160.885C321.975 160.791 320.395 160.947 318.464 161.168C314.926 156.303 311.388 151.442 307.851 146.579C308.816 146.468 309.694 146.374 310.494 146.32C314.03 151.181 317.567 156.041 321.103 160.903C317.567 156.041 314.032 151.18 310.496 146.319L310.494 146.32Z" fill="#88A4DF"/>
<path d="M310.494 146.32C311.295 146.266 312.019 146.25 312.673 146.298C316.211 151.163 319.75 156.024 323.286 160.887C323.286 160.887 323.286 160.887 323.283 160.887C319.757 156.04 316.232 151.193 312.704 146.345C314.698 149.088 316.692 151.829 318.687 154.569C319.1 155.136 319.65 155.892 320.062 156.458C320.265 156.735 320.535 157.106 320.737 157.386C320.939 157.666 321.202 158.024 321.399 158.297C321.782 158.822 322.291 159.526 322.675 160.051C322.856 160.301 323.094 160.641 323.282 160.885C321.975 160.791 320.395 160.947 318.464 161.168C314.926 156.303 311.388 151.442 307.851 146.579C308.816 146.468 309.694 146.374 310.494 146.32ZM310.494 146.32C314.03 151.181 317.567 156.041 321.103 160.903C317.567 156.041 314.032 151.18 310.496 146.319L310.494 146.32Z" stroke="black" stroke-width="2" stroke-miterlimit="10"/>
<path d="M213.338 232.824L219.849 228.753L326.475 162.121L213.338 232.824Z" fill="#88A4DF"/>
<path d="M213.34 232.825L202.726 218.235L209.238 214.161L219.851 228.753L213.34 232.825Z" fill="#88A4DF" stroke="black" stroke-width="2" stroke-miterlimit="10"/>
<path d="M369.983 87.0343C370.081 87.084 370.177 87.135 370.275 87.1847L378.503 98.6781C378.403 98.6297 378.307 98.5787 378.211 98.5277C375.468 94.6953 372.725 90.8654 369.983 87.0343Z" fill="#88A4DF" stroke="black" stroke-width="2" stroke-miterlimit="10"/>
<path d="M293.298 142.618C297.219 147.786 303.113 147.118 307.849 146.579C311.387 151.443 314.926 156.305 318.463 161.168C313.726 161.708 307.833 162.376 303.912 157.208C300.728 152.831 296.482 146.995 293.298 142.618Z" fill="#88A4DF" stroke="black" stroke-width="2" stroke-miterlimit="10"/>
<path d="M369.982 87.0338C370.029 87.0783 370.07 87.1554 370.109 87.2093C370.292 87.4608 370.474 87.7107 370.657 87.9622C370.85 88.2273 371.042 88.4907 371.234 88.7571C374.354 93.0478 373.88 92.3968 377 96.6875C373.802 92.2902 377.426 97.2465 377.396 97.2289L369.892 86.981C369.923 87.0003 369.951 87.0192 369.981 87.0368L369.982 87.0338Z" fill="#88A4DF" stroke="black" stroke-width="2" stroke-miterlimit="10"/>
<path d="M364.799 82.878C366.283 84.3851 367.983 85.755 369.896 86.9828L377.5 99C375.587 97.7722 376.897 98.9761 375.412 97.4673C372.229 93.0904 367.983 87.255 364.799 82.878Z" fill="#88A4DF" stroke="black" stroke-width="2" stroke-miterlimit="10"/>
<path d="M319.614 143.616L309.001 129.026L364.797 82.877L375.41 97.4663L319.614 143.616Z" fill="#88A4DF" stroke="black" stroke-width="2" stroke-miterlimit="10"/>
<path d="M372.932 94.5411L362.318 79.9518C363.065 80.9765 363.891 81.9505 364.796 82.8719L375.41 97.4612C374.502 96.5394 373.675 95.5654 372.932 94.5411Z" fill="#88A4DF" stroke="black" stroke-width="2" stroke-miterlimit="10"/>
<path d="M378.759 90.2911L368.146 75.7018C369.842 78.033 372.079 80.035 374.868 81.7325C374.959 81.7871 375.044 81.8456 375.126 81.9097C375.332 82.0678 375.507 82.2495 375.654 82.4505L386.268 97.0398C386.122 96.8406 385.946 96.6571 385.74 96.499C385.659 96.4366 385.572 96.3764 385.481 96.3218C382.693 94.626 380.457 92.624 378.759 90.2911Z" fill="#88A4DF" stroke="black" stroke-width="2" stroke-miterlimit="10"/>
<path d="M368.146 75.7001C365.71 72.3496 364.385 68.3188 364.133 63.5371C367.671 68.4018 371.209 73.2634 374.746 78.1264C374.999 82.9081 376.322 86.9402 378.76 90.2894C375.576 85.9124 371.33 80.077 368.146 75.7001Z" fill="#88A4DF" stroke="black" stroke-width="2" stroke-miterlimit="10"/>
<path d="M364.132 63.5373C364.126 63.431 364.929 64.5243 364.912 64.4212L374.711 77.8118C374.729 77.9149 374.739 78.0203 374.746 78.1266C371.207 73.2619 367.669 68.4003 364.132 63.5373Z" fill="#88A4DF" stroke="black" stroke-width="2" stroke-miterlimit="10"/>
<path d="M371.544 72.4038C373.235 72.1779 374.66 73.1667 374.907 74.6986C374.924 74.8017 374.935 74.9071 374.941 75.0134C375.368 83.1234 378.88 89.0748 385.675 93.2083C385.766 93.2629 385.851 93.3214 385.933 93.3855C387.19 94.3555 387.344 96.2163 386.237 97.6892C385.553 98.6006 384.54 99.1621 383.515 99.2999C382.774 99.3997 382.029 99.2757 381.404 98.8936C381.313 98.839 381.225 98.7848 381.136 98.729C380.99 98.6382 380.848 98.5479 380.705 98.4575C378.792 97.2298 377.093 95.8615 375.608 94.3528C371.051 89.7215 368.528 83.782 368.085 76.6179C368.079 76.5116 368.073 76.4054 368.066 76.2974C367.97 74.519 369.434 72.7927 371.333 72.4392C371.403 72.4254 371.474 72.4146 371.542 72.4051L371.544 72.4038Z" fill="#88A4DF" stroke="black" stroke-width="2" stroke-miterlimit="10"/>
<path d="M315.449 147.106L304.836 132.517C306.383 131.549 307.789 130.37 309 129.025L319.613 143.615C318.401 144.961 316.995 146.139 315.449 147.106Z" fill="#88A4DF" stroke="black" stroke-width="2" stroke-miterlimit="10"/>
<path d="M308.914 151.19L298.301 136.597L304.837 132.516L315.451 147.105L308.914 151.19Z" fill="#88A4DF" stroke="black" stroke-width="2" stroke-miterlimit="10"/>
<path d="M299.123 138.345C298.709 137.766 298.444 137.19 298.301 136.594L308.914 151.183C309.056 151.778 309.324 152.354 309.736 152.935C306.552 148.558 302.285 142.736 299.123 138.345Z" fill="#88A4DF" stroke="black" stroke-width="2" stroke-miterlimit="10"/>
<path d="M298.27 136.449C301.808 141.314 305.346 146.176 308.883 151.039C308.893 151.09 308.904 151.139 308.917 151.188L298.304 136.599C298.292 136.548 298.28 136.498 298.27 136.449Z" fill="#88A4DF" stroke="black" stroke-width="2" stroke-miterlimit="10"/>
<path d="M300.119 129.282C301.699 125.733 303.62 121.424 302.098 117.166C305.636 122.031 309.174 126.892 312.711 131.755C314.233 136.013 312.313 140.323 310.733 143.872C309.361 146.954 308.484 149.1 308.88 151.037C305.342 146.172 301.803 141.31 298.266 136.447C297.87 134.511 298.747 132.365 300.119 129.282Z" fill="#88A4DF" stroke="black" stroke-width="2" stroke-miterlimit="10"/>
<path d="M302.097 117.165C301.879 116.556 301.593 115.949 301.223 115.346L311.836 129.935C312.204 130.539 312.494 131.147 312.711 131.755C310.942 129.322 309.172 126.89 307.403 124.458C307.196 124.171 306.917 123.788 306.708 123.502C306.498 123.217 306.224 122.835 306.014 122.55C305.338 121.62 304.662 120.69 303.987 119.762C303.603 119.235 303.092 118.529 302.707 118.003C302.524 117.751 302.244 117.44 302.098 117.167L302.097 117.165Z" fill="#88A4DF" stroke="black" stroke-width="2" stroke-miterlimit="10"/>
<path d="M303.913 157.209L293.299 142.62C292.791 141.907 292.394 141.192 292.092 140.48C290.127 135.848 292.163 131.277 293.842 127.505C295.551 123.663 296.456 121.381 295.109 119.17L305.723 133.759C307.07 135.97 306.167 138.252 304.455 142.095C302.776 145.866 300.741 150.438 302.705 155.069C303.009 155.783 303.404 156.496 303.913 157.209Z" fill="#88A4DF" stroke="black" stroke-width="2" stroke-miterlimit="10"/>
<path d="M294.812 118.707L305.426 133.296C305.531 133.44 305.631 133.593 305.724 133.76L295.11 119.171C295.017 119.007 294.916 118.852 294.812 118.707Z" fill="#88A4DF" stroke="black" stroke-width="2" stroke-miterlimit="10"/>
<path d="M293.136 117.333C293.808 117.65 294.36 118.088 294.809 118.706L305.422 133.295C304.973 132.677 304.422 132.239 303.75 131.923C300.212 127.058 296.673 122.196 293.136 117.333Z" fill="#88A4DF" stroke="black" stroke-width="2" stroke-miterlimit="10"/>
<path d="M287.294 116.415C289.859 116.547 291.753 116.685 293.135 117.336C296.673 122.201 300.211 127.062 303.748 131.925C302.366 131.274 300.473 131.136 297.907 131.004C294.605 130.836 290.732 130.638 287.753 128.431C284.215 123.566 280.677 118.705 277.14 113.842C280.118 116.048 283.993 116.246 287.294 116.415Z" fill="#88A4DF" stroke="black" stroke-width="2" stroke-miterlimit="10"/>
<path d="M277.139 113.843C277.208 113.912 277.274 114.029 277.332 114.108C280.807 118.883 284.279 123.659 287.754 128.434C287.002 127.876 286.307 127.193 285.694 126.348L275.08 111.758C275.694 112.604 276.388 113.287 277.14 113.845L277.139 113.843Z" fill="#88A4DF" stroke="black" stroke-width="2" stroke-miterlimit="10"/>
<path d="M301.222 115.344C301.027 115.004 300.822 114.685 300.605 114.387L311.219 128.976C311.436 129.275 311.642 129.592 311.835 129.933C308.651 125.557 304.159 119.889 301.222 115.344Z" fill="#88A4DF" stroke="black" stroke-width="2" stroke-miterlimit="10"/>
<path d="M291.518 122.079L280.905 107.49C282.317 109.431 284.764 109.659 288.66 109.86C292.695 110.067 297.649 110.32 300.607 114.386L311.221 128.976C308.263 124.909 303.308 124.656 299.274 124.449C295.376 124.25 292.931 124.02 291.518 122.079Z" fill="#88A4DF" stroke="black" stroke-width="2" stroke-miterlimit="10"/>
<path d="M280.903 107.488C280.724 107.242 280.561 106.967 280.414 106.66L291.028 121.249C291.174 121.556 291.336 121.829 291.517 122.077C288.333 117.7 284.087 111.865 280.903 107.488Z" fill="#88A4DF" stroke="black" stroke-width="2" stroke-miterlimit="10"/>
<path d="M280.262 106.289C283.8 111.154 287.338 116.015 290.875 120.878C290.922 121.002 290.972 121.126 291.029 121.253L280.415 106.664C280.359 106.539 280.308 106.413 280.262 106.289Z" fill="#88A4DF" stroke="black" stroke-width="2" stroke-miterlimit="10"/>
<path d="M297.557 99.4969L286.944 84.9076L357.27 65.1385L366.5 80L297.557 99.4969Z" fill="#88A4DF" stroke="black" stroke-width="2" stroke-miterlimit="10"/>
<path d="M367.884 79.7298C367.878 79.6235 367.871 79.5172 367.864 79.4092C367.769 77.6308 369.232 75.9045 371.131 75.551C371.202 75.5372 371.272 75.5264 371.34 75.517C372.548 75.3553 373.617 75.8118 374.223 76.644L363.61 62.0547C363.005 61.2241 361.934 60.766 360.727 60.9277C360.658 60.9371 360.586 60.9492 360.518 60.9617C358.619 61.3152 357.155 63.0415 357.251 64.8199C357.257 64.9262 357.263 65.0325 357.27 65.1404C357.625 70.8773 363.085 76.3488 366.086 80.4742L372.928 94.5445C369.929 90.4208 368.24 85.4683 367.884 79.7298Z" fill="#88A4DF" stroke="black" stroke-width="2" stroke-miterlimit="10"/>
<path d="M277.121 92.7233C278.947 88.287 281.479 78.6992 286.562 84.5008L297.56 99.4932C298.697 104.44 295.892 108.76 293.63 112.244C291.236 115.925 289.892 118.206 290.874 120.871C287.336 116.007 283.797 111.145 280.261 106.282C279.279 103.617 277.294 97.556 277.121 92.7233Z" fill="#88A4DF" stroke="black" stroke-width="2" stroke-miterlimit="10"/>
<path d="M118.62 292.02L108.008 277.43L98.5625 261.426L109.176 276.015L118.62 292.02Z" fill="#88A4DF" stroke="black" stroke-width="2" stroke-miterlimit="10"/>
<path d="M109.175 276.012L98.5618 261.423L292.09 140.478L302.704 155.069L109.175 276.012Z" fill="#88A4DF" stroke="black" stroke-width="2" stroke-miterlimit="10"/>
<path d="M285.696 126.351L275.082 111.762C274.705 111.243 274.358 110.663 274.047 110.018L284.66 124.607C284.971 125.253 285.318 125.833 285.696 126.351Z" fill="#88A4DF" stroke="black" stroke-width="2" stroke-miterlimit="10"/>
<path d="M289.354 101.383L82.2968 230.841L72.4034 217.131L279.921 88.411L289.354 101.383Z" fill="#88A4DF" stroke="black" stroke-width="2"/>
<path d="M118.62 292.018L108.007 277.428L71.832 217.277L82.4468 231.868L118.62 292.018Z" fill="#88A4DF" stroke="black" stroke-width="2" stroke-miterlimit="10"/>
<path d="M68.7739 240.413L58.1591 225.822L71.832 217.279L82.4455 231.868L68.7739 240.413Z" fill="#88A4DF"/>
<path d="M294.172 97.2015C295.728 96.9932 297.132 97.8034 297.502 99.2458C297.522 99.3279 297.542 99.4099 297.562 99.492C298.701 104.441 295.895 108.761 293.633 112.243C291.128 116.096 289.772 118.415 291.029 121.248C292.333 123.958 294.883 124.221 299.274 124.442C303.605 124.665 308.997 124.941 311.84 129.93C314.792 134.761 312.544 139.811 310.737 143.868C309.329 147.029 308.442 149.208 308.917 151.184C309.058 151.778 309.326 152.354 309.739 152.935C311.555 155.326 314.176 155.155 318.655 154.646C322.564 154.203 327.38 153.655 331.077 156.614C331.207 156.719 331.335 156.826 331.463 156.939C331.524 156.994 331.586 157.05 331.646 157.107C332.902 158.28 332.762 160.35 331.334 161.733C330.675 162.371 329.855 162.754 329.042 162.861C328.094 162.987 327.153 162.746 326.478 162.116C324.785 160.534 322.328 160.722 318.464 161.164C313.727 161.704 307.834 162.372 303.913 157.204C303.404 156.491 303.007 155.776 302.705 155.064C300.741 150.432 302.776 145.861 304.455 142.089C306.164 138.247 307.069 135.965 305.723 133.754C304.399 131.436 302.014 131.208 297.91 130.998C293.264 130.761 287.483 130.466 284.66 124.597C281.978 118.564 285.273 113.487 287.923 109.412C290.085 106.083 291.377 103.931 290.797 101.654C290.366 99.97 291.518 98.0612 293.367 97.397C293.636 97.3003 293.906 97.2359 294.169 97.2011L294.172 97.2015Z" fill="#88A4DF" stroke="black" stroke-width="2" stroke-miterlimit="10"/>
<path d="M380.507 101.57C380.649 101.66 380.792 101.751 380.938 101.841L331.46 156.945C331.333 156.832 331.203 156.723 331.073 156.618L380.504 101.57L380.507 101.57Z" fill="#88A4DF"/>
<path d="M95.9982 306.151L104.452 300.87L96.191 306.033L95.9982 306.151Z" fill="#88A4DF" stroke="black" stroke-width="2" stroke-miterlimit="10"/>
<path d="M96.0024 306.151L85.3889 291.562L93.8417 286.279L104.457 300.87L96.0024 306.151Z" fill="#88A4DF" stroke="black" stroke-width="2" stroke-miterlimit="10"/>
<path d="M95.6948 306.344L85.083 291.753L85.3842 291.564L95.9977 306.154L95.6948 306.344Z" fill="#88A4DF" stroke="black" stroke-width="2" stroke-miterlimit="10"/>
<path d="M71.199 321.654L60.5855 307.065L85.0821 291.756L95.6939 306.347L71.199 321.654Z" fill="#88A4DF" stroke="black" stroke-width="2" stroke-miterlimit="10"/>
<path d="M49.9742 310.943C53.5498 310.464 57.1879 309.184 60.5896 307.06L71.2031 321.65C67.8014 323.773 64.1646 325.055 60.5877 325.532C55.4158 326.223 50.3666 325.247 46.3199 322.74C42.7817 317.875 39.2432 313.013 35.7064 308.15C39.7548 310.656 44.8036 311.636 49.9742 310.943Z" fill="#88A4DF" stroke="black" stroke-width="2" stroke-miterlimit="10"/>
<path d="M96.1948 306.034L85.5813 291.444L49.9023 230.984L60.5159 245.574L96.1948 306.034Z" fill="#88A4DF" stroke="black" stroke-width="2" stroke-miterlimit="10"/>
<path d="M95.6968 306.341L85.0833 291.751L75.6406 275.748L86.2541 290.337L95.6968 306.341Z" fill="#88A4DF" stroke="black" stroke-width="2" stroke-miterlimit="10"/>
<path d="M30.6348 303.461C32.0234 305.371 33.7468 306.94 35.7045 308.152C39.2426 313.017 42.7811 317.879 46.318 322.742C44.3603 321.529 42.6369 319.961 41.2483 318.05C38.0644 313.673 33.8187 307.838 30.6348 303.461Z" fill="#88A4DF" stroke="black" stroke-width="2" stroke-miterlimit="10"/>
<path d="M60.5802 325.535C52.3088 326.641 44.3523 323.473 40.3046 316.616C44.351 323.471 52.3122 326.638 60.5853 325.531C64.1609 325.052 67.7989 323.772 71.2007 321.648C67.7969 323.776 64.1588 325.056 60.5802 325.535Z" fill="#88A4DF" stroke="black" stroke-width="2" stroke-miterlimit="10"/>
<path d="M31.8084 302.049L21.1949 287.46C25.4573 293.321 32.8588 295.969 40.5264 294.943C44.1068 294.463 47.7418 293.183 51.1469 291.057L61.7604 305.646C58.3553 307.773 54.7203 309.053 51.1399 309.532C43.4723 310.558 36.0708 307.91 31.8084 302.049Z" fill="#88A4DF" stroke="black" stroke-width="2" stroke-miterlimit="10"/>
<path d="M61.7576 305.65L51.1441 291.061L75.6407 275.752L86.2542 290.341L61.7576 305.65Z" fill="#88A4DF" stroke="black" stroke-width="2" stroke-miterlimit="10"/>
<path d="M40.3088 316.618L29.694 302.027L20.25 286.021L30.8635 300.611L40.3088 316.618Z" fill="#88A4DF" stroke="black" stroke-width="2" stroke-miterlimit="10"/>
<path d="M21.1936 287.46C20.8586 287.001 20.5431 286.521 20.25 286.021L30.8635 300.611C31.1583 301.109 31.4738 301.589 31.8071 302.049C28.6233 297.673 24.3775 291.837 21.1936 287.46Z" fill="#88A4DF" stroke="black" stroke-width="2" stroke-miterlimit="10"/>
<path d="M29.8169 298.832L19.2021 284.241L15.0039 277.129L25.6174 291.718L29.8169 298.832Z" fill="#88A4DF"/>
<path d="M29.8182 298.833L19.2047 284.244C13.4067 274.42 17.8394 260.756 29.1107 253.71L39.7243 268.299C28.453 275.345 24.0189 289.008 29.8182 298.833Z" fill="#88A4DF"/>
<path d="M39.7202 268.299L29.1067 253.71L53.6017 238.402L64.2165 252.993L39.7202 268.299Z" fill="#88A4DF"/>
<path d="M64.2192 252.994L53.6044 238.403L49.4062 231.291L60.0198 245.88L64.2192 252.994Z" fill="#88A4DF"/>
<path d="M35.5249 261.188L24.9114 246.599L49.4063 231.291L60.0199 245.88L35.5249 261.188Z" fill="#88A4DF"/>
<path d="M71.1998 321.652L95.6964 306.343L95.9976 306.154" stroke="black" stroke-width="2" stroke-miterlimit="10"/>
<path d="M310.173 153.404C311.989 155.795 314.204 155.138 318.73 154.593C322.68 154.117 327.548 153.531 331.258 156.479C331.388 156.584 331.517 156.69 331.645 156.803C331.707 156.858 331.769 156.914 331.829 156.97C331.956 157.089 332.069 157.218 332.168 157.353L331.409 156.308L383.599 99.6541C383.599 99.6541 378.404 97.9161 375 93.5C371.596 89.0839 370.566 87.1801 370.566 87.1801C369.575 84.6732 368.584 82.1663 367.087 79.6636L297.843 99.2798C298.955 104.247 296.09 108.613 293.78 112.133C291.222 116.027 289.835 118.369 291.085 121.207C292.38 123.921 294.952 124.166 299.384 124.359C303.755 124.551 309.197 124.788 312.031 129.785C314.033 133.074 313.605 136.482 312.544 139.615C311.366 142.467 306.687 149.593 310.173 153.404Z" fill="#88A4DF" stroke="black" stroke-width="2" stroke-miterlimit="10"/>
<path d="M389.243 59.7274C388.181 58.2688 386.331 57.3795 384.061 57.6834C383.725 57.7286 383.381 57.7987 383.027 57.8981L364.262 62.8514L374.711 77.8098L393.641 72.4875C393.993 72.3893 394.338 72.3179 394.674 72.2727C396.945 71.9688 398.796 72.8568 399.856 74.3167L389.243 59.7274Z" fill="#88A4DF" stroke="black" stroke-width="2" stroke-miterlimit="10"/>
<path d="M394.674 72.2719C399.955 71.5643 402.961 77.3126 399.056 81.663L385.736 96.4959C385.656 96.4334 385.569 96.3732 385.478 96.3187C378.683 92.1852 375.169 86.235 374.744 78.1237C374.738 78.0174 374.727 77.9121 374.71 77.8089L393.64 72.4866C393.992 72.3885 394.338 72.317 394.674 72.2719Z" fill="#88A4DF" stroke="black" stroke-width="2" stroke-miterlimit="10"/>
<path d="M41.2502 318.047L30.6367 303.458C30.303 303 29.9888 302.522 29.6953 302.025L40.3088 316.615C40.6023 317.111 40.9165 317.589 41.2502 318.047Z" fill="#88A4DF" stroke="black" stroke-width="2" stroke-miterlimit="10"/>
<path d="M41.2498 318.05L30.6363 303.461C30.3013 303.001 29.9871 302.523 29.6953 302.025L40.3088 316.615C40.6036 317.113 40.9178 317.591 41.2498 318.05Z" fill="#88A4DF" stroke="black" stroke-width="2" stroke-miterlimit="10"/>
<path d="M279.47 88.0714C279.037 86.3855 280.9 83.4751 282.752 82.8113C283.02 82.716 283.29 82.6515 283.554 82.6155C284.738 82.4584 285.835 82.8879 286.454 83.7402L297.068 98.3295C296.449 97.4772 295.353 97.0464 294.168 97.2048C293.905 97.2395 293.635 97.304 293.366 97.4006C291.517 98.0648 290.364 99.9736 290.796 101.658C291.376 103.935 290.083 106.087 287.922 109.415C285.272 113.491 281.977 118.567 284.659 124.601" stroke="black" stroke-width="2" stroke-miterlimit="10"/>
<path d="M25.613 291.722L14.9995 277.133C14.9745 277.09 14.9495 277.047 14.9258 277.006L25.5393 291.595C25.5643 291.638 25.5893 291.681 25.613 291.722Z" fill="#88A4DF"/>
<path d="M82.8903 231.923L72.1094 217.374L58.3316 225.688L50.0732 230.851L60.6867 245.44L96.3657 305.9L104.625 300.739L117.151 293.238" fill="#88A4DF"/>
<path d="M82.8903 231.923L72.1094 217.374L58.3316 225.688L50.0732 230.851L60.6867 245.44L96.3657 305.9L104.625 300.739L117.151 293.238" stroke="black" stroke-width="2" stroke-miterlimit="10"/>
<path d="M25.6135 291.722L15 277.133L29.6902 302.028L40.305 316.619L25.6135 291.722Z" fill="#88A4DF" stroke="black" stroke-width="2" stroke-miterlimit="10"/>
<path d="M24.8204 290.218C24.5756 289.676 24.5088 289.519 24.4437 289.361C23.4817 286.953 23.0527 284.528 23.0667 282.07C23.0829 279.417 23.6168 276.724 24.6233 274.134C24.6756 274.002 24.7234 273.881 24.7724 273.762C24.8859 273.488 24.9342 273.375 24.982 273.265C25.0903 273.019 25.1183 272.956 25.1445 272.896C25.7304 271.689 25.7564 271.642 25.7794 271.594C25.9187 271.332 25.9451 271.282 25.9711 271.235C26.0071 271.169 26.031 271.127 26.0553 271.081C26.1965 270.829 26.2259 270.779 26.2556 270.726C26.2971 270.654 26.3227 270.609 26.35 270.564C26.4285 270.431 26.491 270.325 26.5552 270.219C26.5997 270.147 26.6308 270.096 26.6619 270.045C26.6988 269.984 26.7333 269.93 26.7664 269.875C26.8013 269.818 26.8354 269.768 26.8665 269.717C26.9468 269.592 27.014 269.486 27.0842 269.381C27.2041 269.199 27.3118 269.04 27.4208 268.883C27.5033 268.765 27.5783 268.659 27.6532 268.552C27.7729 268.384 27.89 268.224 28.0097 268.067C28.0945 267.955 28.1741 267.848 28.2564 267.744C28.3813 267.583 28.5057 267.424 28.6332 267.267C28.8459 267.005 29.0647 266.744 29.2874 266.489C29.5118 266.232 29.7401 265.98 29.9757 265.731C30.2113 265.482 30.4526 265.236 30.6965 264.994C30.8472 264.845 30.9972 264.703 31.1471 264.56C31.248 264.466 31.3471 264.373 31.4493 264.281C31.557 264.182 31.6604 264.091 31.7626 263.999C31.8177 263.951 31.8677 263.907 31.9161 263.865C32.028 263.767 32.1298 263.678 32.2342 263.592C32.3543 263.492 32.4573 263.404 32.5617 263.318C32.6233 263.268 32.6729 263.227 32.7225 263.186C32.8371 263.092 32.9428 263.008 33.0498 262.926C33.1245 262.868 33.1721 262.832 33.2197 262.795C33.2859 262.744 33.3386 262.703 33.3912 262.663C33.4591 262.61 33.5033 262.576 33.5475 262.542C33.6847 262.439 33.7909 262.363 33.8958 262.285C33.977 262.225 34.0275 262.189 34.0764 262.154C34.1405 262.107 34.1975 262.068 34.2515 262.029C34.322 261.98 34.3675 261.948 34.413 261.916C34.5592 261.814 34.6663 261.742 34.7752 261.669C34.8572 261.614 34.9023 261.585 34.9491 261.554C35.0358 261.498 35.0894 261.462 35.143 261.426C35.2213 261.377 35.2663 261.347 35.3097 261.319C35.408 261.257 35.4646 261.222 35.5195 261.188L60.0144 245.88L60.5101 245.571L49.8965 230.982L49.4009 231.29L24.9042 246.6C24.8494 246.634 24.7928 246.669 24.6945 246.731C24.6512 246.759 24.6061 246.789 24.5278 246.838C24.4742 246.874 24.4193 246.908 24.3339 246.966C24.2871 246.997 24.242 247.026 24.16 247.081C24.0511 247.154 23.9423 247.227 23.7978 247.328C23.7523 247.36 23.7055 247.391 23.6363 247.441C23.5806 247.482 23.5253 247.519 23.4612 247.566C23.4123 247.601 23.3617 247.637 23.2806 247.697C23.1744 247.773 23.0695 247.851 22.9323 247.954C22.8881 247.988 22.844 248.022 22.776 248.075C22.7234 248.115 22.6707 248.156 22.6045 248.207C22.5569 248.244 22.5077 248.282 22.4346 248.338C22.3276 248.42 22.2236 248.503 22.1074 248.598C22.0564 248.637 22.0067 248.678 21.9465 248.73C21.8421 248.816 21.7377 248.902 21.619 249.004C21.5159 249.092 21.4128 249.179 21.3009 249.277C21.2525 249.319 21.2025 249.363 21.1474 249.411C21.0456 249.5 20.9434 249.593 20.8341 249.693C20.7319 249.785 20.6328 249.878 20.5319 249.972C20.3807 250.113 20.232 250.257 20.0813 250.406C19.8361 250.646 19.5978 250.892 19.3605 251.143C19.1249 251.392 18.8965 251.644 18.6722 251.901C18.4495 252.156 18.2294 252.415 18.018 252.679C17.8905 252.836 17.7661 252.995 17.6412 253.156C17.5602 253.261 17.4793 253.367 17.3945 253.479C17.2761 253.638 17.1594 253.795 17.0381 253.964C16.9631 254.071 16.8882 254.177 16.8056 254.295C16.6949 254.454 16.5889 254.611 16.469 254.793C16.4005 254.897 16.3315 255.004 16.2513 255.129C16.2189 255.178 16.1861 255.23 16.1513 255.287C16.1181 255.342 16.0819 255.397 16.0467 255.457C16.0156 255.508 15.9845 255.559 15.94 255.631C15.8758 255.737 15.8133 255.843 15.7348 255.976C15.7075 256.021 15.6819 256.066 15.6404 256.138C15.6107 256.191 15.5813 256.241 15.4401 256.493C15.4158 256.539 15.3902 256.583 15.3559 256.647C15.3282 256.696 15.3035 256.744 15.1641 257.006C15.1382 257.053 15.1135 257.102 14.5293 258.308C14.5031 258.368 14.4738 258.429 14.3669 258.677C14.3186 258.79 14.2707 258.9 14.1572 259.174C14.1081 259.293 14.0604 259.414 14.0081 259.546C13.0015 262.136 12.4664 264.828 12.4515 267.482C12.4375 269.94 12.8665 272.365 13.8285 274.773C13.8936 274.931 13.96 275.091 14.2052 275.63C14.2532 275.731 14.3013 275.832 14.9258 277.008L25.5393 291.597C24.9148 290.422 24.8667 290.321 24.8187 290.22L24.8204 290.218Z" fill="#88A4DF" stroke="black" stroke-width="2" stroke-miterlimit="10"/>
<path d="M96.1926 306.033L60.5137 245.573L60.0181 245.882L35.5231 261.19C35.4682 261.224 35.4117 261.26 35.3134 261.322C35.27 261.35 35.2249 261.379 35.1467 261.429C35.0931 261.465 35.0382 261.499 34.9528 261.557C34.906 261.587 34.8609 261.617 34.7788 261.672C34.67 261.745 34.5611 261.818 34.4166 261.918C34.3712 261.951 34.3244 261.981 34.2552 262.032C34.1995 262.072 34.1442 262.109 34.0801 262.156C34.0312 262.191 33.9806 262.227 33.8995 262.287C33.7933 262.364 33.6883 262.442 33.5512 262.545C33.507 262.579 33.4628 262.613 33.3949 262.665C33.3422 262.706 33.2896 262.746 33.2233 262.797C33.1758 262.834 33.1265 262.872 33.0535 262.928C32.9465 263.011 32.8425 263.094 32.7262 263.189C32.6753 263.228 32.6256 263.269 32.5654 263.321C32.461 263.407 32.3566 263.492 32.2379 263.595C32.1348 263.682 32.0317 263.77 31.9197 263.867C31.8714 263.91 31.8214 263.954 31.7662 264.002C31.6645 264.091 31.5623 264.183 31.453 264.284C31.3508 264.376 31.2517 264.469 31.1508 264.563C30.9995 264.704 30.8509 264.848 30.7001 264.997C30.455 265.237 30.2167 265.483 29.9794 265.733C29.7437 265.983 29.5154 266.235 29.291 266.491C29.0684 266.747 28.8483 267.006 28.6369 267.269C28.5094 267.427 28.3849 267.585 28.2601 267.746C28.1791 267.852 28.0982 267.958 28.0134 268.069C27.895 268.228 27.7782 268.386 27.6569 268.555C27.582 268.661 27.507 268.768 27.4245 268.886C27.3138 269.044 27.2078 269.202 27.0879 269.383C27.0194 269.488 26.9504 269.595 26.8701 269.719C26.8378 269.768 26.805 269.821 26.7701 269.877C26.7357 269.931 26.7008 269.988 26.6656 270.047C26.6345 270.098 26.6034 270.149 26.5589 270.222C26.4947 270.328 26.4321 270.433 26.3537 270.567C26.3264 270.612 26.3008 270.656 26.2593 270.729C26.2296 270.781 26.2002 270.831 26.0589 271.083C26.0347 271.129 26.0091 271.173 25.9748 271.238C25.9471 271.286 25.9224 271.335 25.783 271.597C25.7571 271.644 25.7324 271.693 25.1482 272.898C25.1219 272.959 25.0944 273.018 24.9857 273.267C24.9374 273.38 24.8896 273.49 24.7761 273.764C24.727 273.883 24.6793 274.004 24.627 274.136C23.6204 276.726 23.0853 279.418 23.0704 282.072C23.0564 284.531 23.4854 286.956 24.4473 289.363C24.5125 289.522 24.5789 289.682 24.824 290.221C24.8721 290.322 24.9202 290.423 25.5447 291.599C25.5697 291.642 25.5947 291.685 25.6184 291.726L29.814 298.835C29.814 298.835 29.8153 298.836 29.8166 298.838L25.6201 291.725L40.3103 316.62L30.8663 300.615L30.8689 300.618L40.3103 316.62C44.3567 323.475 52.3179 326.642 60.591 325.534C64.1666 325.055 67.8046 323.776 71.2064 321.652L95.703 306.343L96.1987 306.034L96.1926 306.033Z" fill="#88A4DF"/>
<path d="M40.3103 316.62L25.6201 291.725L29.8166 298.838C29.8153 298.836 29.814 298.835 29.814 298.835L25.6184 291.726C25.5947 291.685 25.5697 291.642 25.5447 291.599C24.9202 290.423 24.8721 290.322 24.824 290.221C24.5789 289.682 24.5125 289.522 24.4473 289.363C23.4854 286.956 23.0564 284.531 23.0704 282.072C23.0853 279.418 23.6204 276.726 24.627 274.136C24.6793 274.004 24.727 273.883 24.7761 273.764C24.8896 273.49 24.9374 273.38 24.9857 273.267C25.0944 273.018 25.1219 272.959 25.1482 272.898C25.7324 271.693 25.7571 271.644 25.783 271.597C25.9224 271.335 25.9471 271.286 25.9748 271.238C26.0091 271.173 26.0347 271.129 26.0589 271.083C26.2002 270.831 26.2296 270.781 26.2593 270.729C26.3008 270.656 26.3264 270.612 26.3537 270.567C26.4321 270.433 26.4947 270.328 26.5589 270.222C26.6034 270.149 26.6345 270.098 26.6656 270.047C26.7008 269.988 26.7357 269.931 26.7701 269.877C26.805 269.821 26.8378 269.768 26.8701 269.719C26.9504 269.595 27.0194 269.488 27.0879 269.383C27.2078 269.202 27.3138 269.044 27.4245 268.886C27.507 268.768 27.582 268.661 27.6569 268.555C27.7782 268.386 27.895 268.228 28.0134 268.069C28.0982 267.958 28.1791 267.852 28.2601 267.746C28.3849 267.585 28.5094 267.427 28.6369 267.269C28.8483 267.006 29.0684 266.747 29.291 266.491C29.5154 266.235 29.7437 265.983 29.9794 265.733C30.2167 265.483 30.455 265.237 30.7001 264.997C30.8509 264.848 30.9995 264.704 31.1508 264.563C31.2517 264.469 31.3508 264.376 31.453 264.284C31.5623 264.183 31.6645 264.091 31.7662 264.002C31.8214 263.954 31.8714 263.91 31.9197 263.867C32.0317 263.77 32.1348 263.682 32.2379 263.595C32.3566 263.492 32.461 263.407 32.5654 263.321C32.6256 263.269 32.6753 263.228 32.7262 263.189C32.8425 263.094 32.9465 263.011 33.0535 262.928C33.1265 262.872 33.1758 262.834 33.2233 262.797C33.2896 262.746 33.3422 262.706 33.3949 262.665C33.4628 262.613 33.507 262.579 33.5512 262.545C33.6883 262.442 33.7933 262.364 33.8995 262.287C33.9806 262.227 34.0312 262.191 34.0801 262.156C34.1442 262.109 34.1995 262.072 34.2552 262.032C34.3244 261.981 34.3712 261.951 34.4166 261.918C34.5612 261.818 34.67 261.745 34.7788 261.672C34.8609 261.617 34.906 261.587 34.9528 261.557C35.0382 261.499 35.0931 261.465 35.1467 261.429C35.2249 261.379 35.27 261.35 35.3134 261.322C35.4117 261.26 35.4683 261.224 35.5231 261.19L60.0181 245.882L60.5137 245.573L96.1926 306.033L96.1987 306.034L95.703 306.343L71.2064 321.652C67.8046 323.776 64.1666 325.055 60.591 325.534C52.3179 326.642 44.3567 323.475 40.3103 316.62ZM40.3103 316.62L30.8663 300.615L30.8689 300.618L40.3103 316.62Z" stroke="black" stroke-width="2" stroke-miterlimit="10"/>
<path d="M82.6155 231.741L117.148 293.239L210.208 235.085L213.131 233.257L219.645 229.185L326.27 162.555C324.577 160.973 322.121 161.163 318.256 161.603C313.519 162.143 307.626 162.811 303.705 157.643C303.196 156.93 302.8 156.215 302.497 155.503L302.119 154.2L302.496 155.504C300.531 150.873 302.568 146.3 304.246 142.53C305.956 138.689 306.862 136.404 305.513 134.194C304.19 131.876 301.805 131.648 297.701 131.438C293.054 131.202 287.275 130.904 284.452 125.039C281.77 119.003 285.065 113.929 287.715 109.854C289.876 106.525 289.545 104.002 288.965 101.726L58.5 246.809L82.6155 231.741Z" fill="#88A4DF" stroke="black" stroke-width="2" stroke-miterlimit="10"/>
</svg>
