<svg width="240" height="276" viewBox="0 0 240 276" fill="none" xmlns="http://www.w3.org/2000/svg">
<path d="M86.457 273.908L86.5688 209.667L158.397 200.415L158.745 263.737L86.457 273.908Z" fill="#F7AEF8" stroke="black" stroke-width="2" stroke-miterlimit="10"/>
<path d="M130.556 184.109L58.2928 194.268C58.2928 194.268 58.2804 194.268 58.2804 194.293L58.1562 258.509V258.521L86.4208 273.895C86.4208 273.895 86.4456 273.895 86.4456 273.883L86.5698 209.691C86.5698 209.691 86.5698 209.679 86.5822 209.667L158.398 200.415C158.398 200.415 158.821 199.483 158.808 199.483L130.556 184.122V184.109Z" fill="#F7AEF8" stroke="black" stroke-width="2" stroke-miterlimit="10"/>
<path d="M173.201 83.5694C172.791 83.1223 172.257 82.7249 171.599 82.3648L143.297 66.9658C143.956 67.326 144.49 67.7234 144.899 68.1704C146.452 69.8842 147.234 72.0698 147.234 74.7398C147.234 78.6144 145.756 81.8432 142.85 84.4262C139.932 87.0093 135.213 90.0891 128.706 93.6656L105.148 106.407C98.1934 110.046 91.4626 114.38 84.9553 119.397C78.448 124.439 73.108 130.499 68.9478 137.615C64.7876 144.73 62.7013 153.361 62.6889 163.532L62.6641 176.944V176.957L90.9286 192.331C90.9286 192.331 90.9534 192.331 90.9534 192.318L90.9783 178.931C91.0031 168.76 93.077 160.129 97.2372 153.014C101.397 145.898 106.725 139.825 113.245 134.796C119.752 129.766 126.483 125.445 133.437 121.806L156.995 109.065C163.49 105.488 168.221 102.408 171.14 99.8252C174.046 97.2421 175.511 94.0133 175.523 90.1388C175.523 87.4812 174.741 85.2831 173.189 83.5694H173.201Z" fill="#F7AEF8" stroke="black" stroke-width="2" stroke-miterlimit="10"/>
<path d="M229.246 43.2095C235.617 53.3305 238.784 65.1654 238.759 78.7016C238.734 92.2377 236.362 103.116 231.631 111.996C226.912 120.887 221.075 128.177 214.121 133.865C207.154 139.552 200.088 144.358 192.91 148.282L167.675 161.98C161.628 165.259 157.852 168.388 156.387 171.368C154.934 174.349 154.201 177.789 154.189 181.651V183.452C154.189 183.452 154.189 183.464 154.164 183.476L90.9787 192.356C90.9787 192.356 90.9539 192.356 90.9539 192.331L90.9787 178.931C91.0035 168.761 93.0774 160.13 97.2376 153.014C101.398 145.898 106.725 139.825 113.245 134.796C119.752 129.766 126.483 125.445 133.438 121.806L156.995 109.065C163.49 105.488 168.222 102.408 171.14 99.8254C174.046 97.2424 175.511 94.0136 175.524 90.139C175.524 87.4814 174.742 85.2834 173.189 83.5696C171.624 81.8559 168.147 80.763 162.77 80.316C157.393 79.8689 148.861 80.4526 137.213 82.0918C119.28 84.6128 107.222 88.3631 101.05 93.343C94.8781 98.3228 91.7859 105.041 91.7735 113.523L91.7362 130.921C91.7362 130.921 91.7362 130.934 91.7238 130.946L29.5444 139.689C29.5444 139.689 29.5195 139.689 29.5195 139.664L29.5444 128.798C29.5692 112.343 33.3072 96.46 40.7334 81.148C48.1473 65.836 60.1063 52.66 76.6105 41.6447C93.1023 30.6171 114.909 23.2033 142.031 19.3908C165.341 16.1123 184.117 16.7456 198.337 21.2784C212.556 25.8111 222.863 33.1256 229.221 43.2343L229.246 43.2095Z" fill="#F7AEF8" stroke="black" stroke-width="2" stroke-miterlimit="10"/>
<path d="M182.702 11.1697C178.902 9.10821 174.692 7.33236 170.06 5.85456C155.828 1.32181 137.052 0.688465 113.742 3.96695C86.6201 7.77943 64.8132 15.2057 48.3214 26.2209C31.8172 37.2485 19.8582 50.4246 12.4444 65.7242C5.01811 81.0486 1.29256 96.9319 1.25531 113.374L1.23047 124.253V124.265L29.495 139.639C29.495 139.639 29.5198 139.639 29.5198 139.627L29.5447 128.773C29.5695 112.318 33.3075 96.4351 40.7337 81.1231C48.1476 65.8111 60.1066 52.6351 76.6108 41.6199C93.1026 30.5922 114.909 23.1784 142.031 19.3659C165.341 16.0874 184.118 16.7208 198.337 21.2535C202.969 22.7313 207.179 24.4947 210.979 26.5686L182.677 11.1697H182.702Z" fill="#F7AEF8" stroke="black" stroke-width="2" stroke-miterlimit="10"/>
</svg>
