<svg width="211" height="113" viewBox="0 0 211 113" fill="none" xmlns="http://www.w3.org/2000/svg">
<g id="Vector" filter="url(#filter0_d_2561_6384)">
<path fill-rule="evenodd" clip-rule="evenodd" d="M100.499 108.715C141.647 108.715 177.351 82.3779 195.127 66.5109C202.289 60.1179 202.289 49.4349 195.127 43.0419C177.351 27.175 141.647 0.837891 100.499 0.837891C59.3516 0.837891 23.6479 27.175 5.87163 43.042C-1.29055 49.4349 -1.29054 60.1179 5.87164 66.5109C23.6479 82.3779 59.3516 108.715 100.499 108.715ZM100.499 92.4079C121.283 92.4079 138.131 75.5599 138.131 54.7762C138.131 33.993 121.283 17.1448 100.499 17.1448C79.7161 17.1448 62.868 33.993 62.868 54.7762C62.868 75.5599 79.7161 92.4079 100.499 92.4079Z" fill="#F7AEF8"/>
<path d="M194.461 65.7649C176.721 81.5997 141.258 107.715 100.499 107.715C59.7409 107.715 24.2778 81.5997 6.53755 65.7649C-0.179181 59.7695 -0.17918 49.7833 6.53754 43.788C24.2778 27.9532 59.7409 1.83789 100.499 1.83789C141.258 1.83789 176.721 27.9532 194.461 43.7879C201.178 49.7833 201.178 59.7695 194.461 65.7649ZM100.499 93.4079C121.835 93.4079 139.131 76.1122 139.131 54.7762C139.131 33.4407 121.835 16.1448 100.499 16.1448C79.1638 16.1448 61.868 33.4407 61.868 54.7762C61.868 76.1122 79.1638 93.4079 100.499 93.4079Z" stroke="#111111" stroke-width="2"/>
</g>
<defs>
<filter id="filter0_d_2561_6384" x="0.5" y="0.837891" width="210" height="111.877" filterUnits="userSpaceOnUse" color-interpolation-filters="sRGB">
<feFlood flood-opacity="0" result="BackgroundImageFix"/>
<feColorMatrix in="SourceAlpha" type="matrix" values="0 0 0 0 0 0 0 0 0 0 0 0 0 0 0 0 0 0 127 0" result="hardAlpha"/>
<feOffset dx="10" dy="4"/>
<feComposite in2="hardAlpha" operator="out"/>
<feColorMatrix type="matrix" values="0 0 0 0 0 0 0 0 0 0 0 0 0 0 0 0 0 0 1 0"/>
<feBlend mode="normal" in2="BackgroundImageFix" result="effect1_dropShadow_2561_6384"/>
<feBlend mode="normal" in="SourceGraphic" in2="effect1_dropShadow_2561_6384" result="shape"/>
</filter>
</defs>
</svg>
