<svg width="334" height="414" viewBox="0 0 334 414" fill="none" xmlns="http://www.w3.org/2000/svg">
<path d="M201.582 383.9L201.112 380.77C201.262 380.75 216.572 378.36 223.892 371.32C225.462 369.81 225.422 368.72 225.262 368.03C223.572 361 197.692 350.03 146.152 334.48C137.662 331.92 129.442 329.48 121.562 327.14C70.1023 311.86 36.1023 301.77 33.7523 290.32C33.1623 287.46 34.4523 284.68 37.5923 282.08C55.4323 267.27 126.432 261.9 129.442 261.67L129.672 264.82C128.942 264.87 56.6723 270.33 39.6123 284.51C36.3423 287.22 36.7223 289.07 36.8523 289.68C38.8223 299.28 75.7323 310.23 122.462 324.1C130.342 326.44 138.572 328.88 147.062 331.44C215.902 352.21 226.812 360.94 228.342 367.28C228.882 369.52 228.122 371.64 226.092 373.59C218.042 381.33 202.262 383.79 201.592 383.89L201.582 383.9Z" fill="#F7AEF8" stroke="#111111" stroke-width="2" stroke-linecap="round" stroke-linejoin="round"/>
<path d="M39.8242 280.45L44.3842 281.44C67.2242 269.55 128.984 264.88 129.654 264.83L129.424 261.68C126.524 261.89 60.6742 266.88 39.8242 280.45Z" fill="#88A4DF" stroke="#111111" stroke-width="2" stroke-linecap="round" stroke-linejoin="round"/>
<path d="M210.073 387.28C211.273 383.39 209.783 379.13 206.383 376.89C201.783 373.87 193.413 370.19 179.213 369.17C154.083 367.37 137.023 376.65 128.953 384.43C120.873 392.21 122.673 401.48 134.343 407.17C146.013 412.85 154.393 414.35 164.263 412.85C174.133 411.35 190.293 403.58 195.973 399.69C201.653 395.8 208.543 392.21 210.033 387.42C210.043 387.37 210.063 387.32 210.073 387.28Z" fill="#F7AEF8" stroke="#111111" stroke-width="2" stroke-linecap="round" stroke-linejoin="round"/>
<path d="M171.434 405.669C157.374 415.239 143.904 410.759 143.904 410.759L143.594 411.019C150.884 413.449 157.184 413.919 164.254 412.849C174.124 411.349 190.284 403.579 195.964 399.689C201.644 395.799 208.534 392.209 210.024 387.419C210.034 387.369 210.054 387.319 210.064 387.279C210.184 386.889 210.274 386.499 210.334 386.109C201.474 388.259 183.874 397.199 171.424 405.669H171.434Z" fill="#F7AEF8" stroke="#111111" stroke-width="2" stroke-linecap="round" stroke-linejoin="round"/>
<path d="M150.781 389.21C150.781 391.36 148.171 393.1 144.951 393.1C141.731 393.1 139.121 391.36 139.121 389.21C139.121 387.06 141.731 385.32 144.951 385.32C148.171 385.32 150.781 387.06 150.781 389.21Z" fill="#88A4DF" stroke="#111111" stroke-width="2" stroke-linecap="round" stroke-linejoin="round"/>
<path d="M120.829 271.229L60.3594 293.029L170.729 321.129L232.309 295.059L120.829 271.229Z" fill="#88A4DF" stroke="#111111" stroke-width="2" stroke-linecap="round" stroke-linejoin="round"/>
<path d="M60.3594 293.029V296.459L170.539 325.639L170.729 321.129L60.3594 293.029Z" fill="#88A4DF" stroke="#111111" stroke-width="2" stroke-linecap="round" stroke-linejoin="round"/>
<path d="M170.729 321.129L232.309 295.059L231.869 298.829L170.539 325.639L170.729 321.129Z" fill="#88A4DF" stroke="#111111" stroke-width="2" stroke-linecap="round" stroke-linejoin="round"/>
<path d="M127.95 244.029L125.46 282.599L121.98 284.089L184.92 299.009L188.4 297.519L191.14 255.729L127.95 244.029Z" fill="#88A4DF" stroke="#111111" stroke-width="2" stroke-linecap="round" stroke-linejoin="round"/>
<path d="M124.46 245.529L121.98 284.089L184.92 299.009L187.65 257.219L124.46 245.529Z" fill="#88A4DF" stroke="#111111" stroke-width="2" stroke-linecap="round" stroke-linejoin="round"/>
<path d="M331.472 2.39875L327.702 0.96875L322.442 1.28875L322.002 2.72875L28.1016 20.2188C26.5016 20.3088 25.1917 21.5487 25.0317 23.1487L5.60165 224.039C5.45165 225.409 6.39165 226.669 7.74165 226.929L281.822 279.449L278.782 281.279L290.932 283.639L292.342 283.449L295.772 281.789C296.872 281.469 297.752 280.539 297.912 279.319L333.482 5.57875C333.672 4.11875 332.772 2.82875 331.472 2.38875V2.39875Z" fill="#88A4DF" stroke="#111111" stroke-width="2" stroke-linecap="round" stroke-linejoin="round"/>
<path d="M23.2612 21.219L1.62118 225.699C1.47118 227.069 2.41118 228.329 3.76118 228.589L290.421 283.519C292.101 283.839 293.711 282.679 293.931 280.979L329.501 4.119C329.741 2.269 328.241 0.658997 326.381 0.768997L26.3312 18.289C24.7312 18.379 23.4212 19.619 23.2612 21.219Z" fill="#88A4DF" stroke="#111111" stroke-width="2" stroke-linecap="round" stroke-linejoin="round"/>
<path d="M29.8428 27.398L11.6328 196.998L285.883 239.068L316.793 11.498L29.8428 27.398Z" fill="#F7AEF8" stroke="#111111" stroke-width="2" stroke-linecap="round" stroke-linejoin="round"/>
<path d="M3.76118 228.6L290.421 283.53C292.101 283.85 293.711 282.69 293.931 280.99L297.391 254.1L3.68118 206.27L1.62118 225.72C1.47118 227.09 2.41118 228.35 3.76118 228.61V228.6Z" fill="#88A4DF" stroke="#111111" stroke-width="2" stroke-linecap="round" stroke-linejoin="round"/>
</svg>
