<svg width="481" height="256" viewBox="0 0 481 256" fill="none" xmlns="http://www.w3.org/2000/svg">
<path d="M326.765 30.5693L326.671 62.6254C326.671 61.1075 325.556 59.5975 322.95 58.0875C316.27 54.2181 309.488 58.4021 301.693 53.8957C298.224 51.8823 296.332 49.6645 296.332 47.2894L296.426 15.2334C296.426 17.6085 298.31 19.8263 301.787 21.8396C309.582 26.3539 316.364 22.1621 323.044 26.0315C325.65 27.5336 326.765 29.0515 326.765 30.5693Z" fill="#F7AEF8" stroke="black" stroke-width="2" stroke-miterlimit="10"/>
<path d="M231.358 24.5215L231.264 56.5775C231.264 58.0797 230.149 59.5739 227.59 61.0603C220.942 64.9297 214.12 60.7379 206.365 65.2522C202.95 67.2419 201.082 69.4282 201.074 71.7798L201.168 39.7237C201.168 37.3722 203.044 35.178 206.459 33.1961C214.214 28.6818 221.036 32.8737 227.684 29.0043C230.243 27.5179 231.35 26.0236 231.358 24.5215Z" fill="#88A4DF" stroke="black" stroke-width="2" stroke-miterlimit="10"/>
<path d="M238.582 43.3178L238.488 75.3738C238.488 75.0592 238.488 74.7446 238.488 74.4301L238.582 42.374C238.582 42.6886 238.582 43.0032 238.582 43.3178Z" fill="#88A4DF" stroke="black" stroke-width="2" stroke-miterlimit="10"/>
<path d="M98.3164 87.2416L98.4106 55.1855C98.4106 56.5933 99.3369 58.0089 101.189 59.0785L101.095 91.1345C99.2427 90.065 98.3164 88.6493 98.3164 87.2416Z" fill="#88A4DF" stroke="black" stroke-width="2" stroke-miterlimit="10"/>
<path d="M151.805 103.631C151.805 103.325 151.805 103.026 151.805 102.711L151.899 70.6553C151.899 70.962 151.899 71.2687 151.899 71.5754C151.875 81.1938 151.836 94.0131 151.805 103.631Z" fill="#BDE0FE" stroke="black" stroke-width="2" stroke-miterlimit="10"/>
<path d="M189.294 74.2333L189.2 106.289C189.2 103.639 186.853 100.784 181.688 97.7956C176.052 94.5318 170.699 93.2105 165.785 93.4937C162.205 93.6981 158.854 94.7599 155.785 96.5373C152.056 98.7079 151.797 100.753 151.789 102.719L151.883 70.6628C151.883 68.6966 152.15 66.6518 155.879 64.4812C158.94 62.696 162.292 61.6421 165.879 61.4376C170.793 61.1545 176.146 62.4758 181.782 65.7396C186.947 68.7281 189.302 71.5829 189.294 74.2333Z" fill="#88A4DF" stroke="black" stroke-width="2" stroke-miterlimit="10"/>
<path d="M128.512 74.9095L128.426 106.966L101.094 91.1342L101.188 59.0781L128.512 74.9095Z" fill="#88A4DF" stroke="black" stroke-width="2" stroke-miterlimit="10"/>
<path d="M369.936 62.9403C360.187 57.2936 351.301 57.4587 344.041 61.682C340.304 63.8526 340.045 65.8974 340.045 67.8636V69.2084C339.99 70.8442 339.59 72.4407 336.882 74.0137C330.233 77.8752 323.49 76.0663 316.669 72.1104L295.357 59.7709C293.497 58.6934 292.571 57.2857 292.571 55.8779L292.477 87.934C292.477 89.3417 293.403 90.7573 295.263 91.8269L316.575 104.166C323.396 108.114 330.139 109.931 336.788 106.07C339.731 104.355 339.951 102.625 339.959 100.84V99.487C340.022 97.6546 340.493 95.7514 343.954 93.738C351.215 89.5069 360.101 89.3496 369.85 94.9964C375.015 97.9849 377.37 100.84 377.362 103.49L377.456 71.4341C377.456 68.7837 375.109 65.9289 369.944 62.9403H369.936Z" fill="#F7AEF8" stroke="black" stroke-width="2" stroke-miterlimit="10"/>
<path d="M283.317 59.1261L262.193 71.4105C258.049 73.825 255.278 76.2237 255.27 78.5988L255.176 110.655C255.176 108.272 257.955 105.873 262.099 103.467L283.222 91.1821C285.051 90.1204 285.962 88.7283 285.97 87.3363L286.064 55.2803C286.064 56.6723 285.146 58.0643 283.317 59.1261Z" fill="#88A4DF" stroke="black" stroke-width="2" stroke-miterlimit="10"/>
<path d="M151.888 71.5752L151.794 103.631C151.794 105.416 151.566 107.147 148.623 108.861C146.723 109.97 144.808 110.607 142.893 110.867C138.112 111.512 133.285 109.781 128.418 106.958L128.512 74.9019C133.379 77.7174 138.206 79.4476 142.987 78.8106C144.91 78.5511 146.817 77.914 148.717 76.8051C151.661 75.0907 151.88 73.3605 151.888 71.5752Z" fill="#88A4DF" stroke="black" stroke-width="2" stroke-miterlimit="10"/>
<path d="M183.798 112.817C180.548 114.712 177.456 115.074 174.473 115.137C174.504 104.449 174.535 93.769 174.567 83.0811C177.55 83.0103 180.642 82.6485 183.892 80.761C187.299 78.7713 189.159 76.5849 189.167 74.2334L189.073 106.289C189.073 108.641 187.205 110.827 183.798 112.817Z" fill="#BDE0FE" stroke="black" stroke-width="2" stroke-miterlimit="10"/>
<path d="M174.48 115.145C172.824 115.176 171.199 115.121 169.598 115.2C169.629 104.512 169.66 93.8319 169.692 83.1439C171.293 83.0731 172.918 83.1203 174.574 83.0889C174.543 93.7768 174.512 104.457 174.48 115.145Z" fill="#BDE0FE" stroke="black" stroke-width="2" stroke-miterlimit="10"/>
<path d="M162.588 117.016C160.029 118.503 158.922 119.997 158.914 121.499L159.008 89.4431C159.008 87.941 160.123 86.4467 162.682 84.9603C164.982 83.6154 167.313 83.2458 169.692 83.1436C169.66 93.8315 169.629 104.512 169.597 115.2C167.219 115.302 164.888 115.671 162.588 117.016Z" fill="#BDE0FE" stroke="black" stroke-width="2" stroke-miterlimit="10"/>
<path d="M159.023 121.492L159.118 89.4355C159.118 91.8342 161.912 94.2408 166.112 96.671L166.017 128.727C161.826 126.297 159.023 123.882 159.023 121.492Z" fill="#88A4DF" stroke="black" stroke-width="2" stroke-miterlimit="10"/>
<path d="M185.824 108.082L185.73 140.138L166.012 128.735L166.106 96.6787L185.824 108.082Z" fill="#88A4DF" stroke="black" stroke-width="2" stroke-miterlimit="10"/>
<path d="M278.167 102.365C268.481 108.004 259.587 107.839 252.279 103.608C244.485 99.0935 251.675 95.1455 244.995 91.2761C238.307 87.4067 231.588 89.2156 224.806 93.1636L199.145 108.091C195.48 110.222 189.514 110.222 185.825 108.091L185.73 140.147C189.42 142.278 195.385 142.278 199.051 140.147L224.712 125.22C231.486 121.272 238.213 119.463 244.901 123.332C251.589 127.202 244.398 131.15 252.185 135.664C259.493 139.895 268.379 140.052 278.073 134.421C283.168 131.456 285.499 128.633 285.507 125.998L285.601 93.9422C285.601 96.5768 283.262 99.4002 278.167 102.365Z" fill="#88A4DF" stroke="black" stroke-width="2" stroke-miterlimit="10"/>
<path d="M198.641 2.39051L224.364 17.286C231.185 21.234 234.325 25.1506 227.684 29.0121C221.036 32.8815 214.214 28.6897 206.459 33.2039C199.19 37.4272 198.939 42.5864 208.688 48.2332C218.43 53.8721 227.323 53.7148 234.584 49.4915C242.34 44.9851 235.094 41.0292 241.743 37.1677C248.392 33.2983 255.134 35.115 261.956 39.0631L283.275 51.4104C286.972 53.5496 286.98 57.01 283.307 59.1413L262.183 71.4258C255.393 75.3738 252.293 79.2825 258.981 83.1519C262.317 85.0866 265.684 85.0079 269.193 85.0079C272.702 85.0079 276.344 85.0945 280.245 87.3516C287.561 91.5827 287.859 96.7419 278.165 102.381C268.479 108.02 259.585 107.855 252.277 103.623C244.482 99.1091 251.673 95.1611 244.993 91.2917C238.305 87.4224 231.586 89.2312 224.803 93.1792L199.143 108.106C195.477 110.238 189.512 110.238 185.822 108.106L166.104 96.6947C159.283 92.7467 156.135 88.838 162.784 84.9686C165.052 83.6474 167.344 83.2699 169.691 83.1598C171.293 83.089 172.918 83.1362 174.574 83.1047C177.588 83.0418 180.72 82.6958 184.017 80.7847C191.278 76.5535 191.529 71.4022 181.788 65.7554C176.152 62.4916 170.798 61.1704 165.884 61.4535C162.305 61.658 158.953 62.7197 155.884 64.4971C148.136 69.0114 155.374 72.9594 148.725 76.8288C146.826 77.9377 144.91 78.5747 142.995 78.8342C138.215 79.4791 133.387 77.7489 128.52 74.9255L101.188 59.0941C97.4987 56.9628 97.483 53.4946 101.149 51.3554L185.312 2.39051C188.978 0.251341 194.944 0.251341 198.641 2.39051Z" fill="#88A4DF" stroke="black" stroke-width="2" stroke-miterlimit="10"/>
<path d="M392.804 3.07506L477.438 52.0714C481.135 54.2106 481.143 57.6788 477.478 59.8102L393.306 108.767C389.64 110.898 383.675 110.898 379.978 108.767L354.254 93.8717C347.433 89.9236 344.293 86.0149 350.934 82.1456C357.575 78.2762 364.412 82.4759 372.159 77.9616C379.42 73.7305 379.679 68.5713 369.938 62.9324C360.189 57.2856 351.303 57.4508 344.042 61.6741C336.287 66.1883 343.524 70.1363 336.875 73.9978C330.227 77.8594 323.484 76.0505 316.663 72.0946L295.351 59.7551C291.654 57.6159 291.638 54.1477 295.304 52.0242L319.842 37.7579C326.632 33.8098 329.732 29.9011 323.044 26.0318C316.364 22.1624 309.582 26.3464 301.788 21.84C294.472 17.6009 294.166 12.4496 303.86 6.81074C313.546 1.17183 322.44 1.33699 329.756 5.56813C337.551 10.0824 330.352 14.0304 337.032 17.8998C343.72 21.7692 350.447 19.9603 357.222 16.0123L379.475 3.07506C383.141 0.935893 389.107 0.943758 392.796 3.07506H392.804Z" fill="#F7AEF8" stroke="black" stroke-width="2" stroke-miterlimit="10"/>
<path fill-rule="evenodd" clip-rule="evenodd" d="M480.21 58.1687L480.216 55.9902C480.21 57.1673 479.546 58.3433 478.235 59.3186L393.304 108.774C389.638 110.906 383.673 110.906 379.975 108.774L354.252 93.8788C350.062 91.4494 347.26 89.0357 347.266 86.6455L347.172 118.699C347.172 121.098 349.966 123.513 354.158 125.935L379.881 140.83C383.578 142.97 389.544 142.97 393.21 140.83L480.453 90.9999V74.0279L480.5 57.9999L480.21 58.1687Z" fill="#F7AEF8"/>
<path d="M480.216 55.9902L481.216 55.9932L479.217 55.9844L480.216 55.9902ZM480.21 58.1687L479.21 58.1658L479.205 59.9112L480.713 59.0329L480.21 58.1687ZM478.235 59.3186L478.739 60.1827L478.787 60.1544L478.832 60.1208L478.235 59.3186ZM393.304 108.774L393.807 109.639L393.807 109.639L393.304 108.774ZM379.975 108.774L379.474 109.64L379.476 109.641L379.975 108.774ZM354.252 93.8788L353.751 94.744L353.751 94.7442L354.252 93.8788ZM347.266 86.6455L348.266 86.6481L346.266 86.6426L347.266 86.6455ZM347.172 118.699L346.172 118.697V118.699H347.172ZM354.158 125.935L354.659 125.069L354.658 125.069L354.158 125.935ZM379.881 140.83L379.38 141.696L379.38 141.696L379.881 140.83ZM393.21 140.83L392.714 139.962L392.706 139.967L393.21 140.83ZM480.453 90.9999L480.949 91.8682L481.453 91.5804V90.9999H480.453ZM480.453 74.0279L479.453 74.025V74.0279H480.453ZM480.5 57.9999L481.5 58.0028L481.505 56.2574L479.997 57.1357L480.5 57.9999ZM479.216 55.9873L479.21 58.1658L481.21 58.1716L481.216 55.9932L479.216 55.9873ZM478.832 60.1208C480.316 59.0171 481.207 57.5743 481.216 55.9961L479.217 55.9844C479.212 56.7603 478.776 57.6695 477.638 58.5163L478.832 60.1208ZM477.732 58.4544L392.801 107.91L393.807 109.639L478.739 60.1827L477.732 58.4544ZM392.801 107.91C391.157 108.866 388.934 109.373 386.651 109.373C384.369 109.373 382.136 108.866 380.475 107.908L379.476 109.641C381.512 110.814 384.11 111.373 386.651 111.373C389.193 111.373 391.785 110.814 393.807 109.639L392.801 107.91ZM380.476 107.909L354.753 93.0135L353.751 94.7442L379.474 109.64L380.476 107.909ZM354.754 93.0137C352.687 91.8153 351.023 90.6541 349.887 89.5352C348.735 88.3994 348.264 87.443 348.266 86.6481L346.266 86.6429C346.262 88.2382 347.189 89.6838 348.483 90.9597C349.795 92.2526 351.627 93.5129 353.751 94.744L354.754 93.0137ZM346.266 86.6426L346.172 118.697L348.172 118.702L348.266 86.6485L346.266 86.6426ZM346.172 118.699C346.172 120.296 347.096 121.743 348.391 123.02C349.702 124.314 351.533 125.573 353.658 126.801L354.658 125.069C352.591 123.875 350.929 122.715 349.795 121.596C348.645 120.462 348.172 119.502 348.172 118.699H346.172ZM353.657 126.8L379.38 141.696L380.382 139.965L354.659 125.069L353.657 126.8ZM379.38 141.696C381.416 142.874 384.015 143.435 386.557 143.435C389.099 143.435 391.692 142.874 393.714 141.694L392.706 139.967C391.062 140.926 388.839 141.435 386.557 141.435C384.276 141.435 382.043 140.926 380.382 139.965L379.38 141.696ZM393.706 141.699L480.949 91.8682L479.957 90.1316L392.714 139.962L393.706 141.699ZM481.453 90.9999V74.0279H479.453V90.9999H481.453ZM481.453 74.0309L481.5 58.0028L479.5 57.997L479.453 74.025L481.453 74.0309ZM479.997 57.1357L479.707 57.3045L480.713 59.0329L481.003 58.8641L479.997 57.1357Z" fill="black"/>
<path d="M188.436 144.126C188.436 145.353 187.722 146.58 186.293 147.587L186.387 115.531C187.816 114.532 188.53 113.305 188.53 112.07C188.507 121.689 188.467 134.508 188.436 144.126Z" fill="#BDE0FE" stroke="black" stroke-width="2" stroke-miterlimit="10"/>
<path d="M186.296 147.586C186.084 147.689 185.88 147.799 185.684 147.909L185.778 115.853C185.974 115.735 186.178 115.633 186.39 115.53C186.367 125.149 186.327 137.968 186.296 147.586Z" fill="#BDE0FE" stroke="black" stroke-width="2" stroke-miterlimit="10"/>
<path d="M247.153 126.816L247.059 158.872C247.059 158.565 247.059 158.251 247.059 157.936L247.153 125.88C247.153 126.194 247.153 126.501 247.153 126.816Z" fill="#EDF7FF" stroke="black" stroke-width="2" stroke-miterlimit="10"/>
<path d="M185.769 115.86L185.682 147.909L164.48 160.24L164.575 128.184L185.769 115.86Z" fill="#BDE0FE" stroke="black" stroke-width="2" stroke-miterlimit="10"/>
<path d="M164.482 160.241C160.337 162.647 157.566 165.046 157.559 167.429L157.653 135.373C157.653 132.99 160.432 130.591 164.576 128.185C164.553 137.803 164.513 150.622 164.482 160.241Z" fill="#BDE0FE" stroke="black" stroke-width="2" stroke-miterlimit="10"/>
<path d="M284.557 129.467L284.463 161.523C284.463 163.874 282.587 166.069 279.172 168.058C271.417 172.565 264.596 168.381 257.955 172.242C255.388 173.729 254.281 175.231 254.273 176.733L254.368 144.677C254.368 143.175 255.482 141.68 258.049 140.186C264.69 136.325 271.511 140.509 279.267 136.002C282.681 134.013 284.549 131.818 284.557 129.467Z" fill="#EDF7FF" stroke="black" stroke-width="2" stroke-miterlimit="10"/>
<path d="M142.911 178.337C137.675 177.118 132.408 178.903 127.102 181.986L127.196 149.93C132.502 146.847 137.769 145.062 143.005 146.281C142.973 156.969 142.942 167.649 142.911 178.337Z" fill="#BDE0FE" stroke="black" stroke-width="2" stroke-miterlimit="10"/>
<path d="M187.984 150.709L187.889 182.765C187.889 180.39 186.006 178.172 182.536 176.167C180.715 175.113 178.949 174.531 177.23 174.216C175.259 173.854 173.352 173.831 171.484 173.823C169.631 173.823 167.81 173.847 166.021 173.579C164.427 173.343 162.849 172.879 161.271 171.967C158.673 170.457 157.551 168.947 157.559 167.429L157.653 135.373C157.653 136.891 158.767 138.401 161.366 139.911C162.936 140.823 164.513 141.287 166.115 141.523C167.912 141.791 169.726 141.767 171.578 141.767C173.446 141.767 175.354 141.791 177.324 142.16C179.043 142.483 180.809 143.057 182.63 144.111C186.1 146.116 187.992 148.334 187.984 150.709Z" fill="#EDF7FF" stroke="black" stroke-width="2" stroke-miterlimit="10"/>
<path d="M187.895 182.765C187.895 185.4 185.555 188.223 180.453 191.188C180.485 180.5 180.516 169.82 180.547 159.132C185.642 156.167 187.981 153.344 187.989 150.709C187.965 160.327 187.926 173.147 187.895 182.765Z" fill="#BDE0FE" stroke="black" stroke-width="2" stroke-miterlimit="10"/>
<path d="M147.377 180.115C145.893 179.257 144.402 178.675 142.91 178.337C142.942 167.649 142.973 156.969 143.004 146.281C144.496 146.619 145.987 147.201 147.471 148.059C154.159 151.928 146.961 155.876 154.755 160.39C156.733 161.531 158.829 162.38 161.019 162.899C161.019 166.155 161.003 169.403 160.996 172.659C160.972 180.091 160.949 187.523 160.933 194.955C158.743 194.444 156.647 193.595 154.669 192.446C146.874 187.932 154.072 183.984 147.384 180.115H147.377Z" fill="#BDE0FE" stroke="black" stroke-width="2" stroke-miterlimit="10"/>
<path d="M180.456 191.188C173.422 195.285 166.813 196.316 160.918 194.955C160.942 187.523 160.965 180.091 160.981 172.659C160.989 169.403 160.996 166.155 161.004 162.899C166.899 164.26 173.509 163.221 180.542 159.132C180.511 169.82 180.479 180.5 180.448 191.188H180.456Z" fill="#BDE0FE" stroke="black" stroke-width="2" stroke-miterlimit="10"/>
<path d="M127.188 149.93L127.101 181.986L101.512 196.866L101.606 164.809L127.188 149.93Z" fill="#BDE0FE" stroke="black" stroke-width="2" stroke-miterlimit="10"/>
<path d="M101.511 196.866C101.291 196.991 101.087 197.125 100.891 197.259L100.985 165.203C101.181 165.069 101.385 164.935 101.605 164.81C101.581 174.428 101.542 187.247 101.511 196.866Z" fill="#BDE0FE" stroke="black" stroke-width="2" stroke-miterlimit="10"/>
<path d="M88.2925 164.873L3.65811 115.869C1.8056 114.799 0.879351 113.383 0.879351 111.976L0.785156 144.032C0.785156 145.439 1.71141 146.855 3.56392 147.925L88.1983 196.929C91.6835 198.942 97.2018 199.052 100.891 197.267C100.915 187.649 100.954 174.829 100.985 165.211C97.2881 167.004 91.7777 166.894 88.2925 164.873Z" fill="#BDE0FE" stroke="black" stroke-width="2" stroke-miterlimit="10"/>
<path d="M181.639 65.7397C191.396 71.3864 191.144 76.5377 183.891 80.7689C180.642 82.6642 177.549 83.026 174.566 83.0889C172.91 83.1204 171.285 83.0653 169.684 83.144C167.305 83.2462 164.974 83.6159 162.674 84.9607C156.033 88.8222 159.165 92.7309 165.979 96.6711L185.736 108.185C189.213 110.198 189.433 113.383 186.372 115.53C186.16 115.633 185.956 115.743 185.76 115.853L164.558 128.177C157.768 132.125 154.667 136.033 161.355 139.903C162.925 140.815 164.503 141.279 166.104 141.515C169.707 142.073 173.396 141.444 177.313 142.152C179.033 142.474 180.799 143.049 182.62 144.102C189.936 148.333 190.234 153.493 180.54 159.124C173.506 163.221 166.897 164.251 161.002 162.891C158.812 162.38 156.716 161.53 154.738 160.382C146.943 155.868 154.141 151.92 147.454 148.05C145.97 147.193 144.479 146.611 142.987 146.273C137.751 145.054 132.484 146.839 127.178 149.922L101.596 164.802C101.376 164.928 101.172 165.061 100.976 165.195C97.2789 166.988 91.7685 166.878 88.2833 164.857L3.65672 115.869C-0.0325902 113.737 -0.0482894 110.269 3.61747 108.13L87.7887 59.1727C91.4545 57.0336 97.4202 57.0336 101.117 59.1727L128.387 74.9334C133.301 77.7725 138.175 79.5105 142.995 78.8106C144.918 78.5511 146.826 77.914 148.725 76.8051C155.374 72.9436 148.136 68.9877 155.884 64.4735C158.945 62.6882 162.297 61.6344 165.884 61.4299C170.759 61.1782 176.058 62.5073 181.646 65.7318L181.639 65.7397Z" fill="#BDE0FE" stroke="black" stroke-width="2" stroke-miterlimit="10"/>
<path d="M277.045 120.973C286.786 126.612 286.535 131.771 279.266 136.002C271.511 140.508 264.689 136.324 258.049 140.186C251.392 144.048 254.532 147.964 261.361 151.912L283.725 164.865C287.414 166.996 287.43 170.457 283.764 172.596L199.601 221.553C195.935 223.692 189.961 223.684 186.264 221.553L101.63 172.549C98.1602 170.543 97.9404 167.358 100.97 165.211C101.167 165.077 101.371 164.944 101.59 164.818L127.172 149.938C132.479 146.855 137.746 145.07 142.981 146.289C144.441 146.627 145.901 147.201 147.361 148.043C154.049 151.912 146.843 155.868 154.646 160.374C156.648 161.53 158.767 162.388 160.996 162.899C166.891 164.259 173.501 163.221 180.534 159.132C190.236 153.493 189.93 148.342 182.614 144.11C180.793 143.057 179.027 142.475 177.308 142.16C175.337 141.798 173.43 141.775 171.562 141.767C169.709 141.767 167.888 141.79 166.098 141.523C164.505 141.287 162.927 140.823 161.349 139.911C154.669 136.041 157.77 132.133 164.552 128.185L185.754 115.861C185.95 115.743 186.154 115.641 186.366 115.538C190.063 113.73 195.597 113.84 199.082 115.861L223.754 130.151C230.583 134.099 237.326 135.916 243.974 132.046C250.623 128.185 243.378 124.229 251.133 119.722C258.41 115.491 267.288 115.334 277.037 120.973H277.045Z" fill="#EDF7FF" stroke="black" stroke-width="2" stroke-miterlimit="10"/>
<path d="M283.773 172.595L199.609 221.552C195.944 223.692 189.97 223.684 186.273 221.552L101.639 172.548C99.7782 171.471 98.852 170.063 98.8598 168.655L98.7656 200.711C98.7656 202.119 99.6919 203.527 101.544 204.604L186.179 253.608C189.876 255.748 195.842 255.748 199.515 253.608L283.679 204.651C285.5 203.59 286.418 202.198 286.418 200.814L286.512 168.758C286.512 170.15 285.594 171.534 283.773 172.595Z" fill="#EDF7FF" stroke="black" stroke-width="2" stroke-miterlimit="10"/>
</svg>
