<svg width="278" height="240" viewBox="0 0 278 240" fill="none" xmlns="http://www.w3.org/2000/svg">
<path d="M146.389 152.039L139.314 142.31L210.399 97.8897L217.473 107.617L146.389 152.039Z" fill="#88A4DF" stroke="black" stroke-width="2" stroke-miterlimit="10"/>
<path d="M206.823 97.0854C208.612 99.5454 210.401 102.006 212.19 104.466C210.4 102.005 208.61 99.544 206.819 97.0829C206.819 97.0829 206.821 97.0852 206.822 97.0863L206.823 97.0854Z" fill="#88A4DF" stroke="black" stroke-width="2" stroke-miterlimit="10"/>
<path d="M215.772 105.278C213.989 102.826 212.206 100.375 210.422 97.9238C212.537 100.833 215.358 104.711 217.475 107.619C216.908 106.838 216.34 106.059 215.772 105.278Z" fill="#88A4DF" stroke="black" stroke-width="2" stroke-miterlimit="10"/>
<path d="M212.116 100.254C213.902 102.709 215.687 105.163 217.473 107.616C217.191 107.354 216.877 107.164 216.525 107.031C216.525 107.031 216.524 107.03 216.522 107.03C216.17 106.898 215.781 106.825 215.345 106.793C212.986 103.549 210.627 100.308 208.269 97.0664C209.142 97.1304 209.833 97.3615 210.397 97.8882C210.97 98.6759 211.544 99.4648 212.117 100.252L212.116 100.254Z" fill="#88A4DF"/>
<path d="M216.525 107.031C216.877 107.164 217.191 107.354 217.473 107.616C215.687 105.163 213.902 102.709 212.116 100.254L212.117 100.252C211.544 99.4648 210.97 98.6759 210.397 97.8882C209.833 97.3615 209.142 97.1304 208.269 97.0664C210.627 100.308 212.986 103.549 215.345 106.793C215.781 106.825 216.17 106.898 216.522 107.03M216.525 107.031C214.17 103.792 211.813 100.554 209.457 97.315M216.525 107.031C216.525 107.031 216.524 107.03 216.522 107.03M216.522 107.03C214.176 103.804 211.829 100.577 209.482 97.3518" stroke="black" stroke-width="2" stroke-miterlimit="10"/>
<path d="M206.819 97.0845C207.353 97.0486 207.835 97.0377 208.272 97.0697C210.63 100.313 212.989 103.554 215.347 106.796C215.347 106.796 215.347 106.796 215.345 106.796C212.994 103.565 210.644 100.333 208.292 97.1009C209.622 98.9295 210.951 100.757 212.281 102.584C212.556 102.962 212.923 103.466 213.198 103.843C213.333 104.028 213.513 104.275 213.647 104.462C213.782 104.648 213.957 104.887 214.089 105.069C214.344 105.419 214.684 105.888 214.939 106.239C215.06 106.405 215.219 106.632 215.344 106.795C214.473 106.732 213.42 106.836 212.132 106.983C209.774 103.74 207.415 100.499 205.057 97.2569C205.7 97.1833 206.285 97.1204 206.819 97.0845C209.176 100.325 211.534 103.565 213.891 106.806C211.534 103.565 209.177 100.325 206.82 97.0837L206.819 97.0845Z" fill="#88A4DF"/>
<path d="M206.819 97.0845C207.353 97.0486 207.835 97.0377 208.272 97.0697C210.63 100.313 212.989 103.554 215.347 106.796C215.347 106.796 215.347 106.796 215.345 106.796C212.994 103.565 210.644 100.333 208.292 97.1009C209.622 98.9295 210.951 100.757 212.281 102.584C212.556 102.962 212.923 103.466 213.198 103.843C213.333 104.028 213.513 104.275 213.647 104.462C213.782 104.648 213.957 104.887 214.089 105.069C214.344 105.419 214.684 105.888 214.939 106.239C215.06 106.405 215.219 106.632 215.344 106.795C214.473 106.732 213.42 106.836 212.132 106.983C209.774 103.74 207.415 100.499 205.057 97.2569C205.7 97.1833 206.285 97.1204 206.819 97.0845ZM206.819 97.0845C209.176 100.325 211.534 103.565 213.891 106.806C211.534 103.565 209.177 100.325 206.82 97.0837L206.819 97.0845Z" stroke="black" stroke-width="2" stroke-miterlimit="10"/>
<path d="M142.048 154.753L146.389 152.039L217.473 107.617L142.048 154.753Z" fill="#88A4DF"/>
<path d="M142.051 154.753L134.975 145.027L139.316 142.311L146.392 152.039L142.051 154.753Z" fill="#88A4DF" stroke="black" stroke-width="2" stroke-miterlimit="10"/>
<path d="M246.477 57.5606C246.554 57.6082 246.629 57.6567 246.705 57.7043L253.781 67.4306C253.703 67.3838 253.628 67.3353 253.553 67.2869C251.194 64.0437 248.835 60.8026 246.477 57.5606Z" fill="#88A4DF" stroke="black" stroke-width="2" stroke-miterlimit="10"/>
<path d="M195.355 94.6166C197.969 98.0619 201.898 97.6166 205.056 97.2569C207.414 100.5 209.773 103.741 212.131 106.983C208.974 107.343 205.045 107.788 202.431 104.343C200.308 101.425 197.478 97.5345 195.355 94.6166Z" fill="#88A4DF" stroke="black" stroke-width="2" stroke-miterlimit="10"/>
<path d="M246.479 57.5603C246.511 57.5899 246.537 57.6413 246.563 57.6773C246.685 57.845 246.807 58.0115 246.929 58.1792C247.058 58.3559 247.186 58.5316 247.314 58.7092C249.394 61.5696 251.474 64.4281 253.554 67.2886C253.534 67.2768 253.515 67.2631 253.495 67.2513L246.419 57.5251C246.44 57.538 246.459 57.5506 246.478 57.5623L246.479 57.5603Z" fill="#88A4DF" stroke="black" stroke-width="2" stroke-miterlimit="10"/>
<path d="M243.024 54.7891C244.013 55.7938 245.146 56.7071 246.421 57.5256L253.254 66.8523C251.979 66.0338 251.089 65.5212 250.099 64.5154C247.977 61.5974 245.146 57.7071 243.024 54.7891Z" fill="#88A4DF" stroke="black" stroke-width="2" stroke-miterlimit="10"/>
<path d="M212.898 95.2817L205.822 85.5555L243.02 54.7891L250.095 64.5153L212.898 95.2817Z" fill="#88A4DF" stroke="black" stroke-width="2" stroke-miterlimit="10"/>
<path d="M248.445 62.5652L241.37 52.8389C241.867 53.5221 242.418 54.1714 243.022 54.7857L250.097 64.5119C249.492 63.8974 248.941 63.2481 248.445 62.5652Z" fill="#88A4DF" stroke="black" stroke-width="2" stroke-miterlimit="10"/>
<path d="M252.329 59.7319L245.254 50.0056C246.385 51.5598 247.875 52.8944 249.735 54.0261C249.795 54.0625 249.852 54.1015 249.907 54.1442C250.044 54.2497 250.161 54.3708 250.259 54.5048L257.335 64.231C257.238 64.0982 257.12 63.9759 256.983 63.8705C256.929 63.8288 256.871 63.7887 256.81 63.7523C254.952 62.6218 253.461 61.2871 252.329 59.7319Z" fill="#88A4DF" stroke="black" stroke-width="2" stroke-miterlimit="10"/>
<path d="M245.254 50.0032C243.63 47.7695 242.746 45.0824 242.578 41.8945C244.937 45.1377 247.296 48.3788 249.654 51.6208C249.822 54.8086 250.704 57.4966 252.33 59.7294C250.207 56.8114 247.376 52.9211 245.254 50.0032Z" fill="#88A4DF" stroke="black" stroke-width="2" stroke-miterlimit="10"/>
<path d="M242.578 41.8953C242.574 41.8244 243.109 42.5533 243.098 42.4846L249.63 51.4117C249.642 51.4804 249.649 51.5507 249.653 51.6215C247.295 48.3784 244.935 45.1373 242.578 41.8953Z" fill="#88A4DF" stroke="black" stroke-width="2" stroke-miterlimit="10"/>
<path d="M247.39 49.8812C248.517 49.7306 249.468 50.3898 249.632 51.411C249.644 51.4798 249.651 51.55 249.655 51.6209C249.939 57.0276 252.281 60.9952 256.811 63.7509C256.871 63.7873 256.928 63.8263 256.983 63.869C257.821 64.5157 257.923 65.7562 257.185 66.7381C256.729 67.3458 256.054 67.7201 255.37 67.812C254.877 67.8785 254.38 67.7958 253.963 67.5411C253.903 67.5047 253.844 67.4686 253.785 67.4313C253.688 67.3708 253.592 67.3106 253.497 67.2504C252.222 66.4319 251.089 65.5197 250.099 64.5139C247.061 61.4264 245.379 57.4666 245.084 52.6906C245.08 52.6197 245.076 52.5489 245.071 52.4769C245.008 51.2913 245.983 50.1404 247.249 49.9048C247.296 49.8956 247.343 49.8884 247.389 49.8821L247.39 49.8812Z" fill="#88A4DF" stroke="black" stroke-width="2" stroke-miterlimit="10"/>
<path d="M210.124 97.6084L203.048 87.8822C204.079 87.237 205.017 86.4512 205.824 85.5547L212.9 95.2809C212.092 96.1783 211.154 96.9641 210.124 97.6084Z" fill="#88A4DF" stroke="black" stroke-width="2" stroke-miterlimit="10"/>
<path d="M205.764 100.33L198.689 90.6013L203.046 87.8802L210.122 97.6064L205.764 100.33Z" fill="#88A4DF" stroke="black" stroke-width="2" stroke-miterlimit="10"/>
<path d="M199.239 91.7674C198.963 91.381 198.787 90.9973 198.691 90.5996L205.767 100.326C205.862 100.722 206.04 101.106 206.315 101.494C204.193 98.5756 201.348 94.6947 199.239 91.7674Z" fill="#88A4DF" stroke="black" stroke-width="2" stroke-miterlimit="10"/>
<path d="M198.668 90.5039C201.027 93.747 203.386 96.9881 205.744 100.23C205.75 100.265 205.757 100.297 205.766 100.33L198.691 90.6037C198.683 90.57 198.675 90.5364 198.668 90.5039Z" fill="#88A4DF" stroke="black" stroke-width="2" stroke-miterlimit="10"/>
<path d="M199.904 85.7261C200.957 83.36 202.237 80.4872 201.223 77.6484C203.581 80.8916 205.94 84.1327 208.298 87.3747C209.313 90.2134 208.033 93.0862 206.979 95.4523C206.065 97.5071 205.48 98.9379 205.744 100.229C203.385 96.9858 201.026 93.7447 198.668 90.5027C198.404 89.2117 198.989 87.7809 199.904 85.7261Z" fill="#88A4DF" stroke="black" stroke-width="2" stroke-miterlimit="10"/>
<path d="M201.22 77.6467C201.075 77.2405 200.883 76.8355 200.637 76.4336L207.712 86.1598C207.958 86.5626 208.151 86.9679 208.295 87.3729C207.116 85.7513 205.937 84.1298 204.757 82.5082C204.619 82.317 204.433 82.0615 204.293 81.8712C204.154 81.6809 203.971 81.4268 203.831 81.2364C203.38 80.6164 202.93 79.9964 202.48 79.3775C202.223 79.0263 201.883 78.5561 201.626 78.2049C201.504 78.0372 201.317 77.8295 201.221 77.6478L201.22 77.6467Z" fill="#88A4DF" stroke="black" stroke-width="2" stroke-miterlimit="10"/>
<path d="M202.431 104.344L195.356 94.6175C195.017 94.1425 194.752 93.6658 194.551 93.1912C193.241 90.1033 194.598 87.0559 195.718 84.5414C196.857 81.9795 197.46 80.4584 196.562 78.9844L203.638 88.7106C204.536 90.1846 203.934 91.706 202.793 94.2677C201.674 96.7821 200.317 99.8295 201.626 102.917C201.829 103.393 202.092 103.869 202.431 104.344Z" fill="#88A4DF" stroke="black" stroke-width="2" stroke-miterlimit="10"/>
<path d="M196.363 78.6758L203.439 88.402C203.509 88.4977 203.575 88.6001 203.637 88.7111L196.562 78.9849C196.499 78.8759 196.432 78.7724 196.363 78.6758Z" fill="#88A4DF" stroke="black" stroke-width="2" stroke-miterlimit="10"/>
<path d="M195.246 77.7594C195.694 77.9703 196.061 78.2625 196.361 78.6744L203.437 88.4006C203.137 87.9887 202.769 87.6965 202.322 87.4856C199.963 84.2425 197.604 81.0014 195.246 77.7594Z" fill="#88A4DF" stroke="black" stroke-width="2" stroke-miterlimit="10"/>
<path d="M191.351 77.1476C193.061 77.2355 194.323 77.3276 195.245 77.7619C197.603 81.005 199.962 84.2461 202.32 87.4881C201.399 87.0538 200.137 86.9617 198.427 86.8738C196.225 86.7621 193.643 86.6296 191.657 85.1584C189.298 81.9153 186.939 78.6742 184.581 75.4322C186.567 76.9033 189.15 77.035 191.351 77.1476Z" fill="#88A4DF" stroke="black" stroke-width="2" stroke-miterlimit="10"/>
<path d="M184.583 75.4318C184.629 75.4775 184.673 75.5555 184.712 75.6085C187.029 78.7921 189.343 81.9755 191.66 85.1591C191.159 84.7874 190.696 84.332 190.287 83.7683L183.211 74.0421C183.62 74.6057 184.083 75.0612 184.584 75.4329L184.583 75.4318Z" fill="#88A4DF" stroke="black" stroke-width="2" stroke-miterlimit="10"/>
<path d="M200.637 76.4332C200.508 76.2064 200.371 75.994 200.227 75.7949L207.302 85.5211C207.447 85.7203 207.584 85.9318 207.713 86.1594C205.59 83.2415 202.595 79.4634 200.637 76.4332Z" fill="#88A4DF" stroke="black" stroke-width="2" stroke-miterlimit="10"/>
<path d="M194.17 80.924L187.094 71.1977C188.036 72.4919 189.667 72.644 192.264 72.7774C194.954 72.9157 198.257 73.0845 200.229 75.7954L207.305 85.5216C205.333 82.8107 202.03 82.6419 199.34 82.5037C196.742 82.3711 195.111 82.2181 194.17 80.924Z" fill="#88A4DF" stroke="black" stroke-width="2" stroke-miterlimit="10"/>
<path d="M187.092 71.1964C186.972 71.0321 186.864 70.8488 186.766 70.6445L193.841 80.3708C193.939 80.5751 194.047 80.7572 194.167 80.9226C192.045 78.0047 189.214 74.1144 187.092 71.1964Z" fill="#88A4DF" stroke="black" stroke-width="2" stroke-miterlimit="10"/>
<path d="M186.664 70.3965C189.023 73.6396 191.382 76.8807 193.74 80.1227C193.771 80.2052 193.804 80.288 193.842 80.3724L186.766 70.6462C186.729 70.5629 186.695 70.479 186.664 70.3965Z" fill="#88A4DF" stroke="black" stroke-width="2" stroke-miterlimit="10"/>
<path d="M198.193 65.8672L191.117 56.1409L238.002 42.9615L245.077 52.6877L198.193 65.8672Z" fill="#88A4DF" stroke="black" stroke-width="2" stroke-miterlimit="10"/>
<path d="M245.079 52.6897C245.075 52.6188 245.071 52.5479 245.066 52.4759C245.002 51.2904 245.978 50.1395 247.244 49.9038C247.291 49.8946 247.338 49.8874 247.383 49.8811C248.188 49.7733 248.901 50.0776 249.305 50.6325L242.229 40.9063C241.826 40.3526 241.112 40.0471 240.307 40.1549C240.262 40.1612 240.214 40.1693 240.168 40.1776C238.902 40.4133 237.926 41.5642 237.99 42.7497C237.994 42.8206 237.998 42.8914 238.003 42.9634C238.24 46.788 241.88 50.4357 243.88 53.186L248.442 62.5662C246.442 59.817 245.316 56.5154 245.079 52.6897Z" fill="#88A4DF" stroke="black" stroke-width="2" stroke-miterlimit="10"/>
<path d="M184.569 61.3533C185.786 58.3958 187.475 52.0039 190.863 55.8716L198.195 65.8666C198.953 69.1645 197.083 72.0445 195.575 74.367C193.979 76.8208 193.083 78.3418 193.738 80.1187C191.379 76.8756 189.02 73.6345 186.662 70.3925C186.007 68.6156 184.684 64.5751 184.569 61.3533Z" fill="#88A4DF" stroke="black" stroke-width="2" stroke-miterlimit="10"/>
<path d="M78.9029 194.217L71.8284 184.49L65.5312 173.82L72.6069 183.547L78.9029 194.217Z" fill="#88A4DF" stroke="black" stroke-width="2" stroke-miterlimit="10"/>
<path d="M72.6075 183.546L65.5318 173.82L194.551 93.1895L201.627 102.917L72.6075 183.546Z" fill="#88A4DF" stroke="black" stroke-width="2" stroke-miterlimit="10"/>
<path d="M190.286 83.7718L183.21 74.0456C182.958 73.7 182.727 73.3133 182.52 72.8828L189.595 82.609C189.802 83.0395 190.034 83.4262 190.286 83.7718Z" fill="#88A4DF" stroke="black" stroke-width="2" stroke-miterlimit="10"/>
<path d="M192.245 67.0317L54.7737 152.982L48.5697 144.385L186.348 58.923L192.245 67.0317Z" fill="#88A4DF" stroke="black" stroke-width="2"/>
<path d="M78.903 194.216L71.8274 184.489L47.7109 144.389L54.7875 154.116L78.903 194.216Z" fill="#88A4DF" stroke="black" stroke-width="2" stroke-miterlimit="10"/>
<path d="M45.6709 159.812L38.5943 150.084L47.7096 144.389L54.7853 154.115L45.6709 159.812Z" fill="#88A4DF"/>
<path d="M195.938 64.3375C196.975 64.1986 197.911 64.7388 198.157 65.7003C198.171 65.755 198.184 65.8098 198.197 65.8645C198.957 69.1635 197.086 72.0435 195.578 74.3649C193.908 76.9335 193.004 78.4801 193.842 80.3683C194.711 82.175 196.411 82.3502 199.339 82.4979C202.226 82.6465 205.821 82.8306 207.716 86.1564C209.684 89.3775 208.185 92.7439 206.981 95.4482C206.042 97.556 205.451 99.0084 205.767 100.326C205.862 100.722 206.04 101.106 206.316 101.493C207.526 103.087 209.274 102.973 212.259 102.634C214.865 102.338 218.077 101.973 220.541 103.946C220.627 104.016 220.713 104.087 220.798 104.163C220.839 104.2 220.88 104.236 220.92 104.274C221.758 105.056 221.665 106.437 220.713 107.358C220.273 107.784 219.726 108.039 219.184 108.11C218.552 108.195 217.925 108.034 217.475 107.614C216.346 106.56 214.708 106.685 212.132 106.979C208.974 107.339 205.045 107.784 202.431 104.339C202.092 103.864 201.828 103.387 201.626 102.913C200.317 99.8247 201.674 96.7772 202.793 94.2628C203.932 91.7009 204.536 90.1797 203.638 88.7057C202.756 87.1603 201.166 87.0085 198.43 86.8683C195.332 86.7108 191.478 86.5135 189.596 82.6013C187.808 78.5789 190.005 75.1948 191.771 72.4776C193.213 70.2586 194.074 68.8239 193.688 67.306C193.4 66.1831 194.168 64.9106 195.401 64.4678C195.58 64.4034 195.76 64.3604 195.936 64.3372L195.938 64.3375Z" fill="#88A4DF" stroke="black" stroke-width="2" stroke-miterlimit="10"/>
<path d="M253.494 67.2504C253.589 67.3107 253.684 67.3709 253.781 67.4314L220.796 104.167C220.711 104.092 220.625 104.019 220.538 103.949L253.492 67.2502L253.494 67.2504Z" fill="#88A4DF"/>
<path d="M63.8204 203.639L69.4566 200.118L63.9489 203.56L63.8204 203.639Z" fill="#88A4DF" stroke="black" stroke-width="2" stroke-miterlimit="10"/>
<path d="M63.8258 203.638L56.7501 193.912L62.3854 190.39L69.4619 200.118L63.8258 203.638Z" fill="#88A4DF" stroke="black" stroke-width="2" stroke-miterlimit="10"/>
<path d="M63.6182 203.766L56.5436 194.039L56.7444 193.913L63.8201 203.639L63.6182 203.766Z" fill="#88A4DF" stroke="black" stroke-width="2" stroke-miterlimit="10"/>
<path d="M47.2902 213.973L40.2145 204.246L56.5456 194.04L63.6202 203.768L47.2902 213.973Z" fill="#88A4DF" stroke="black" stroke-width="2" stroke-miterlimit="10"/>
<path d="M33.1403 206.833C35.5241 206.514 37.9495 205.661 40.2173 204.245L47.293 213.971C45.0252 215.387 42.6007 216.241 40.216 216.559C36.7681 217.02 33.402 216.369 30.7041 214.698C28.3454 211.454 25.9863 208.213 23.6284 204.971C26.3274 206.642 29.6933 207.295 33.1403 206.833Z" fill="#88A4DF" stroke="black" stroke-width="2" stroke-miterlimit="10"/>
<path d="M63.9515 203.56L56.8758 193.834L33.0898 153.527L40.1655 163.254L63.9515 203.56Z" fill="#88A4DF" stroke="black" stroke-width="2" stroke-miterlimit="10"/>
<path d="M63.6208 203.764L56.5451 194.038L50.25 183.369L57.3257 193.095L63.6208 203.764Z" fill="#88A4DF" stroke="black" stroke-width="2" stroke-miterlimit="10"/>
<path d="M20.2474 201.844C21.1732 203.117 22.3221 204.163 23.6272 204.971C25.986 208.214 28.345 211.456 30.7029 214.697C29.3978 213.889 28.2488 212.844 27.3231 211.57C25.2005 208.652 22.37 204.762 20.2474 201.844Z" fill="#88A4DF" stroke="black" stroke-width="2" stroke-miterlimit="10"/>
<path d="M40.2097 216.561C34.6954 217.298 29.3911 215.187 26.6927 210.615C29.3902 215.185 34.6977 217.297 40.2131 216.558C42.5969 216.239 45.0222 215.386 47.2901 213.97C45.0208 215.389 42.5955 216.242 40.2097 216.561Z" fill="#88A4DF" stroke="black" stroke-width="2" stroke-miterlimit="10"/>
<path d="M21.0285 200.903L13.9529 191.177C16.7944 195.084 21.7288 196.849 26.8405 196.166C29.2274 195.846 31.6508 194.993 33.9209 193.575L40.9966 203.301C38.7265 204.719 36.3031 205.572 33.9162 205.892C28.8044 206.576 23.8701 204.81 21.0285 200.903Z" fill="#88A4DF" stroke="black" stroke-width="2" stroke-miterlimit="10"/>
<path d="M40.9933 203.305L33.9176 193.579L50.2488 183.372L57.3245 193.099L40.9933 203.305Z" fill="#88A4DF" stroke="black" stroke-width="2" stroke-miterlimit="10"/>
<path d="M26.6968 210.616L19.6202 200.889L13.3242 190.219L20.3999 199.945L26.6968 210.616Z" fill="#88A4DF" stroke="black" stroke-width="2" stroke-miterlimit="10"/>
<path d="M13.9533 191.178C13.73 190.872 13.5196 190.552 13.3242 190.219L20.3999 199.945C20.5964 200.277 20.8068 200.597 21.029 200.904C18.9064 197.986 16.0759 194.096 13.9533 191.178Z" fill="#88A4DF" stroke="black" stroke-width="2" stroke-miterlimit="10"/>
<path d="M19.6996 198.758L12.623 189.03L9.82422 184.289L16.8999 194.015L19.6996 198.758Z" fill="#88A4DF"/>
<path d="M19.703 198.76L12.6274 189.034C8.76199 182.485 11.7172 173.375 19.2314 168.678L26.3071 178.404C18.7929 183.101 15.8368 192.21 19.703 198.76Z" fill="#88A4DF"/>
<path d="M26.303 178.403L19.2273 168.677L35.5574 158.472L42.6339 168.199L26.303 178.403Z" fill="#88A4DF"/>
<path d="M42.637 168.199L35.5605 158.472L32.7617 153.73L39.8374 163.457L42.637 168.199Z" fill="#88A4DF"/>
<path d="M23.5062 173.663L16.4305 163.937L32.7605 153.732L39.8362 163.458L23.5062 173.663Z" fill="#88A4DF"/>
<path d="M47.2894 213.973L63.6205 203.766L63.8213 203.641" stroke="black" stroke-width="2" stroke-miterlimit="10"/>
<path d="M206.604 101.805C207.814 103.399 209.274 102.975 212.26 102.636C214.866 102.34 218.077 101.975 220.541 103.947C220.628 104.018 220.713 104.089 220.798 104.164C220.84 104.201 220.881 104.238 220.921 104.276C221.005 104.355 221.081 104.441 221.146 104.531L220.64 103.835L253.494 67.2473C253.494 67.2473 251.286 66.1042 249.017 63.1602C246.748 60.2161 246.065 57.9146 246.065 57.9146C245.525 56.2995 244.94 54.8648 244.824 52.9956L198.197 65.867C198.955 69.1649 197.085 72.0449 195.577 74.3675C193.907 76.936 193.003 78.4815 193.842 80.3688C194.71 82.1744 196.41 82.3496 199.338 82.4993C202.224 82.6478 205.819 82.832 207.715 86.1578C209.053 88.3483 208.787 90.6054 208.102 92.6766C207.338 94.5613 204.283 99.2624 206.604 101.805Z" fill="#88A4DF" stroke="black" stroke-width="2" stroke-miterlimit="10"/>
<path d="M259.319 39.3541C258.611 38.3817 257.378 37.7888 255.865 37.9914C255.641 38.0215 255.412 38.0683 255.176 38.1346L242.665 41.4367L249.631 51.409L262.251 47.8608C262.486 47.7954 262.716 47.7478 262.941 47.7176C264.454 47.515 265.688 48.107 266.395 49.0803L259.319 39.3541Z" fill="#88A4DF" stroke="black" stroke-width="2" stroke-miterlimit="10"/>
<path d="M262.939 47.7184C266.46 47.2466 268.464 51.0789 265.86 53.9791L256.98 63.8677C256.927 63.8261 256.869 63.786 256.808 63.7496C252.278 60.9939 249.936 57.0272 249.652 51.6196C249.648 51.5488 249.641 51.4785 249.63 51.4097L262.25 47.8615C262.484 47.7961 262.715 47.7485 262.939 47.7184Z" fill="#88A4DF" stroke="black" stroke-width="2" stroke-miterlimit="10"/>
<path d="M27.3244 211.568L20.2487 201.842C20.0262 201.537 19.8167 201.218 19.6211 200.887L26.6968 210.613C26.8924 210.944 27.1019 211.263 27.3244 211.568Z" fill="#88A4DF" stroke="black" stroke-width="2" stroke-miterlimit="10"/>
<path d="M27.3241 211.57L20.2484 201.844C20.0251 201.537 19.8156 201.219 19.6211 200.887L26.6968 210.613C26.8933 210.945 27.1028 211.264 27.3241 211.57Z" fill="#88A4DF" stroke="black" stroke-width="2" stroke-miterlimit="10"/>
<path d="M186.136 58.2508C185.848 57.1268 187.09 55.1865 188.324 54.744C188.503 54.6804 188.683 54.6375 188.859 54.6134C189.648 54.5087 190.38 54.7951 190.792 55.3632L197.868 65.0895C197.455 64.5213 196.725 64.2341 195.935 64.3397C195.759 64.3628 195.58 64.4058 195.4 64.4702C194.167 64.913 193.399 66.1856 193.687 67.3084C194.073 68.8263 193.212 70.2611 191.771 72.4801C190.004 75.1972 187.807 78.5814 189.595 82.6038" stroke="black" stroke-width="2" stroke-miterlimit="10"/>
<path d="M16.8983 194.018L9.82258 184.292C9.80591 184.263 9.78924 184.235 9.77344 184.207L16.8491 193.933C16.8658 193.962 16.8825 193.991 16.8983 194.018Z" fill="#88A4DF"/>
<path d="M55.0832 154.152L47.8959 144.453L38.7107 149.996L33.205 153.438L40.2807 163.164L64.0667 203.471L69.5732 200.03L77.9239 195.029" fill="#88A4DF"/>
<path d="M55.0832 154.152L47.8959 144.453L38.7107 149.996L33.205 153.438L40.2807 163.164L64.0667 203.471L69.5732 200.03L77.9239 195.029" stroke="black" stroke-width="2" stroke-miterlimit="10"/>
<path d="M16.8999 194.019L9.82422 184.293L19.6177 200.89L26.6943 210.617L16.8999 194.019Z" fill="#88A4DF" stroke="black" stroke-width="2" stroke-miterlimit="10"/>
<path d="M16.3698 193.016C16.2066 192.655 16.1621 192.55 16.1187 192.444C15.4774 190.84 15.1913 189.223 15.2007 187.584C15.2115 185.815 15.5674 184.02 16.2384 182.293C16.2733 182.205 16.3051 182.124 16.3378 182.045C16.4135 181.862 16.4457 181.787 16.4776 181.714C16.5498 181.55 16.5684 181.508 16.5859 181.468C16.9765 180.663 16.9938 180.632 17.0091 180.6C17.1021 180.425 17.1196 180.392 17.1369 180.361C17.161 180.317 17.1769 180.288 17.1931 180.258C17.2872 180.09 17.3068 180.056 17.3266 180.021C17.3543 179.973 17.3714 179.943 17.3896 179.913C17.4419 179.824 17.4835 179.754 17.5264 179.683C17.556 179.635 17.5768 179.601 17.5975 179.567C17.6221 179.526 17.6451 179.491 17.6672 179.454C17.6904 179.416 17.7131 179.382 17.7339 179.348C17.7874 179.265 17.8322 179.195 17.879 179.124C17.9589 179.003 18.0308 178.897 18.1034 178.793C18.1585 178.714 18.2084 178.643 18.2584 178.572C18.3381 178.46 18.4162 178.353 18.496 178.248C18.5525 178.174 18.6057 178.102 18.6605 178.033C18.7437 177.926 18.8267 177.82 18.9117 177.715C19.0535 177.541 19.1993 177.367 19.3478 177.196C19.4974 177.025 19.6496 176.857 19.8067 176.691C19.9638 176.525 20.1246 176.361 20.2872 176.2C20.3877 176.101 20.4877 176.006 20.5877 175.911C20.6549 175.848 20.721 175.786 20.7891 175.725C20.8609 175.658 20.9298 175.598 20.9979 175.537C21.0347 175.505 21.068 175.475 21.1003 175.447C21.1749 175.382 21.2428 175.323 21.3124 175.265C21.3924 175.198 21.4611 175.14 21.5307 175.083C21.5717 175.049 21.6048 175.022 21.6379 174.995C21.7143 174.932 21.7848 174.876 21.8561 174.821C21.9059 174.783 21.9376 174.758 21.9693 174.734C22.0135 174.7 22.0486 174.673 22.0837 174.646C22.129 174.611 22.1584 174.588 22.1879 174.565C22.2793 174.497 22.3502 174.446 22.4201 174.394C22.4742 174.354 22.5079 174.329 22.5405 174.306C22.5833 174.275 22.6212 174.249 22.6572 174.223C22.7043 174.191 22.7346 174.169 22.7649 174.148C22.8623 174.08 22.9338 174.032 23.0063 173.983C23.061 173.946 23.0911 173.927 23.1223 173.907C23.1801 173.869 23.2158 173.845 23.2516 173.821C23.3037 173.788 23.3338 173.769 23.3627 173.75C23.4282 173.709 23.4659 173.685 23.5025 173.662L39.8325 163.457L40.163 163.251L33.0873 153.525L32.7569 153.731L16.4257 163.937C16.3891 163.96 16.3514 163.983 16.2859 164.025C16.257 164.043 16.2269 164.063 16.1747 164.096C16.139 164.12 16.1024 164.143 16.0455 164.181C16.0143 164.202 15.9842 164.221 15.9295 164.258C15.857 164.307 15.7844 164.355 15.6881 164.422C15.6578 164.444 15.6266 164.464 15.5804 164.498C15.5433 164.525 15.5064 164.55 15.4637 164.581C15.4311 164.604 15.3974 164.628 15.3433 164.668C15.2725 164.719 15.2025 164.771 15.1111 164.84C15.0816 164.863 15.0522 164.885 15.0069 164.92C14.9718 164.947 14.9367 164.974 14.8925 165.008C14.8608 165.033 14.828 165.058 14.7793 165.096C14.708 165.151 14.6386 165.206 14.5611 165.269C14.5271 165.295 14.494 165.323 14.4539 165.357C14.3843 165.415 14.3147 165.472 14.2355 165.54C14.1668 165.598 14.0981 165.657 14.0235 165.722C13.9912 165.75 13.9579 165.779 13.9211 165.811C13.8533 165.871 13.7852 165.932 13.7123 165.999C13.6442 166.061 13.5781 166.123 13.5108 166.185C13.41 166.279 13.3109 166.375 13.2104 166.475C13.0469 166.635 12.8881 166.799 12.7299 166.966C12.5728 167.132 12.4206 167.3 12.271 167.471C12.1225 167.641 11.9758 167.814 11.8349 167.99C11.7499 168.095 11.6669 168.2 11.5837 168.308C11.5297 168.378 11.4757 168.449 11.4192 168.523C11.3403 168.629 11.2625 168.734 11.1816 168.847C11.1316 168.918 11.0816 168.989 11.0266 169.067C10.9528 169.173 10.8821 169.278 10.8022 169.399C10.7565 169.469 10.7106 169.54 10.657 169.623C10.6355 169.656 10.6136 169.691 10.5904 169.728C10.5683 169.765 10.5442 169.802 10.5207 169.842C10.5 169.876 10.4792 169.91 10.4496 169.958C10.4067 170.029 10.3651 170.099 10.3128 170.188C10.2946 170.218 10.2775 170.248 10.2498 170.296C10.23 170.331 10.2104 170.364 10.1162 170.532C10.1001 170.563 10.083 170.592 10.0601 170.635C10.0417 170.668 10.0252 170.7 9.9323 170.875C9.91499 170.906 9.89855 170.938 9.50906 171.742C9.49158 171.783 9.47209 171.823 9.40077 171.988C9.36859 172.063 9.33666 172.137 9.261 172.32C9.2283 172.399 9.19647 172.48 9.1616 172.568C8.49057 174.294 8.13383 176.089 8.12389 177.858C8.11453 179.497 8.40055 181.114 9.04184 182.719C9.08526 182.825 9.12956 182.931 9.29299 183.291C9.32504 183.358 9.35709 183.425 9.77343 184.209L16.8491 193.935C16.4328 193.152 16.4007 193.084 16.3687 193.017L16.3698 193.016Z" fill="#88A4DF" stroke="black" stroke-width="2" stroke-miterlimit="10"/>
<path d="M63.9514 203.56L40.1654 163.253L39.835 163.459L23.505 173.664C23.4684 173.687 23.4307 173.711 23.3652 173.752C23.3362 173.771 23.3062 173.791 23.254 173.824C23.2183 173.848 23.1817 173.87 23.1247 173.909C23.0935 173.929 23.0635 173.949 23.0088 173.986C22.9362 174.034 22.8637 174.083 22.7673 174.15C22.737 174.172 22.7058 174.192 22.6597 174.226C22.6225 174.253 22.5857 174.277 22.5429 174.308C22.5103 174.332 22.4766 174.356 22.4225 174.396C22.3517 174.447 22.2818 174.499 22.1903 174.568C22.1609 174.59 22.1314 174.613 22.0861 174.648C22.051 174.675 22.0159 174.702 21.9718 174.736C21.9401 174.76 21.9072 174.786 21.8585 174.823C21.7872 174.878 21.7179 174.934 21.6404 174.997C21.6064 175.023 21.5733 175.05 21.5331 175.085C21.4636 175.142 21.394 175.199 21.3148 175.268C21.2461 175.326 21.1773 175.384 21.1027 175.449C21.0705 175.478 21.0371 175.507 21.0004 175.539C20.9325 175.598 20.8644 175.66 20.7915 175.727C20.7234 175.788 20.6573 175.85 20.5901 175.913C20.4892 176.007 20.3901 176.103 20.2896 176.202C20.1262 176.362 19.9673 176.526 19.8091 176.693C19.652 176.86 19.4998 177.027 19.3502 177.199C19.2018 177.369 19.0551 177.542 18.9141 177.717C18.8291 177.822 18.7462 177.928 18.6629 178.035C18.609 178.106 18.555 178.176 18.4985 178.25C18.4195 178.356 18.3417 178.462 18.2608 178.574C18.2109 178.645 18.1609 178.716 18.1059 178.795C18.0321 178.901 17.9614 179.006 17.8815 179.127C17.8358 179.196 17.7898 179.268 17.7363 179.351C17.7147 179.383 17.6929 179.418 17.6696 179.456C17.6466 179.492 17.6234 179.53 17.5999 179.569C17.5792 179.603 17.5585 179.637 17.5288 179.686C17.486 179.756 17.4443 179.826 17.392 179.916C17.3738 179.946 17.3568 179.975 17.3291 180.024C17.3092 180.059 17.2897 180.092 17.1955 180.26C17.1793 180.291 17.1623 180.32 17.1394 180.363C17.1209 180.395 17.1045 180.428 17.0116 180.602C16.9942 180.634 16.9778 180.666 16.5883 181.47C16.5708 181.51 16.5525 181.55 16.48 181.716C16.4478 181.791 16.4159 181.864 16.3403 182.047C16.3076 182.127 16.2757 182.207 16.2409 182.295C15.5698 184.022 15.2131 185.817 15.2031 187.586C15.1938 189.225 15.4798 190.842 16.1211 192.447C16.1645 192.552 16.2088 192.659 16.3722 193.018C16.4043 193.086 16.4363 193.153 16.8527 193.937C16.8693 193.966 16.886 193.994 16.9018 194.022L19.6989 198.761C19.6989 198.761 19.6997 198.762 19.7006 198.763L16.903 194.021L26.6964 210.618L20.4004 199.948L20.4022 199.95L26.6964 210.618C29.394 215.188 34.7015 217.299 40.2169 216.561C42.6006 216.241 45.026 215.388 47.2938 213.973L63.625 203.767L63.9554 203.561L63.9514 203.56Z" fill="#88A4DF"/>
<path d="M26.6964 210.618L16.903 194.021L19.7006 198.763C19.6997 198.762 19.6989 198.761 19.6989 198.761L16.9018 194.022C16.886 193.994 16.8693 193.966 16.8527 193.937C16.4363 193.153 16.4043 193.086 16.3722 193.018C16.2088 192.659 16.1645 192.552 16.1211 192.447C15.4798 190.842 15.1938 189.225 15.2031 187.586C15.2131 185.817 15.5698 184.022 16.2409 182.295C16.2757 182.207 16.3076 182.127 16.3403 182.047C16.4159 181.864 16.4478 181.791 16.48 181.716C16.5525 181.55 16.5708 181.51 16.5883 181.47C16.9778 180.666 16.9942 180.634 17.0116 180.602C17.1045 180.428 17.1209 180.395 17.1394 180.363C17.1623 180.32 17.1793 180.291 17.1955 180.26C17.2897 180.092 17.3092 180.059 17.3291 180.024C17.3568 179.975 17.3738 179.946 17.392 179.916C17.4443 179.826 17.486 179.756 17.5288 179.686C17.5585 179.637 17.5792 179.603 17.5999 179.569C17.6234 179.53 17.6466 179.492 17.6696 179.456C17.6929 179.418 17.7147 179.383 17.7363 179.351C17.7898 179.268 17.8358 179.196 17.8815 179.127C17.9614 179.006 18.0321 178.901 18.1059 178.795C18.1609 178.716 18.2109 178.645 18.2608 178.574C18.3417 178.462 18.4195 178.356 18.4985 178.25C18.555 178.176 18.609 178.106 18.6629 178.035C18.7462 177.928 18.8291 177.822 18.9141 177.717C19.0551 177.542 19.2018 177.369 19.3502 177.199C19.4998 177.027 19.652 176.86 19.8091 176.693C19.9673 176.526 20.1262 176.362 20.2896 176.202C20.3901 176.103 20.4892 176.007 20.5901 175.913C20.6573 175.85 20.7234 175.788 20.7915 175.727C20.8644 175.66 20.9325 175.598 21.0004 175.539C21.0371 175.507 21.0705 175.478 21.1027 175.449C21.1773 175.384 21.2461 175.326 21.3148 175.268C21.394 175.199 21.4636 175.142 21.5331 175.085C21.5733 175.05 21.6064 175.023 21.6404 174.997C21.7179 174.934 21.7872 174.878 21.8585 174.823C21.9072 174.786 21.9401 174.76 21.9718 174.736C22.0159 174.702 22.051 174.675 22.0861 174.648C22.1314 174.613 22.1609 174.59 22.1903 174.568C22.2818 174.499 22.3517 174.447 22.4225 174.396C22.4766 174.356 22.5103 174.332 22.5429 174.308C22.5857 174.277 22.6225 174.253 22.6597 174.226C22.7058 174.192 22.737 174.172 22.7673 174.15C22.8637 174.083 22.9362 174.034 23.0088 173.986C23.0635 173.949 23.0935 173.929 23.1247 173.909C23.1817 173.87 23.2183 173.848 23.254 173.824C23.3062 173.791 23.3362 173.771 23.3652 173.752C23.4307 173.711 23.4684 173.687 23.505 173.664L39.835 163.459L40.1654 163.253L63.9514 203.56L63.9554 203.561L63.625 203.767L47.2938 213.973C45.026 215.388 42.6006 216.241 40.2169 216.561C34.7015 217.299 29.394 215.188 26.6964 210.618ZM26.6964 210.618L20.4004 199.948L20.4022 199.95L26.6964 210.618Z" stroke="black" stroke-width="2" stroke-miterlimit="10"/>
<path d="M54.8997 154.031L77.9213 195.03L139.962 156.261L141.91 155.042L146.253 152.327L217.336 107.907C216.208 106.853 214.571 106.979 211.993 107.273C208.836 107.632 204.907 108.078 202.293 104.632C201.954 104.157 201.689 103.681 201.488 103.206L201.235 102.337L201.487 103.207C200.177 100.119 201.535 97.0706 202.654 94.557C203.793 91.9962 204.397 90.473 203.498 88.9999C202.616 87.4545 201.026 87.3027 198.29 87.1625C195.192 87.005 191.339 86.8068 189.457 82.8966C187.67 78.8722 189.866 75.4901 191.633 72.773C193.074 70.5539 192.853 68.872 192.466 67.3542L38.8226 164.076L54.8997 154.031Z" fill="#88A4DF" stroke="black" stroke-width="2" stroke-miterlimit="10"/>
</svg>
