<svg width="180" height="279" viewBox="0 0 180 279" fill="none" xmlns="http://www.w3.org/2000/svg">
<path d="M121.586 239L135.167 246.39C134.184 245.853 133.022 245.627 131.776 245.806L118.195 238.416C119.441 238.244 120.603 238.47 121.586 239Z" fill="#5190F5" stroke="black" stroke-width="2" stroke-miterlimit="10"/>
<path d="M61.237 255.715L47.6562 248.326L118.194 238.41L131.775 245.799L61.237 255.715Z" fill="#5190F5" stroke="black" stroke-width="2" stroke-miterlimit="10"/>
<path d="M131.774 245.8C135.278 245.305 138.138 247.999 138.126 251.771L138.108 260.358C138.108 264.136 135.23 267.628 131.726 268.122L61.1884 278.038C57.6844 278.533 54.8241 275.84 54.836 272.067L54.8539 263.48C54.8598 259.702 57.7321 256.21 61.236 255.716L131.774 245.8Z" fill="#5190F5" stroke="black" stroke-width="2" stroke-miterlimit="10"/>
<path d="M54.8425 272.067L54.8603 263.48C54.8663 259.702 57.7386 256.21 61.2425 255.715L47.6618 248.326C44.1578 248.821 41.2856 252.313 41.2796 256.091L41.2617 264.678C41.2617 267.115 42.4416 269.094 44.2234 270.065L57.8041 277.454C56.0224 276.483 54.8365 274.504 54.8425 272.067Z" fill="#5190F5" stroke="black" stroke-width="2" stroke-miterlimit="10"/>
<path d="M121.625 216.666L135.206 224.055C134.223 223.518 133.061 223.292 131.815 223.471L118.234 216.082C119.48 215.909 120.642 216.135 121.625 216.666Z" fill="#5190F5" stroke="black" stroke-width="2" stroke-miterlimit="10"/>
<path d="M61.28 233.387L47.6992 225.998L118.237 216.082L131.818 223.471L61.28 233.387Z" fill="#5190F5" stroke="black" stroke-width="2" stroke-miterlimit="10"/>
<path d="M131.817 223.471C135.321 222.976 138.181 225.67 138.169 229.448L138.151 238.029C138.151 241.813 135.273 245.305 131.769 245.799L61.2313 255.715C57.7274 256.21 54.867 253.516 54.8789 249.738L54.8968 241.157C54.9028 237.373 57.7751 233.881 61.279 233.387L131.817 223.471Z" fill="#5190F5" stroke="black" stroke-width="2" stroke-miterlimit="10"/>
<path d="M54.8854 249.739L54.9033 241.158C54.9093 237.374 57.7815 233.882 61.2855 233.387L47.7047 225.998C44.2008 226.493 41.3285 229.985 41.3226 233.769L41.3047 242.35C41.3047 244.787 42.4846 246.771 44.2723 247.743L57.8531 255.132C56.0713 254.161 54.8854 252.176 54.8854 249.739Z" fill="#5190F5" stroke="black" stroke-width="2" stroke-miterlimit="10"/>
<path d="M121.668 194.343L135.249 201.733C134.266 201.196 133.104 200.97 131.858 201.149L118.277 193.759C119.523 193.586 120.685 193.813 121.668 194.343Z" fill="#5190F5" stroke="black" stroke-width="2" stroke-miterlimit="10"/>
<path d="M131.3 201.226L117.719 193.836L118.279 193.759L131.86 201.148L131.3 201.226Z" fill="#5190F5" stroke="black" stroke-width="2" stroke-miterlimit="10"/>
<path d="M61.8875 210.981L48.3008 203.592L117.718 193.837L131.299 201.226L61.8875 210.981Z" fill="#5190F5" stroke="black" stroke-width="2" stroke-miterlimit="10"/>
<path d="M61.319 211.059L47.7383 203.669L48.2984 203.592L61.8851 210.981L61.319 211.059Z" fill="#5190F5" stroke="black" stroke-width="2" stroke-miterlimit="10"/>
<path d="M131.86 201.148C135.364 200.654 138.224 203.347 138.212 207.119L138.194 215.706C138.194 219.485 135.316 222.977 131.812 223.471L61.2743 233.387C57.7704 233.882 54.91 231.188 54.9219 227.416L54.9398 218.829C54.9457 215.051 57.818 211.559 61.322 211.064L61.8821 210.987L131.299 201.232L131.86 201.154V201.148Z" fill="#5190F5" stroke="black" stroke-width="2" stroke-miterlimit="10"/>
<path d="M54.9284 227.41L54.9463 218.823C54.9522 215.045 57.8245 211.553 61.3285 211.058L47.7477 203.669C44.2438 204.164 41.3715 207.656 41.3655 211.434L41.3477 220.021C41.3477 222.458 42.5276 224.436 44.3093 225.408L57.8901 232.797C56.1083 231.826 54.9224 229.847 54.9284 227.41Z" fill="#5190F5" stroke="black" stroke-width="2" stroke-miterlimit="10"/>
<path d="M127.675 8.93821C114.893 1.98396 99.7033 -0.92407 83.3933 1.36422C83.006 1.41785 82.6126 1.47744 82.2253 1.53703C37.127 8.53895 0.687214 53.3214 0.597828 102.144C0.550155 127.661 10.4422 149.286 26.3768 163.338C33.6171 169.714 38.0149 179.1 38.8313 189.641C39.0756 192.782 40.7144 195.249 43.0563 196.524L48.1453 199.295L48.3003 203.592L61.881 210.981L61.6605 204.777L53.2106 200.183C52.7815 199.236 52.5014 198.181 52.412 197.031C51.5956 186.495 47.1978 177.103 39.9576 170.727C24.023 156.676 14.1309 135.05 14.1786 109.533C14.268 60.7047 50.7077 15.9282 95.8061 8.92629C96.1934 8.8667 96.5867 8.80711 96.974 8.75348C113.284 6.45923 128.474 9.37322 141.256 16.3275L127.675 8.93821Z" fill="#F7AEF8" stroke="black" stroke-width="2" stroke-miterlimit="10"/>
<path d="M96.9792 8.7536C142.221 2.39526 178.821 36.076 179.399 84.9703C179.709 111.047 169.609 136.051 153.31 154.882C145.993 163.428 141.672 173.945 140.832 184.576C140.415 189.796 136.345 194.29 131.548 194.963L131.304 201.232L61.8862 210.987L61.6657 204.784C56.8806 205.457 52.8105 202.126 52.4172 197.031C51.6008 186.495 47.203 177.104 39.9627 170.727C24.0282 156.676 14.1361 135.05 14.1838 109.534C14.2732 60.7049 50.7129 15.9283 95.8113 8.92642C96.1986 8.86683 96.5919 8.80724 96.9792 8.7536Z" fill="#F7AEF8" stroke="black" stroke-width="2" stroke-miterlimit="10"/>
<path d="M61.8868 87.0029C62.3337 87.4081 62.9416 87.3962 63.466 87.5988C64.7114 88.0756 65.7781 88.8324 66.7673 89.6726C68.8351 91.4246 70.4321 93.5758 71.8325 95.8939C73.2925 98.3192 74.4605 100.876 75.4854 103.498C76.135 105.166 76.6594 106.894 77.2195 108.599C77.7976 110.339 78.2922 112.109 78.751 113.872C79.2456 115.779 79.7402 117.704 80.0501 119.665C80.2944 121.202 80.6698 122.716 80.944 124.253C81.0036 124.575 81.1049 124.652 81.3909 124.712C82.7794 125.022 84.1857 125.135 85.5861 125.308C91.3902 126.017 97.2063 125.618 103.016 125.713C104.643 125.743 106.252 125.439 107.867 125.338C109.309 125.242 110.739 125.093 112.152 124.807C112.575 124.724 112.759 124.581 112.879 124.062C113.23 122.495 113.409 120.898 113.767 119.331C114.172 117.525 114.625 115.732 115.006 113.92C115.155 113.217 115.358 112.514 115.566 111.817C116.079 110.088 116.52 108.336 117.151 106.656C117.795 104.952 118.397 103.235 119.112 101.555C119.654 100.28 120.298 99.0462 120.846 97.771C121.269 96.7818 121.877 95.8522 122.497 94.9583C123.647 93.2957 124.821 91.651 126.352 90.2923C127.764 89.035 129.308 88.01 131.102 87.3903C131.519 87.2472 132.019 87.3664 132.371 87.0089H135.118C135.66 87.3366 136.316 87.3307 136.888 87.6108C138.908 88.6 140.153 90.2149 141.095 92.2231C142.406 95.0179 142.168 97.9498 142.096 100.858C142.066 102.044 141.673 103.235 141.351 104.397C140.773 106.501 139.957 108.539 138.86 110.422C137.424 112.895 135.815 115.243 133.73 117.263C132.192 118.753 130.524 120.04 128.855 121.357C127.848 122.15 126.769 122.829 125.637 123.347C123.545 124.301 121.442 125.236 119.177 125.785C117.813 126.112 116.442 126.458 115.078 126.798C114.845 126.857 114.839 127 114.803 127.179C114.374 129.128 114.082 131.094 113.904 133.079C113.85 133.651 113.689 134.217 113.618 134.789C113.326 137.214 112.956 139.634 112.825 142.083C112.754 143.394 112.509 144.693 112.354 145.998C112.152 147.684 112.092 149.377 111.955 151.069C111.669 154.579 111.466 158.095 111.21 161.611C111.067 163.583 111.151 165.567 111.019 167.546C110.662 172.921 110.787 178.308 110.674 183.689C110.561 188.742 110.638 193.796 110.614 198.849C110.608 200.339 110.686 201.84 110.721 203.336C110.733 203.771 110.632 203.938 110.161 204.004C108.272 204.254 108.272 204.278 108.266 202.401C108.266 200.142 108.326 197.878 108.254 195.619C108.111 191.025 108.272 186.43 108.296 181.842C108.32 177.277 108.529 172.706 108.618 168.142C108.683 164.9 108.862 161.646 109.095 158.411C109.381 154.37 109.685 150.324 110.018 146.284C110.227 143.763 110.561 141.254 110.769 138.734C110.96 136.434 111.234 134.115 111.675 131.833C111.913 130.6 111.961 129.33 112.235 128.097C112.342 127.602 112.164 127.328 111.597 127.406C111.049 127.483 110.489 127.513 109.941 127.584C106.741 128.007 103.511 128.031 100.299 128.234C97.1407 128.43 93.9944 128.299 90.8539 128.127C88.2319 127.984 85.5801 127.984 82.982 127.447C81.4684 127.137 81.3909 127.274 81.6829 128.794C82.1239 131.076 82.2848 133.4 82.6602 135.683C83.0296 137.905 83.3038 140.14 83.4825 142.369C83.6792 144.788 84.0308 147.19 84.2274 149.609C84.4837 152.761 84.6088 155.926 85.0259 159.066C85.1451 159.966 85.1868 160.884 85.2345 161.795C85.4371 165.639 85.6338 169.489 85.8304 173.338C85.884 174.375 85.9317 175.418 85.9913 176.455C86.1462 179.267 86.0866 182.086 86.176 184.905C86.3906 191.501 86.4919 198.098 86.4502 204.701C86.4502 205.511 86.3727 206.322 86.325 207.132C86.3131 207.305 86.325 207.549 86.1105 207.573C85.3894 207.645 84.7995 208.091 84.1023 208.234C83.6851 208.318 83.5481 208.211 83.554 207.794C83.5719 206.906 83.5183 206.012 83.5719 205.124C83.8282 201.066 83.7566 196.996 83.6494 192.938C83.5421 188.85 83.7268 184.756 83.5183 180.674C83.2501 175.454 83.1905 170.221 82.833 165.007C82.684 162.832 82.6006 160.645 82.4457 158.476C82.1894 154.787 81.9272 151.093 81.5518 147.41C81.3373 145.324 81.0453 143.239 80.944 141.135C80.8903 140.027 80.6281 138.93 80.509 137.822C80.2229 135.236 79.9309 132.649 79.4721 130.087C79.3171 129.241 79.2516 128.389 79.1264 127.537C79.0668 127.125 78.9417 126.875 78.4054 126.756C76.4747 126.321 74.526 125.88 72.6668 125.224C70.4679 124.444 68.2392 123.645 66.3025 122.299C64.1215 120.779 61.9702 119.236 60.0872 117.317C57.9836 115.172 56.2793 112.782 54.8015 110.178C53.6692 108.193 52.8588 106.096 52.2331 103.939C51.816 102.502 51.4882 100.995 51.6789 99.4514C51.7028 99.2667 51.9292 98.8257 51.375 98.9092V97.2347C51.7206 97.1334 51.6491 96.8533 51.6312 96.609C51.5359 95.3278 51.7802 94.0644 52.2152 92.9084C52.5847 91.9371 53.0555 90.9657 53.705 90.0838C54.5869 88.886 55.6894 88.0458 56.9885 87.4022C57.2924 87.2532 57.7214 87.4022 57.93 87.0208H61.8987L61.8868 87.0029ZM53.7706 98.6291C53.699 99.7613 54.0327 101.394 54.4558 102.967C54.8193 104.332 55.2484 105.691 55.8622 107.002C56.4402 108.223 57.0361 109.421 57.7333 110.565C58.5855 111.954 59.5687 113.247 60.6473 114.474C61.7378 115.72 62.9714 116.798 64.2526 117.841C65.3967 118.777 66.7077 119.45 67.9293 120.261C68.9543 120.94 70.0806 121.458 71.1532 121.995C73.1614 122.996 75.3901 123.526 77.589 124.08C77.8869 124.158 78.2147 124.337 78.4471 124.116C78.6378 123.931 78.3458 123.657 78.322 123.413C78.31 123.288 78.2326 123.175 78.2207 123.049C77.9883 120.654 77.3089 118.354 76.7905 116.018C76.5938 115.13 76.278 114.284 76.0933 113.402C75.7417 111.751 75.1637 110.172 74.7048 108.557C74.3771 107.401 73.8884 106.292 73.5189 105.16C72.9826 103.51 72.2139 101.96 71.5584 100.357C70.9327 98.8317 70.0508 97.4313 69.1688 96.0488C67.9591 94.1479 66.5587 92.3542 64.6935 91.073C63.4123 90.191 62.0179 89.4521 60.3375 89.3746C57.787 89.2555 56.6428 89.9884 55.3318 91.9668C54.1221 93.7963 53.8003 95.9296 53.7646 98.6351L53.7706 98.6291ZM133.896 89.4342C132.585 89.4342 131.483 89.756 130.416 90.3341C128.092 91.6033 126.412 93.4983 124.928 95.6555C123.253 98.0868 121.996 100.715 120.906 103.426C120.012 105.649 119.207 107.913 118.558 110.231C117.801 112.937 117.026 115.636 116.436 118.383C116.061 120.129 115.709 121.875 115.387 123.627C115.244 124.414 115.62 124.235 116.013 124.134C116.645 123.973 117.259 123.723 117.902 123.598C119.285 123.324 120.566 122.734 121.907 122.346C122.973 122.036 123.724 121.256 124.707 120.815C127.103 119.736 129.23 118.217 131.185 116.447C133.533 114.319 135.38 111.799 136.912 109.057C138.437 106.322 139.331 103.355 139.742 100.25C140.124 97.3598 139.891 94.5531 138.336 92.0086C137.341 90.3877 135.905 89.3866 133.902 89.4283L133.896 89.4342Z" fill="black"/>
</svg>
