<svg width="64" height="64" viewBox="0 0 64 64" fill="none" xmlns="http://www.w3.org/2000/svg">
<path id="Vector" d="M64 32C64 28.8365 61.4449 26.1597 58.1597 26.1597H53.6578L57.5513 23.8479C60.3498 22.2662 61.3232 18.7376 59.6198 15.9392C58.038 13.1407 54.5095 12.1673 51.711 13.8707L47.8175 16.1825L50.1293 12.289C51.711 9.4905 50.7376 5.96198 48.0608 4.38023C45.2624 2.79848 41.7338 3.77186 40.1521 6.44867L37.8403 10.3422V5.8403C37.8403 2.67681 35.2852 0 32 0C28.8365 0 26.1597 2.55513 26.1597 5.8403V10.3422L23.8479 6.44867C22.2662 3.65019 18.7376 2.67681 15.9392 4.38023C13.1407 5.96198 12.1673 9.4905 13.8707 12.289L16.1825 16.1825L12.289 13.8707C9.4905 12.289 5.96198 13.2624 4.38023 15.9392C2.79848 18.7376 3.77186 22.2662 6.44867 23.8479L10.3422 26.1597H5.8403C2.67681 26.1597 0 28.7148 0 32C0 35.1635 2.55513 37.8403 5.8403 37.8403H10.3422L6.44867 40.1521C3.65019 41.7338 2.67681 45.2624 4.38023 48.0608C5.96198 50.8593 9.4905 51.8327 12.289 50.1293L16.1825 47.8175L13.8707 51.711C12.289 54.5095 13.2624 58.038 15.9392 59.6198C18.7376 61.2015 22.2662 60.2281 23.8479 57.5513L26.1597 53.6578V58.1597C26.1597 61.3232 28.7148 64 32 64C35.1635 64 37.8403 61.4449 37.8403 58.1597V53.6578L40.1521 57.5513C41.7338 60.3498 45.2624 61.3232 48.0608 59.6198C50.8593 58.038 51.8327 54.5095 50.1293 51.711L47.8175 47.8175L51.711 50.1293C54.5095 51.711 58.038 50.7376 59.6198 48.0608C61.2015 45.2624 60.2281 41.7338 57.5513 40.1521L53.6578 37.8403H58.1597C61.4449 37.8403 64 35.2852 64 32Z" fill="#BDE0FE"/>
</svg>
