<svg width="280" height="150" viewBox="0 0 280 150" fill="none" xmlns="http://www.w3.org/2000/svg">
<path d="M190.216 17.8629L190.161 36.5234C190.161 35.6398 189.512 34.7608 187.995 33.8818C184.106 31.6294 180.158 34.0649 175.621 31.4417C173.601 30.2697 172.5 28.9786 172.5 27.596L172.555 8.93555C172.555 10.3181 173.651 11.6092 175.676 12.7812C180.213 15.409 184.161 12.9689 188.05 15.2213C189.567 16.0957 190.216 16.9793 190.216 17.8629Z" fill="#F7AEF8" stroke="black" stroke-width="2" stroke-miterlimit="10"/>
<path d="M134.68 14.3418L134.625 33.0023C134.625 33.8767 133.976 34.7465 132.486 35.6118C128.616 37.8643 124.645 35.4241 120.131 38.052C118.143 39.2102 117.055 40.4829 117.051 41.8518L117.106 23.1913C117.106 21.8225 118.198 20.5452 120.185 19.3915C124.7 16.7636 128.671 19.2038 132.541 16.9513C134.031 16.0861 134.675 15.2162 134.68 14.3418Z" fill="#88A4DF" stroke="black" stroke-width="2" stroke-miterlimit="10"/>
<path d="M138.883 25.2838L138.828 43.9442C138.828 43.7611 138.828 43.578 138.828 43.3949L138.883 24.7344C138.883 24.9175 138.883 25.1006 138.883 25.2838Z" fill="#88A4DF" stroke="black" stroke-width="2" stroke-miterlimit="10"/>
<path d="M57.2305 50.8519L57.2853 32.1914C57.2853 33.0109 57.8245 33.835 58.9029 34.4576L58.848 53.1181C57.7697 52.4954 57.2305 51.6714 57.2305 50.8519Z" fill="#88A4DF" stroke="black" stroke-width="2" stroke-miterlimit="10"/>
<path d="M88.3672 60.3934C88.3672 60.2148 88.3672 60.0409 88.3672 59.8577L88.422 41.1973C88.422 41.3758 88.422 41.5544 88.422 41.7329C88.4083 47.332 88.3855 54.7943 88.3672 60.3934Z" fill="#BDE0FE" stroke="black" stroke-width="2" stroke-miterlimit="10"/>
<path d="M110.192 43.2809L110.137 61.9413C110.137 60.3985 108.771 58.7366 105.764 56.9969C102.483 55.097 99.3671 54.3279 96.5066 54.4927C94.423 54.6117 92.4719 55.2298 90.6852 56.2644C88.5147 57.528 88.3639 58.7183 88.3594 59.8629L88.4142 41.2024C88.4142 40.0578 88.5696 38.8675 90.74 37.604C92.5221 36.5647 94.4733 35.9513 96.5615 35.8322C99.4219 35.6674 102.538 36.4365 105.819 38.3365C108.826 40.0762 110.197 41.738 110.192 43.2809Z" fill="#88A4DF" stroke="black" stroke-width="2" stroke-miterlimit="10"/>
<path d="M74.8086 43.6748L74.7584 62.3352L58.8477 53.1195L58.9025 34.459L74.8086 43.6748Z" fill="#88A4DF" stroke="black" stroke-width="2" stroke-miterlimit="10"/>
<path d="M215.349 36.7069C209.674 33.4198 204.501 33.5159 200.274 35.9744C198.099 37.2379 197.948 38.4282 197.948 39.5728V40.3556C197.916 41.3079 197.683 42.2373 196.107 43.1529C192.237 45.4007 188.312 44.3478 184.341 42.045L171.935 34.8619C170.852 34.2347 170.313 33.4152 170.313 32.5957L170.258 51.2562C170.258 52.0757 170.797 52.8997 171.88 53.5224L184.286 60.7055C188.257 63.0037 192.182 64.0612 196.052 61.8134C197.766 60.8153 197.894 59.8081 197.898 58.7689V57.9815C197.935 56.9148 198.209 55.8068 200.224 54.6348C204.451 52.1718 209.623 52.0802 215.299 55.3673C218.305 57.107 219.676 58.7689 219.671 60.3117L219.726 41.6513C219.726 40.1084 218.36 38.4466 215.353 36.7069H215.349Z" fill="#F7AEF8" stroke="black" stroke-width="2" stroke-miterlimit="10"/>
<path d="M164.924 34.4868L152.628 41.6378C150.215 43.0433 148.602 44.4396 148.598 45.8222L148.543 64.4827C148.543 63.0955 150.161 61.6992 152.573 60.2983L164.869 53.1472C165.934 52.5292 166.464 51.7189 166.469 50.9085L166.524 32.248C166.524 33.0584 165.989 33.8687 164.924 34.4868Z" fill="#88A4DF" stroke="black" stroke-width="2" stroke-miterlimit="10"/>
<path d="M88.4165 41.7324L88.3616 60.3929C88.3616 61.4321 88.2291 62.4393 86.5156 63.4374C85.4098 64.0829 84.2948 64.4537 83.1799 64.6048C80.3971 64.9802 77.5869 63.973 74.7539 62.3294L74.8087 43.669C77.6418 45.3079 80.452 46.3151 83.2347 45.9443C84.3542 45.7932 85.4646 45.4224 86.5704 44.7769C88.2839 43.7788 88.4119 42.7717 88.4165 41.7324Z" fill="#88A4DF" stroke="black" stroke-width="2" stroke-miterlimit="10"/>
<path d="M106.995 65.7416C105.103 66.8449 103.303 67.0555 101.566 67.0921C101.585 60.8704 101.603 54.6533 101.621 48.4317C103.358 48.3904 105.158 48.1799 107.05 47.0811C109.033 45.9228 110.116 44.6501 110.12 43.2812L110.066 61.9417C110.066 63.3106 108.978 64.5833 106.995 65.7416Z" fill="#BDE0FE" stroke="black" stroke-width="2" stroke-miterlimit="10"/>
<path d="M101.569 67.096C100.605 67.1143 99.6587 67.0823 98.7266 67.1281C98.7448 60.9064 98.7631 54.6893 98.7814 48.4676C99.7136 48.4264 100.659 48.4539 101.624 48.4355C101.605 54.6572 101.587 60.8743 101.569 67.096Z" fill="#BDE0FE" stroke="black" stroke-width="2" stroke-miterlimit="10"/>
<path d="M94.6463 68.1848C93.1567 69.0501 92.5124 69.9199 92.5078 70.7944L92.5627 52.1339C92.5627 51.2595 93.2115 50.3896 94.7011 49.5243C96.04 48.7415 97.3971 48.5263 98.7816 48.4668C98.7633 54.6885 98.7451 60.9056 98.7268 67.1273C97.3423 67.1868 95.9851 67.402 94.6463 68.1848Z" fill="#BDE0FE" stroke="black" stroke-width="2" stroke-miterlimit="10"/>
<path d="M92.5703 70.7913L92.6252 52.1309C92.6252 53.5272 94.2519 54.9281 96.6965 56.3427L96.6417 75.0032C94.2016 73.5886 92.5703 72.1831 92.5703 70.7913Z" fill="#88A4DF" stroke="black" stroke-width="2" stroke-miterlimit="10"/>
<path d="M108.17 62.984L108.115 81.6445L96.6367 75.0062L96.6915 56.3457L108.17 62.984Z" fill="#88A4DF" stroke="black" stroke-width="2" stroke-miterlimit="10"/>
<path d="M161.927 59.6557C156.288 62.9382 151.111 62.8421 146.857 60.379C142.319 57.7512 146.505 55.453 142.616 53.2005C138.723 50.9481 134.812 52.0011 130.864 54.2993L115.926 62.9886C113.792 64.2293 110.32 64.2293 108.172 62.9886L108.117 81.6491C110.265 82.8897 113.738 82.8897 115.871 81.6491L130.809 72.9598C134.752 70.6615 138.668 69.6086 142.561 71.861C146.455 74.1134 142.269 76.4117 146.802 79.0395C151.056 81.5026 156.229 81.5941 161.872 78.3162C164.837 76.5902 166.194 74.9467 166.199 73.413L166.254 54.7525C166.254 56.2862 164.892 57.9297 161.927 59.6557Z" fill="#88A4DF" stroke="black" stroke-width="2" stroke-miterlimit="10"/>
<path d="M115.635 1.45933L130.609 10.1303C134.58 12.4285 136.408 14.7085 132.542 16.9563C128.672 19.2088 124.701 16.7686 120.187 19.3965C115.955 21.8549 115.809 24.8582 121.484 28.1453C127.155 31.4278 132.332 31.3362 136.559 28.8778C141.073 26.2545 136.856 23.9517 140.726 21.7038C144.596 19.4514 148.521 20.509 152.492 22.8072L164.903 29.9948C167.055 31.2401 167.06 33.2545 164.921 34.4952L152.625 41.6462C148.672 43.9444 146.867 46.2198 150.76 48.4722C152.702 49.5984 154.663 49.5526 156.705 49.5526C158.748 49.5526 160.868 49.603 163.139 50.9169C167.398 53.38 167.571 56.3832 161.928 59.6657C156.289 62.9483 151.112 62.8521 146.858 60.3891C142.321 57.7612 146.506 55.463 142.618 53.2106C138.725 50.9581 134.813 52.0111 130.865 54.3093L115.928 62.9986C113.794 64.2393 110.321 64.2393 108.174 62.9986L96.6951 56.3558C92.7243 54.0575 90.892 51.7822 94.7623 49.5298C96.0828 48.7606 97.4171 48.5409 98.7834 48.4768C99.7155 48.4356 100.661 48.463 101.626 48.4447C103.38 48.4081 105.203 48.2067 107.123 47.0942C111.349 44.6311 111.495 41.6325 105.825 38.3454C102.544 36.4454 99.4277 35.6763 96.5672 35.8411C94.4836 35.9602 92.5324 36.5782 90.7458 37.6129C86.2358 40.2407 90.4488 42.5389 86.5785 44.7914C85.4727 45.4369 84.3577 45.8077 83.2428 45.9588C80.46 46.3342 77.6498 45.327 74.8168 43.6835L58.9061 34.4677C56.7585 33.227 56.7493 31.2081 58.8832 29.9628L107.877 1.45933C110.01 0.214077 113.483 0.214077 115.635 1.45933Z" fill="#88A4DF" stroke="black" stroke-width="2" stroke-miterlimit="10"/>
<path d="M228.659 1.858L277.926 30.3798C280.078 31.625 280.083 33.644 277.949 34.8847L228.951 63.3836C226.817 64.6242 223.345 64.6242 221.192 63.3836L206.218 54.7126C202.248 52.4143 200.42 50.139 204.286 47.8866C208.151 45.6341 212.131 48.0788 216.641 45.451C220.868 42.988 221.019 39.9847 215.348 36.7022C209.673 33.4151 204.5 33.5112 200.274 35.9697C195.759 38.5975 199.972 40.8958 196.102 43.1436C192.232 45.3915 188.306 44.3385 184.336 42.0357L171.93 34.8526C169.777 33.6074 169.768 31.5884 171.902 30.3523L186.186 22.0476C190.139 19.7494 191.944 17.474 188.051 15.2216C184.162 12.9691 180.214 15.4047 175.677 12.7814C171.418 10.3138 171.24 7.31514 176.883 4.03262C182.522 0.750096 187.699 0.846237 191.957 3.30927C196.495 5.93712 192.305 8.23535 196.193 10.4878C200.086 12.7402 204.002 11.6873 207.946 9.38904L220.9 1.858C223.034 0.612752 226.507 0.61733 228.654 1.858H228.659Z" fill="#F7AEF8" stroke="black" stroke-width="2" stroke-miterlimit="10"/>
<path fill-rule="evenodd" clip-rule="evenodd" d="M279.542 33.9283L279.546 32.6602C279.542 33.3453 279.155 34.0299 278.392 34.5976L228.952 63.3869C226.818 64.6276 223.345 64.6276 221.193 63.3869L206.219 54.7159C203.78 53.3017 202.149 51.8966 202.152 50.5052L202.098 69.1645C202.098 70.5608 203.724 71.9663 206.164 73.3763L221.138 82.0473C223.291 83.2926 226.763 83.2926 228.897 82.0473L279.683 53.04V43.1603L279.711 33.83L279.542 33.9283Z" fill="#F7AEF8"/>
<path d="M279.546 32.6602L280.546 32.6631L278.546 32.6543L279.546 32.6602ZM279.542 33.9283L278.542 33.9253L278.537 35.6707L280.045 34.7925L279.542 33.9283ZM278.392 34.5976L278.896 35.4618L278.944 35.4335L278.989 35.3999L278.392 34.5976ZM228.952 63.3869L229.455 64.2514L229.455 64.2511L228.952 63.3869ZM221.193 63.3869L220.692 64.2523L220.694 64.2532L221.193 63.3869ZM206.219 54.7159L205.718 55.581L205.718 55.5813L206.219 54.7159ZM202.152 50.5052L203.152 50.5078L201.152 50.5023L202.152 50.5052ZM202.098 69.1645L201.098 69.1616V69.1645H202.098ZM206.164 73.3763L206.666 72.511L206.665 72.5105L206.164 73.3763ZM221.138 82.0473L220.637 82.9127L220.638 82.9129L221.138 82.0473ZM228.897 82.0473L228.401 81.179L228.393 81.1836L228.897 82.0473ZM279.683 53.04L280.179 53.9083L280.683 53.6205V53.04H279.683ZM279.683 43.1603L278.683 43.1573V43.1603H279.683ZM279.711 33.83L280.711 33.833L280.716 32.0876L279.208 32.9659L279.711 33.83ZM278.546 32.6572L278.542 33.9253L280.542 33.9312L280.546 32.6631L278.546 32.6572ZM278.989 35.3999C279.925 34.7037 280.539 33.7523 280.546 32.666L278.546 32.6543C278.544 32.9383 278.386 33.3562 277.796 33.7954L278.989 35.3999ZM277.889 33.7335L228.449 62.5227L229.455 64.2511L278.896 35.4618L277.889 33.7335ZM228.449 62.5224C227.571 63.0329 226.354 63.3174 225.08 63.3174C223.805 63.3174 222.582 63.0331 221.693 62.5205L220.694 64.2532C221.957 64.9814 223.546 65.3174 225.08 65.3174C226.613 65.3174 228.199 64.9815 229.455 64.2514L228.449 62.5224ZM221.694 62.5215L206.72 53.8505L205.718 55.5813L220.692 64.2523L221.694 62.5215ZM206.721 53.8508C205.529 53.16 204.596 52.5047 203.972 51.8898C203.331 51.2578 203.152 50.8033 203.152 50.5078L201.152 50.5026C201.15 51.5986 201.785 52.5422 202.568 53.3142C203.368 54.1032 204.47 54.8576 205.718 55.581L206.721 53.8508ZM201.152 50.5023L201.098 69.1616L203.098 69.1674L203.152 50.5082L201.152 50.5023ZM201.098 69.1645C201.098 70.2599 201.73 71.2036 202.514 71.9771C203.314 72.7668 204.415 73.5205 205.664 74.2422L206.665 72.5105C205.474 71.8221 204.541 71.1681 203.918 70.5534C203.279 69.9226 203.098 69.4654 203.098 69.1645H201.098ZM205.663 74.2417L220.637 82.9127L221.64 81.182L206.666 72.511L205.663 74.2417ZM220.638 82.9129C221.901 83.6439 223.49 83.9813 225.025 83.9813C226.559 83.9813 228.145 83.644 229.401 82.911L228.393 81.1836C227.515 81.6959 226.299 81.9813 225.025 81.9813C223.751 81.9813 222.528 81.696 221.639 81.1818L220.638 82.9129ZM229.393 82.9157L280.179 53.9083L279.187 52.1717L228.401 81.179L229.393 82.9157ZM280.683 53.04V43.1603H278.683V53.04H280.683ZM280.683 43.1632L280.711 33.833L278.711 33.8271L278.683 43.1573L280.683 43.1632ZM279.208 32.9659L279.039 33.0641L280.045 34.7925L280.214 34.6942L279.208 32.9659Z" fill="black"/>
<path d="M109.693 83.9671C109.693 84.6813 109.277 85.3955 108.445 85.9815L108.5 67.321C109.332 66.7396 109.748 66.0254 109.748 65.3066C109.734 70.9057 109.711 78.3681 109.693 83.9671Z" fill="#BDE0FE" stroke="black" stroke-width="2" stroke-miterlimit="10"/>
<path d="M108.446 85.9808C108.323 86.0403 108.204 86.1044 108.09 86.1685L108.145 67.508C108.259 67.4393 108.378 67.3798 108.501 67.3203C108.487 72.9194 108.465 80.3817 108.446 85.9808Z" fill="#BDE0FE" stroke="black" stroke-width="2" stroke-miterlimit="10"/>
<path d="M143.871 73.8905L143.816 92.551C143.816 92.3724 143.816 92.1893 143.816 92.0062L143.871 73.3457C143.871 73.5288 143.871 73.7074 143.871 73.8905Z" fill="#EDF7FF" stroke="black" stroke-width="2" stroke-miterlimit="10"/>
<path d="M108.138 67.5117L108.088 86.1676L95.7461 93.3461L95.8009 74.6857L108.138 67.5117Z" fill="#BDE0FE" stroke="black" stroke-width="2" stroke-miterlimit="10"/>
<path d="M95.749 93.348C93.3363 94.7489 91.7233 96.1452 91.7188 97.5324L91.7736 78.8719C91.7736 77.4847 93.3912 76.0884 95.8038 74.6875C95.7901 80.2866 95.7672 87.7489 95.749 93.348Z" fill="#BDE0FE" stroke="black" stroke-width="2" stroke-miterlimit="10"/>
<path d="M165.644 75.4336L165.59 94.0941C165.59 95.4629 164.498 96.7402 162.51 97.8985C157.995 100.522 154.024 98.0862 150.159 100.334C148.664 101.199 148.02 102.074 148.016 102.948L148.07 84.2877C148.07 83.4133 148.719 82.5434 150.214 81.6736C154.079 79.4257 158.05 81.8613 162.565 79.238C164.552 78.0798 165.64 76.8025 165.644 75.4336Z" fill="#EDF7FF" stroke="black" stroke-width="2" stroke-miterlimit="10"/>
<path d="M83.1911 103.882C80.1433 103.172 77.0772 104.211 73.9883 106.006L74.0431 87.3454C77.132 85.5508 80.1981 84.5115 83.2459 85.2212C83.2276 91.4428 83.2094 97.6599 83.1911 103.882Z" fill="#BDE0FE" stroke="black" stroke-width="2" stroke-miterlimit="10"/>
<path d="M109.43 87.7985L109.375 106.459C109.375 105.076 108.278 103.785 106.259 102.618C105.199 102.004 104.17 101.666 103.17 101.483C102.023 101.272 100.912 101.258 99.8249 101.254C98.7465 101.254 97.6864 101.267 96.6446 101.112C95.717 100.974 94.7986 100.704 93.8801 100.173C92.3676 99.2942 91.7142 98.4151 91.7188 97.5316L91.7736 78.8711C91.7736 79.7547 92.4225 80.6337 93.9349 81.5127C94.8488 82.0437 95.7673 82.3138 96.6994 82.4512C97.7458 82.6068 98.8014 82.5931 99.8797 82.5931C100.967 82.5931 102.078 82.6068 103.225 82.822C104.225 83.0097 105.253 83.3439 106.313 83.9574C108.333 85.1248 109.434 86.4159 109.43 87.7985Z" fill="#EDF7FF" stroke="black" stroke-width="2" stroke-miterlimit="10"/>
<path d="M109.379 106.459C109.379 107.993 108.017 109.637 105.047 111.362C105.065 105.141 105.083 98.9237 105.102 92.702C108.067 90.976 109.429 89.3325 109.434 87.7988C109.42 93.3979 109.397 100.86 109.379 106.459Z" fill="#BDE0FE" stroke="black" stroke-width="2" stroke-miterlimit="10"/>
<path d="M85.7914 104.916C84.9278 104.417 84.0596 104.078 83.1914 103.881C83.2097 97.6595 83.228 91.4424 83.2462 85.2207C84.1144 85.4176 84.9826 85.7563 85.8462 86.2554C89.7394 88.5078 85.5492 90.806 90.0867 93.4339C91.2381 94.0977 92.4582 94.5921 93.733 94.8943C93.733 96.7897 93.7239 98.6804 93.7193 100.576C93.7056 104.902 93.6919 109.228 93.6828 113.555C92.4079 113.257 91.1879 112.763 90.0364 112.094C85.499 109.467 89.6891 107.168 85.796 104.916H85.7914Z" fill="#BDE0FE" stroke="black" stroke-width="2" stroke-miterlimit="10"/>
<path d="M105.045 111.362C100.951 113.747 97.1035 114.347 93.6719 113.555C93.6856 109.228 93.6993 104.902 93.7084 100.576C93.713 98.6802 93.7176 96.7895 93.7221 94.8941C97.1538 95.6861 101.001 95.0818 105.095 92.7012C105.077 98.9229 105.059 105.14 105.041 111.362H105.045Z" fill="#BDE0FE" stroke="black" stroke-width="2" stroke-miterlimit="10"/>
<path d="M74.0364 87.3457L73.9861 106.006L59.0898 114.668L59.1447 96.0075L74.0364 87.3457Z" fill="#BDE0FE" stroke="black" stroke-width="2" stroke-miterlimit="10"/>
<path d="M59.0915 114.668C58.9635 114.742 58.8447 114.819 58.7305 114.897L58.7853 96.2367C58.8995 96.1589 59.0183 96.0811 59.1463 96.0078C59.1326 101.607 59.1097 109.069 59.0915 114.668Z" fill="#BDE0FE" stroke="black" stroke-width="2" stroke-miterlimit="10"/>
<path d="M51.3969 96.0445L2.12944 67.5181C1.05106 66.8955 0.511864 66.0714 0.511864 65.252L0.457031 83.9124C0.457031 84.7319 0.996222 85.556 2.0746 86.1786L51.342 114.705C53.3708 115.877 56.5831 115.941 58.7308 114.902C58.7445 109.303 58.7673 101.84 58.7856 96.2414C56.6334 97.2852 53.4257 97.2211 51.3969 96.0445Z" fill="#BDE0FE" stroke="black" stroke-width="2" stroke-miterlimit="10"/>
<path d="M105.736 38.3368C111.415 41.6239 111.269 44.6225 107.047 47.0856C105.155 48.1889 103.355 48.3995 101.619 48.4361C100.654 48.4544 99.7086 48.4224 98.7764 48.4682C97.3919 48.5277 96.0348 48.7429 94.6959 49.5257C90.8302 51.7736 92.6534 54.0489 96.6197 56.3426L108.121 63.045C110.145 64.217 110.273 66.0711 108.491 67.3209C108.368 67.3804 108.249 67.4445 108.135 67.5086L95.7926 74.6826C91.8401 76.9808 90.0351 79.2561 93.9283 81.5086C94.8422 82.0396 95.7606 82.3097 96.6928 82.4471C98.7901 82.7721 100.938 82.4059 103.218 82.8179C104.219 83.0056 105.247 83.3398 106.307 83.9533C110.566 86.4163 110.739 89.4196 105.096 92.6975C101.002 95.0827 97.1543 95.6825 93.7227 94.8905C92.4478 94.5929 91.2278 94.0984 90.0763 93.43C85.5388 90.8022 89.729 88.504 85.8359 86.2515C84.9722 85.7525 84.104 85.4137 83.2359 85.2169C80.1881 84.5073 77.122 85.5465 74.0331 87.3411L59.1413 96.003C59.0134 96.0762 58.8946 96.154 58.7803 96.2319C56.6282 97.2757 53.4204 97.2116 51.3916 96.035L2.12874 67.5178C-0.0188821 66.2771 -0.0280209 64.2582 2.1059 63.0129L51.1037 34.514C53.2376 33.2688 56.7104 33.2688 58.8626 34.514L74.7367 43.6886C77.5972 45.3413 80.4348 46.3531 83.2404 45.9456C84.3599 45.7945 85.4703 45.4237 86.5761 44.7782C90.4464 42.5303 86.2334 40.2275 90.7434 37.5997C92.5255 36.5604 94.4766 35.947 96.5648 35.8279C99.4024 35.6814 102.487 36.4551 105.74 38.3322L105.736 38.3368Z" fill="#BDE0FE" stroke="black" stroke-width="2" stroke-miterlimit="10"/>
<path d="M161.273 70.4885C166.944 73.771 166.797 76.7742 162.566 79.2373C158.051 81.8605 154.081 79.425 150.215 81.6728C146.34 83.9207 148.168 86.2006 152.143 88.4988L165.161 96.039C167.309 97.2797 167.318 99.2941 165.184 100.539L116.191 129.038C114.057 130.283 110.58 130.279 108.428 129.038L59.1602 100.512C57.1405 99.3444 57.0126 97.4903 58.7763 96.2405C58.8906 96.1626 59.0094 96.0848 59.1373 96.0116L74.029 87.3497C77.118 85.5551 80.184 84.5159 83.2318 85.2255C84.0818 85.4223 84.9317 85.7565 85.7816 86.2464C89.6747 88.4988 85.48 90.8016 90.022 93.4249C91.1872 94.0979 92.4209 94.5969 93.7187 94.8945C97.1503 95.6865 100.998 95.0822 105.092 92.7016C110.74 89.419 110.562 86.4204 106.303 83.9573C105.243 83.3439 104.215 83.0051 103.214 82.822C102.067 82.6114 100.957 82.5976 99.8691 82.593C98.7907 82.593 97.7306 82.6068 96.6888 82.4511C95.7612 82.3138 94.8427 82.0437 93.9243 81.5126C90.0357 79.2602 91.8406 76.9848 95.7886 74.6866L108.131 67.5127C108.245 67.444 108.364 67.3845 108.487 67.325C110.639 66.272 113.861 66.3361 115.889 67.5127L130.251 75.8311C134.227 78.1294 138.152 79.1869 142.022 76.9345C145.892 74.6866 141.675 72.3838 146.189 69.7605C150.425 67.2975 155.593 67.2059 161.268 70.4885H161.273Z" fill="#EDF7FF" stroke="black" stroke-width="2" stroke-miterlimit="10"/>
<path d="M165.189 100.54L116.195 129.039C114.062 130.284 110.584 130.279 108.432 129.039L59.1646 100.512C58.0816 99.8851 57.5425 99.0656 57.547 98.2461L57.4922 116.907C57.4922 117.726 58.0314 118.546 59.1098 119.173L108.377 147.699C110.529 148.944 114.002 148.944 116.141 147.699L165.134 119.2C166.194 118.582 166.729 117.772 166.729 116.966L166.783 98.3056C166.783 99.1159 166.249 99.9217 165.189 100.54Z" fill="#EDF7FF" stroke="black" stroke-width="2" stroke-miterlimit="10"/>
</svg>
