<svg width="162" height="183" viewBox="0 0 162 183" fill="none" xmlns="http://www.w3.org/2000/svg">
<g id="Layer 1">
<g id="Group">
<g id="Group_2">
<path id="Vector" d="M88.8596 102.091L73.1445 93.5435L135.872 46.1201C135.872 46.1201 151.617 54.5071 151.587 54.6672C151.556 54.8274 88.8596 102.091 88.8596 102.091Z" fill="#88A4DF" stroke="black" stroke-width="2" stroke-miterlimit="10"/>
<path id="Vector_2" d="M50.1777 173.334L34.4626 164.781C14.3017 153.815 0.95174 131.379 1.00013 103.681C1.07272 64.055 28.5529 27.4894 64.0478 17.6055C64.0478 17.6055 78.7284 24.8671 79.7629 26.1586C80.7974 27.4501 16.7938 72.6021 16.7152 112.228C16.6607 139.926 30.0167 162.368 50.1777 173.334Z" fill="#88A4DF" stroke="black" stroke-width="2" stroke-miterlimit="10"/>
<path id="Vector_3" d="M79.7627 26.5967L88.8602 102.535C88.8602 102.535 151.617 55.1116 151.92 55.1116C152.222 55.1116 161.024 78.345 160.999 92.3966C160.921 135.404 128.553 174.801 88.715 180.402C48.877 186.003 16.6364 155.674 16.715 112.666C16.7876 73.0401 44.2677 36.4806 79.7627 26.5967Z" fill="#88A4DF" stroke="black" stroke-width="2" stroke-miterlimit="10"/>
</g>
<g id="Group_3">
<path id="Vector_4" d="M101.864 10.0328C143.619 4.16537 158.264 35.5894 159.032 37.2408C159.032 37.2408 102.45 80.5236 102.384 80.067C102.318 79.6104 94.1758 11.4966 94.1758 11.4966C96.8373 10.8615 99.396 10.3776 101.87 10.0328H101.864Z" fill="#F7AEF8" stroke="black" stroke-width="2" stroke-miterlimit="10"/>
<path id="Vector_5" d="M102.38 80.0667C102.137 80.5232 88.1892 72.3423 88.1892 72.3423C88.1892 72.3423 79.7102 3.8595 79.9748 3.77798C80.2395 3.69646 94.1716 11.4964 94.1716 11.4964C94.1716 11.4964 102.623 79.6101 102.38 80.0667Z" fill="#F7AEF8" stroke="black" stroke-width="2" stroke-miterlimit="10"/>
<path id="Vector_6" d="M123.897 7.90327C115.169 3.15488 103.325 0.112288 87.6705 2.31409C85.1965 2.65887 80.2433 3.39393 79.9763 3.77792C79.7093 4.16191 94.167 11.4963 94.167 11.4963C96.8285 10.8612 99.3872 10.3773 101.861 10.0325C117.516 7.83068 129.36 10.8733 138.088 15.6217L123.897 7.90327Z" fill="#F7AEF8" stroke="black" stroke-width="2" stroke-miterlimit="10"/>
</g>
</g>
</g>
</svg>
