<svg width="160" height="184" viewBox="0 0 160 184" fill="none" xmlns="http://www.w3.org/2000/svg">
<g id="Asset 2 2" clip-path="url(#clip0_2483_4433)">
<g id="Layer 1">
<g id="Group">
<path id="Vector" d="M57.6406 182.632L57.7151 139.805L105.601 133.637L105.833 175.851L57.6406 182.632Z" fill="#F7AEF8" stroke="black" stroke-width="2" stroke-miterlimit="10"/>
<g id="Group_2">
<path id="Vector_2" d="M87.0361 122.767L38.8606 129.539C38.8606 129.539 38.8523 129.539 38.8523 129.555L38.7695 172.366V172.374L57.6125 182.624C57.6125 182.624 57.6291 182.624 57.6291 182.616L57.7119 139.821C57.7119 139.821 57.7119 139.813 57.7202 139.805L105.598 133.637C105.598 133.637 105.879 133.016 105.871 133.016L87.0361 122.775V122.767Z" fill="#F7AEF8" stroke="black" stroke-width="2" stroke-miterlimit="10"/>
<g id="Group_3">
<path id="Vector_3" d="M115.469 55.7399C115.196 55.4419 114.84 55.177 114.401 54.9369L95.5329 44.6709C95.9717 44.911 96.3277 45.1759 96.6009 45.474C97.6358 46.6165 98.1574 48.0736 98.1574 49.8536C98.1574 52.4366 97.1722 54.5891 95.2349 56.3112C93.2893 58.0332 90.1433 60.0864 85.8051 62.4708L70.0998 70.965C65.4636 73.3908 60.9764 76.2801 56.6382 79.6248C52.3 82.9861 48.74 87.0263 45.9665 91.7701C43.1931 96.514 41.8022 102.268 41.7939 109.048L41.7773 117.99V117.998L60.6204 128.247C60.6204 128.247 60.6369 128.247 60.6369 128.239L60.6535 119.314C60.67 112.534 62.0526 106.78 64.8261 102.036C67.5996 97.2922 71.1512 93.2438 75.4977 89.8908C79.8359 86.5378 84.3231 83.6567 88.9594 81.231L104.665 72.7367C108.995 70.3524 112.149 68.2992 114.094 66.5771C116.032 64.8551 117.009 62.7026 117.017 60.1195C117.017 58.3478 116.495 56.8824 115.46 55.7399H115.469Z" fill="#F7AEF8" stroke="black" stroke-width="2" stroke-miterlimit="10"/>
<path id="Vector_4" d="M152.831 28.8327C157.078 35.5801 159.189 43.47 159.173 52.4941C159.156 61.5182 157.575 68.7706 154.42 74.6901C151.274 80.6178 147.383 85.4776 142.747 89.2694C138.103 93.0612 133.392 96.2651 128.607 98.8813L111.784 108.013C107.752 110.199 105.235 112.285 104.258 114.272C103.289 116.259 102.801 118.552 102.793 121.127V122.327C102.793 122.327 102.793 122.336 102.776 122.344L60.6525 128.263C60.6525 128.263 60.6359 128.263 60.6359 128.247L60.6525 119.314C60.669 112.533 62.0516 106.779 64.8251 102.036C67.5986 97.2917 71.1502 93.2433 75.4967 89.8903C79.8349 86.5373 84.3221 83.6562 88.9584 81.2305L104.664 72.7362C108.994 70.3519 112.148 68.2987 114.093 66.5766C116.031 64.8546 117.008 62.7021 117.016 60.119C117.016 58.3473 116.494 56.8819 115.459 55.7394C114.416 54.5969 112.098 53.8684 108.513 53.5703C104.929 53.2723 99.2409 53.6614 91.4752 54.7542C79.5203 56.4349 71.4814 58.9351 67.3667 62.255C63.2521 65.5749 61.1906 70.0538 61.1823 75.7084L61.1575 87.3073C61.1575 87.3073 61.1575 87.3155 61.1492 87.3238L19.6962 93.1522C19.6962 93.1522 19.6797 93.1522 19.6797 93.1357L19.6962 85.8916C19.7128 74.9219 22.2048 64.333 27.1556 54.125C32.0982 43.917 40.0709 35.133 51.0737 27.7895C62.0682 20.4378 76.6061 15.4952 94.6875 12.9536C110.227 10.7679 122.745 11.1901 132.224 14.212C141.704 17.2338 148.575 22.1101 152.814 28.8492L152.831 28.8327Z" fill="#F7AEF8" stroke="black" stroke-width="2" stroke-miterlimit="10"/>
<path id="Vector_5" d="M121.801 7.47315C119.268 6.09883 116.461 4.91494 113.373 3.92973C103.886 0.907898 91.3678 0.48567 75.8281 2.67133C57.7467 5.21298 43.2088 10.1638 32.2143 17.5073C21.2115 24.8591 13.2388 33.6431 8.29625 43.8428C3.34541 54.0591 0.861708 64.6479 0.83687 75.6093L0.820312 82.8617V82.87L19.6633 93.1194C19.6633 93.1194 19.6799 93.1194 19.6799 93.1112L19.6964 85.8753C19.713 74.9056 22.205 64.3168 27.1558 54.1088C32.0984 43.9008 40.0711 35.1167 51.0739 27.7733C62.0684 20.4215 76.6063 15.4789 94.6877 12.9373C110.227 10.7516 122.745 11.1739 132.225 14.1957C135.313 15.1809 138.119 16.3565 140.653 17.7391L121.785 7.47315H121.801Z" fill="#F7AEF8" stroke="black" stroke-width="2" stroke-miterlimit="10"/>
</g>
</g>
</g>
</g>
</g>
<defs>
<clipPath id="clip0_2483_4433">
<rect width="160" height="183.115" fill="white" transform="translate(0 0.46875)"/>
</clipPath>
</defs>
</svg>
