<svg width="201" height="109" viewBox="0 0 201 109" fill="none" xmlns="http://www.w3.org/2000/svg">
<path d="M194.461 65.7649C176.721 81.5997 141.258 107.715 100.499 107.715C59.7409 107.715 24.2778 81.5997 6.53755 65.7649C-0.179181 59.7695 -0.17918 49.7833 6.53754 43.788C24.2778 27.9532 59.7409 1.83789 100.499 1.83789C141.258 1.83789 176.721 27.9532 194.461 43.7879C201.178 49.7833 201.178 59.7695 194.461 65.7649ZM100.499 93.4079C121.835 93.4079 139.131 76.1122 139.131 54.7762C139.131 33.4407 121.835 16.1448 100.499 16.1448C79.1638 16.1448 61.868 33.4407 61.868 54.7762C61.868 76.1122 79.1638 93.4079 100.499 93.4079Z" fill="#F7AEF8" stroke="#111111" stroke-width="2"/>
</svg>
